<svg width="334" height="80" fill="none" xmlns="http://www.w3.org/2000/svg"><path d="M77.151 71.447c-.876 0-1.667-.196-2.373-.587a4.397 4.397 0 01-1.66-1.621c-.4-.69-.6-1.463-.6-2.323 0-.859.2-1.633.6-2.322.409-.69.962-1.23 1.66-1.62.706-.392 1.497-.588 2.373-.588.647 0 1.242.107 1.787.32.544.204 1.008.51 1.39.918l-.408.421c-.715-.706-1.629-1.059-2.743-1.059-.75 0-1.43.17-2.042.51a3.721 3.721 0 00-1.442 1.417 3.89 3.89 0 00-.523 2.004c0 .74.174 1.412.523 2.016.349.595.83 1.063 1.442 1.403.612.34 1.293.51 2.041.51 1.106 0 2.021-.356 2.744-1.071l.409.421a3.738 3.738 0 01-1.404.932 4.833 4.833 0 01-1.774.319zm10.419-3.242h-5.73c.017.52.149.983.396 1.391.246.4.578.71.995.932a3.05 3.05 0 001.43.332 3.08 3.08 0 001.199-.23c.374-.162.685-.396.931-.702l.37.421a2.83 2.83 0 01-1.097.804c-.434.187-.906.28-1.417.28-.663 0-1.254-.144-1.773-.433a3.192 3.192 0 01-1.225-1.2c-.29-.51-.434-1.093-.434-1.748 0-.646.136-1.225.408-1.735.28-.52.664-.923 1.149-1.213a3.128 3.128 0 011.633-.433 3.06 3.06 0 011.62.433 2.94 2.94 0 011.136 1.187c.281.51.421 1.09.421 1.736l-.012.178zm-3.165-2.973c-.468 0-.889.106-1.263.32a2.365 2.365 0 00-.906.88c-.222.374-.35.8-.383 1.276h5.104a2.673 2.673 0 00-.383-1.276 2.496 2.496 0 00-.906-.88 2.511 2.511 0 00-1.263-.32zm8.618-.561c.621 0 1.183.144 1.685.433.502.29.893.69 1.174 1.2.29.51.434 1.093.434 1.748s-.145 1.242-.434 1.761c-.28.51-.672.91-1.174 1.2a3.39 3.39 0 01-1.685.42 3.158 3.158 0 01-1.595-.408 2.917 2.917 0 01-1.11-1.16v3.993h-.638v-9.136h.613v1.57a2.87 2.87 0 011.11-1.188 3.104 3.104 0 011.62-.433zm-.038 6.189c.51 0 .97-.12 1.378-.358.409-.238.728-.57.957-.995.239-.425.358-.91.358-1.455 0-.544-.12-1.03-.358-1.455a2.507 2.507 0 00-.957-.995 2.685 2.685 0 00-1.378-.357c-.51 0-.97.119-1.378.357-.4.238-.719.57-.957.995-.23.426-.345.91-.345 1.455s.115 1.03.345 1.455c.238.425.557.757.957.995.408.239.868.358 1.378.358zm9.349-2.91c.978.17 1.467.719 1.467 1.646 0 .579-.212 1.021-.638 1.327-.417.307-1.046.46-1.888.46h-2.884v-6.661h2.807c.74 0 1.319.149 1.735.446.426.29.638.706.638 1.25 0 .392-.11.72-.331.983-.213.256-.515.439-.906.55zm-3.318-.191h2.144c.57 0 1.008-.107 1.314-.32.306-.22.459-.535.459-.944 0-.416-.153-.727-.459-.931-.298-.213-.736-.32-1.314-.32h-2.144v2.515zm2.246 3.1c1.267 0 1.901-.429 1.901-1.288 0-.451-.144-.783-.434-.996-.289-.212-.744-.319-1.365-.319h-2.348v2.604h2.246zm4.805-6.137h.638V70.4l4.747-5.678h.562v6.66h-.638v-5.678l-4.747 5.679h-.562v-6.661zm11.391 6.712c-.647 0-1.225-.145-1.736-.434-.51-.29-.91-.69-1.199-1.2a3.532 3.532 0 01-.434-1.748c0-.655.145-1.238.434-1.748a3.014 3.014 0 011.199-1.2c.511-.289 1.089-.433 1.736-.433.536 0 1.021.106 1.455.319.442.204.799.506 1.072.906l-.473.344a2.2 2.2 0 00-.893-.74 2.614 2.614 0 00-1.161-.255c-.519 0-.987.119-1.404.357-.408.23-.731.557-.97.983-.229.425-.344.914-.344 1.467s.115 1.042.344 1.468c.239.425.562.757.97.995.417.23.885.345 1.404.345.425 0 .812-.081 1.161-.243.358-.17.655-.421.893-.753l.473.345c-.273.4-.63.706-1.072.919a3.376 3.376 0 01-1.455.306zm9.896-6.763c.825 0 1.459.212 1.901.638.443.416.664 1.033.664 1.85v4.224h-.613v-1.187a2.252 2.252 0 01-.931.919c-.409.213-.898.319-1.468.319-.74 0-1.327-.174-1.761-.523-.425-.35-.638-.808-.638-1.379 0-.552.196-1 .587-1.34.4-.348 1.034-.523 1.901-.523h2.285v-.536c0-.62-.17-1.093-.511-1.416-.332-.323-.821-.485-1.467-.485-.443 0-.868.077-1.276.23a3.19 3.19 0 00-1.021.612l-.319-.46a3.462 3.462 0 011.199-.688 4.26 4.26 0 011.468-.255zm-.358 6.24c.553 0 1.021-.128 1.404-.383.391-.255.685-.626.881-1.11v-1.25h-2.272c-.655 0-1.131.118-1.429.356-.289.239-.434.566-.434.983 0 .434.162.778.485 1.034.323.246.778.37 1.365.37zm11.781-.09v2.22h-.6v-1.658h-6.304v1.659h-.612v-2.22h.395c.451-.026.757-.375.919-1.047.17-.68.289-1.634.357-2.859l.09-2.194h4.683v6.1h1.072zm-5.258-3.866c-.042 1.012-.127 1.854-.255 2.526-.128.672-.357 1.12-.689 1.34h4.492v-5.525h-3.471l-.077 1.659zm11.085.995c.979.17 1.468.719 1.468 1.646 0 .579-.213 1.021-.638 1.327-.417.307-1.047.46-1.889.46h-2.884v-6.661h2.808c.74 0 1.318.149 1.735.446.425.29.638.706.638 1.25 0 .392-.111.72-.332.983-.212.256-.514.439-.906.55zm-3.318-.191h2.144c.57 0 1.008-.107 1.315-.32.306-.22.459-.535.459-.944 0-.416-.153-.727-.459-.931-.298-.213-.736-.32-1.315-.32h-2.144v2.515zm2.246 3.1c1.268 0 1.902-.429 1.902-1.288 0-.451-.145-.783-.434-.996-.289-.212-.745-.319-1.366-.319h-2.348v2.604h2.246zm7.46.575c-.63 0-1.2-.145-1.71-.434a3.15 3.15 0 01-1.187-1.2 3.532 3.532 0 01-.434-1.748c0-.646.145-1.225.434-1.735a3.126 3.126 0 011.187-1.213 3.407 3.407 0 011.71-.433 3.34 3.34 0 011.697.433c.511.29.91.694 1.2 1.213.289.51.433 1.089.433 1.735 0 .647-.144 1.23-.433 1.748-.29.51-.689.91-1.2 1.2a3.338 3.338 0 01-1.697.434zm0-.574c.51 0 .965-.12 1.365-.358.409-.238.728-.57.957-.995.239-.425.358-.91.358-1.455a2.92 2.92 0 00-.358-1.455 2.498 2.498 0 00-.957-.995 2.616 2.616 0 00-1.365-.357c-.511 0-.97.119-1.378.357-.4.238-.719.57-.957.995a3.01 3.01 0 00-.345 1.455c0 .545.115 1.03.345 1.455.238.425.557.757.957.995.408.239.867.358 1.378.358zm7.667-2.565h-1.621v3.088h-.638v-6.661h.638v3.024h1.621l2.514-3.024h.702l-2.705 3.228 2.909 3.433h-.766l-2.654-3.088zm7.077-3.624c.825 0 1.459.212 1.902.638.442.416.663 1.033.663 1.85v4.224h-.612v-1.187a2.26 2.26 0 01-.932.919c-.408.213-.897.319-1.467.319-.741 0-1.328-.174-1.761-.523-.426-.35-.638-.808-.638-1.379 0-.552.195-1 .587-1.34.399-.348 1.033-.523 1.901-.523h2.284v-.536c0-.62-.17-1.093-.51-1.416-.332-.323-.821-.485-1.468-.485-.442 0-.868.077-1.276.23-.4.153-.74.357-1.021.612l-.319-.46a3.467 3.467 0 011.2-.688c.468-.17.957-.255 1.467-.255zm-.357 6.24c.553 0 1.021-.128 1.404-.383.391-.255.684-.626.88-1.11v-1.25h-2.271c-.655 0-1.132.118-1.43.356-.289.239-.433.566-.433.983 0 .434.161.778.485 1.034.323.246.778.37 1.365.37zm9.968-5.615h-2.603v6.087h-.638v-6.087h-2.603v-.574h5.844v.574zm3.709 6.138c-.63 0-1.2-.145-1.71-.434a3.15 3.15 0 01-1.187-1.2 3.532 3.532 0 01-.434-1.748c0-.646.145-1.225.434-1.735a3.126 3.126 0 011.187-1.213 3.407 3.407 0 011.71-.433 3.34 3.34 0 011.697.433c.511.29.91.694 1.2 1.213.289.51.434 1.089.434 1.735 0 .647-.145 1.23-.434 1.748-.29.51-.689.91-1.2 1.2a3.338 3.338 0 01-1.697.434zm0-.574c.51 0 .966-.12 1.365-.358.409-.238.728-.57.957-.995.239-.425.358-.91.358-1.455a2.92 2.92 0 00-.358-1.455 2.498 2.498 0 00-.957-.995 2.614 2.614 0 00-1.365-.357c-.51 0-.97.119-1.378.357-.4.238-.719.57-.957.995a3.01 3.01 0 00-.345 1.455c0 .545.115 1.03.345 1.455.238.425.557.757.957.995.408.239.868.358 1.378.358zm9.352-2.91c.978.17 1.467.719 1.467 1.646 0 .579-.213 1.021-.638 1.327-.417.307-1.046.46-1.889.46h-2.884v-6.661h2.808c.74 0 1.319.149 1.735.446.426.29.638.706.638 1.25 0 .392-.11.72-.331.983-.213.256-.515.439-.906.55zm-3.318-.191h2.144c.57 0 1.008-.107 1.314-.32.306-.22.459-.535.459-.944 0-.416-.153-.727-.459-.931-.298-.213-.736-.32-1.314-.32h-2.144v2.515zm2.246 3.1c1.267 0 1.901-.429 1.901-1.288 0-.451-.145-.783-.434-.996-.289-.212-.744-.319-1.365-.319h-2.348v2.604h2.246zm8.082-6.137h.638V70.4l4.748-5.678h.561v6.66h-.638v-5.678l-4.747 5.679h-.562v-6.661zm17.553-.051a3.24 3.24 0 011.671.433c.494.281.881.681 1.162 1.2.28.51.421 1.093.421 1.748 0 .647-.141 1.23-.421 1.748-.281.51-.668.91-1.162 1.2a3.24 3.24 0 01-1.671.434 3.337 3.337 0 01-1.621-.396 3.059 3.059 0 01-1.148-1.11 3.552 3.552 0 01-.472-1.633h-1.698v3.088h-.638v-6.661h.638v2.986h1.698a3.483 3.483 0 01.51-1.583c.289-.46.672-.816 1.148-1.072a3.3 3.3 0 011.583-.382zm0 6.201c.493 0 .94-.119 1.34-.357.4-.238.71-.57.931-.995.23-.434.345-.923.345-1.468 0-.553-.115-1.042-.345-1.467a2.358 2.358 0 00-.931-.983 2.57 2.57 0 00-1.34-.357c-.494 0-.94.119-1.34.357-.4.23-.715.557-.944.983-.222.425-.332.914-.332 1.467 0 .545.11 1.034.332 1.468a2.528 2.528 0 002.284 1.352zm8.708-6.201c.621 0 1.183.144 1.685.433.502.29.893.69 1.174 1.2.289.51.434 1.093.434 1.748s-.145 1.242-.434 1.761c-.281.51-.672.91-1.174 1.2a3.393 3.393 0 01-1.685.42 3.159 3.159 0 01-1.595-.408 2.921 2.921 0 01-1.11-1.16v3.993h-.638v-9.136h.613v1.57a2.87 2.87 0 011.11-1.188 3.103 3.103 0 011.62-.433zm-.038 6.189c.511 0 .97-.12 1.378-.358.409-.238.728-.57.957-.995.239-.425.358-.91.358-1.455a2.92 2.92 0 00-.358-1.455 2.498 2.498 0 00-.957-.995 2.681 2.681 0 00-1.378-.357c-.51 0-.97.119-1.378.357-.4.238-.719.57-.957.995a3.01 3.01 0 00-.345 1.455c0 .545.115 1.03.345 1.455.238.425.557.757.957.995.408.239.868.358 1.378.358zm5.406-6.138h.638V70.4l4.747-5.678h.561v6.66h-.638v-5.678l-4.747 5.679h-.561v-6.661zm14.964 6.1v2.22h-.6v-1.66h-6.304v1.66h-.613v-2.22h.396c.451-.026.757-.375.919-1.047.17-.68.289-1.634.357-2.859l.089-2.194h4.684v6.1h1.072zm-5.258-3.867c-.042 1.012-.128 1.854-.255 2.526-.128.672-.357 1.12-.689 1.34h4.492v-5.525h-3.471l-.077 1.659zm7.142-2.233h.638V70.4l4.747-5.678h.562v6.66h-.638v-5.678l-4.748 5.679h-.561v-6.661zm13.484 0v6.66h-.638v-2.87c-.792.365-1.583.548-2.374.548-.783 0-1.399-.178-1.85-.536-.443-.357-.664-.884-.664-1.582v-2.22h.638v2.182c0 .519.175.919.523 1.2.349.28.83.42 1.442.42.698 0 1.459-.174 2.285-.523v-3.28h.638zm8.432 3.483h-5.729c.017.52.149.983.395 1.391.247.4.579.71.996.932a3.05 3.05 0 001.429.332 3.07 3.07 0 001.199-.23c.375-.162.685-.396.932-.702l.37.421a2.832 2.832 0 01-1.097.804c-.434.187-.906.28-1.417.28-.663 0-1.255-.144-1.774-.433a3.193 3.193 0 01-1.225-1.2c-.289-.51-.434-1.093-.434-1.748 0-.646.137-1.225.409-1.735a3.094 3.094 0 011.148-1.213 3.13 3.13 0 011.634-.433c.604 0 1.144.144 1.62.433a2.94 2.94 0 011.136 1.187c.281.51.421 1.09.421 1.736l-.013.178zm-3.164-2.973c-.468 0-.889.106-1.264.32a2.37 2.37 0 00-.906.88c-.221.374-.348.8-.383 1.276h5.105a2.674 2.674 0 00-.383-1.276 2.5 2.5 0 00-.906-.88 2.51 2.51 0 00-1.263-.32zm7.955 6.202c-.647 0-1.226-.145-1.736-.434-.51-.29-.91-.69-1.2-1.2a3.531 3.531 0 01-.433-1.748c0-.655.144-1.238.433-1.748.29-.519.69-.919 1.2-1.2.51-.289 1.089-.433 1.736-.433.535 0 1.02.106 1.454.319.443.204.8.506 1.072.906l-.472.344a2.206 2.206 0 00-.893-.74 2.614 2.614 0 00-1.161-.255c-.519 0-.987.119-1.404.357a2.5 2.5 0 00-.97.983c-.23.425-.345.914-.345 1.467s.115 1.042.345 1.468c.238.425.561.757.97.995.417.23.885.345 1.404.345.425 0 .812-.081 1.161-.243a2.31 2.31 0 00.893-.753l.472.345a2.67 2.67 0 01-1.072.919 3.374 3.374 0 01-1.454.306zm6.669-3.14h-1.621v3.089h-.638v-6.661h.638v3.024h1.621l2.514-3.024h.702l-2.706 3.228 2.91 3.433h-.766l-2.654-3.088zm4.994-3.572h.638V70.4l4.747-5.678h.562v6.66h-.638v-5.678l-4.748 5.679h-.561v-6.661zm12.871 6.66l-2.284-2.973-2.284 2.974h-.728l2.642-3.433-2.501-3.228h.727l2.144 2.769 2.144-2.77h.714l-2.501 3.23 2.68 3.432h-.753zm11.071-6.66l-3.42 7.567c-.255.587-.553 1.004-.894 1.25-.331.247-.727.37-1.186.37-.307 0-.596-.05-.868-.153a1.836 1.836 0 01-.676-.446l.319-.485c.34.349.753.523 1.237.523.324 0 .6-.09.83-.268.23-.179.442-.485.638-.919l.357-.804-2.999-6.635h.677l2.667 5.959 2.667-5.96h.651zm4.048 6.712c-.646 0-1.225-.145-1.735-.434a3.121 3.121 0 01-1.2-1.2 3.532 3.532 0 01-.434-1.748c0-.655.145-1.238.434-1.748a3.01 3.01 0 011.2-1.2c.51-.289 1.089-.433 1.735-.433.536 0 1.021.106 1.455.319.442.204.8.506 1.072.906l-.472.344a2.209 2.209 0 00-.894-.74 2.611 2.611 0 00-1.161-.255c-.519 0-.987.119-1.404.357-.408.23-.731.557-.969.983-.23.425-.345.914-.345 1.467s.115 1.042.345 1.468c.238.425.561.757.969.995.417.23.885.345 1.404.345a2.72 2.72 0 001.161-.243c.358-.17.655-.421.894-.753l.472.345c-.272.4-.63.706-1.072.919a3.376 3.376 0 01-1.455.306zm9.343-6.712v6.66h-.638v-6.086h-3.471l-.089 1.774a22.193 22.193 0 01-.23 2.31c-.102.62-.276 1.122-.523 1.505-.247.383-.587.574-1.021.574-.128 0-.311-.03-.549-.089l.064-.549c.136.034.238.051.306.051.358 0 .63-.174.817-.523.187-.349.315-.782.383-1.301.068-.52.123-1.196.166-2.03l.115-2.296h4.67zm8.18 0l-3.42 7.567c-.255.587-.553 1.004-.893 1.25-.332.247-.727.37-1.187.37-.306 0-.595-.05-.868-.153a1.845 1.845 0 01-.676-.446l.319-.485c.34.349.753.523 1.238.523.323 0 .6-.09.829-.268.23-.179.443-.485.638-.919l.358-.804-2.999-6.635h.676l2.667 5.959 2.667-5.96h.651zm6.099.574h-3.918v6.087h-.638v-6.661h4.556v.574z" fill="#fff"/><g clip-path="url(#clip0_383_11793)"><path fill-rule="evenodd" clip-rule="evenodd" d="M9.65 40.62c2.32-3.2 5.594-5.982 9.283-8.222l.537-16.567c-.904.172-1.93.492-3.078.935-9.04 4.579-18.787 16.961-6.743 23.854zm10.284-8.813c.464-.27.929-.517 1.393-.763l.464-15.386c-.39-.049-.83-.024-1.32.025l-.537 16.124zm.684-20.555l-.097 2.782c4.886-1.502 9.894-2.61 13.998-3.964a28.318 28.318 0 01-6.963 4.087l-.39 14.376c3.762-1.33 7.622-2.142 11.164-2.314 6.718-.468 13.559 3.225 9.015 9.97-1.393 2.068-3.934 3.988-7.354 6.006-4.397 2.438-8.843 3.988-13.338 4.653l-.342 12.284c7.842-1.059 16.221-4.48 19.397-12.358 2.125-.246 3.445-.418 3.933-.468-5.252 9.232-12.997 14.377-23.257 15.41-.391 4.284-1.832 7.927-4.324 10.906 11.262-3.742 21.645-3.791 32.443-6.844-2.566 3.594-4.984 6.598-7.207 9.01 1.368-2.19 1.93-3.57 1.319-4.11-6.791 3.249-13.632 4.873-20.57 4.898-3.347 0-6.523.172-9.503.468l-.122 3.618-1.002.197.122-3.717c-.244.025-.513.05-.757.099-2.614.221-6.01.812-10.236 1.772 5.13-2.757 8.868-5.736 11.237-8.936l.22-6.819C9.04 61.126 2.418 54.036 7.402 44.731c-10.994-5.711-8.526-17.527-.05-24.346 3.372-2.733 7.72-4.554 12.216-6.007l.098-2.732.952-.394zm-.733 22.081l-.342 10.561c.465.025.929.05 1.417.05l.342-11.3c-.488.197-.952.443-1.417.69zm-.44 13.835l-.39 11.816a9.94 9.94 0 001.466.197l.342-11.988c-.465 0-.953 0-1.417-.025zm-.488 15.164l-.17 5.12c.952-1.649 1.538-3.323 1.807-5.07-.562 0-1.1 0-1.637-.05zm-.88-3.57l.391-11.693c-3.004-.246-6.01-.886-9.063-1.895-2.614 6.942 2.467 12.038 8.673 13.589zm.49-14.942l.317-9.896c-3.347 1.994-6.034 4.456-8.087 7.385 2.004 1.379 4.593 2.216 7.77 2.511zm8.525-13.465L26.726 43.5c1.905-.246 3.933-.64 6.107-1.132 18.005-4.234 12.069-16.42-2.882-12.801a79.82 79.82 0 00-2.859.788z" fill="#fff"/></g><path d="M85.433 17.297v.924c-1.047.03-1.847.154-2.401.37-.524.184-.878.553-1.063 1.108-.184.523-.277 1.355-.277 2.494v22.91c0 1.11.093 1.94.277 2.495.185.554.54.924 1.063 1.109.554.154 1.355.23 2.401.23h3.372c1.448 0 2.618-.153 3.511-.461.924-.308 1.647-.785 2.171-1.432.554-.678.97-1.57 1.247-2.68.277-1.108.493-2.463.647-4.064h1.062c-.092.955-.138 2.217-.138 3.788 0 .585.015 1.431.046 2.54A70.3 70.3 0 0097.628 50c-1.57-.062-3.341-.092-5.312-.092-1.97-.031-3.726-.047-5.266-.047h-2.633c-1.047 0-2.186.016-3.418.047-1.231 0-2.479.015-3.741.046-1.263 0-2.464.015-3.603.046v-.924c1.047-.061 1.832-.185 2.356-.37a1.666 1.666 0 001.108-1.108c.185-.554.277-1.386.277-2.494v-22.91c0-1.14-.092-1.972-.277-2.495a1.666 1.666 0 00-1.108-1.109c-.524-.215-1.31-.339-2.356-.37v-.923c.647.03 1.493.061 2.54.092a115.064 115.064 0 006.56 0c1.077-.03 1.97-.061 2.678-.092zm26.001 8.268c2.71 0 4.819.831 6.328 2.494 1.54 1.632 2.31 4.188 2.31 7.668h-16.306l-.046-.878h11.917c.062-1.508-.061-2.894-.369-4.157-.308-1.293-.801-2.325-1.478-3.095-.647-.77-1.494-1.154-2.541-1.154-1.416 0-2.679.708-3.787 2.124-1.078 1.417-1.725 3.665-1.94 6.744l.138.185c-.061.462-.108.97-.138 1.524a29.769 29.769 0 00-.047 1.663c0 2.094.339 3.896 1.017 5.405.677 1.508 1.555 2.663 2.632 3.464 1.109.77 2.248 1.155 3.419 1.155.923 0 1.801-.139 2.632-.416.832-.308 1.602-.8 2.31-1.478.708-.678 1.324-1.586 1.848-2.725l.923.37c-.338 1.015-.893 2-1.662 2.955-.77.955-1.74 1.74-2.91 2.356-1.171.585-2.526.878-4.065.878-2.217 0-4.127-.508-5.728-1.525-1.57-1.016-2.787-2.417-3.649-4.203-.831-1.817-1.247-3.895-1.247-6.236 0-2.71.431-5.035 1.293-6.975.862-1.97 2.079-3.48 3.649-4.526 1.571-1.078 3.403-1.617 5.497-1.617zm20.641 33.119c-1.632 0-3.172-.17-4.619-.508-1.448-.339-2.618-.878-3.511-1.617-.862-.708-1.293-1.617-1.293-2.725 0-1.078.431-2.002 1.293-2.772.862-.77 2.033-1.354 3.511-1.755l.277.74c-.678.215-1.216.646-1.617 1.293-.4.646-.6 1.37-.6 2.17 0 1.417.646 2.495 1.94 3.234 1.324.77 3.033 1.155 5.127 1.155 1.386 0 2.741-.185 4.065-.555 1.324-.338 2.417-.924 3.279-1.755.862-.831 1.294-1.925 1.294-3.28 0-1.016-.37-1.847-1.109-2.494-.708-.677-2.125-1.016-4.25-1.016h-3.418a17.4 17.4 0 01-2.864-.23c-.923-.155-1.678-.478-2.263-.97-.585-.494-.877-1.248-.877-2.264 0-1.047.431-2.048 1.293-3.003.862-.985 2.448-1.986 4.758-3.002l.554.416c-1.047.554-1.956 1.124-2.725 1.709-.77.554-1.155 1.216-1.155 1.986 0 .985.739 1.478 2.217 1.478h5.774c1.293 0 2.479.185 3.557.554 1.108.37 2.001.955 2.679 1.755.677.801 1.016 1.848 1.016 3.142 0 1.447-.462 2.802-1.386 4.064-.924 1.263-2.309 2.28-4.157 3.049-1.817.8-4.08 1.2-6.79 1.2zm.231-18.523c-1.509 0-2.879-.246-4.111-.739-1.232-.523-2.202-1.324-2.91-2.402-.709-1.077-1.063-2.463-1.063-4.157s.354-3.08 1.063-4.157c.708-1.078 1.678-1.863 2.91-2.356 1.232-.523 2.602-.785 4.111-.785 1.539 0 2.91.262 4.111.785 1.232.493 2.202 1.278 2.91 2.356.708 1.078 1.062 2.463 1.062 4.157s-.354 3.08-1.062 4.157c-.708 1.078-1.678 1.879-2.91 2.402-1.201.493-2.572.74-4.111.74zm0-.831c1.17 0 2.078-.462 2.725-1.386.677-.924 1.016-2.617 1.016-5.08 0-2.464-.339-4.158-1.016-5.082-.647-.924-1.555-1.386-2.725-1.386-1.14 0-2.048.462-2.726 1.386-.677.924-1.016 2.618-1.016 5.081 0 2.464.339 4.157 1.016 5.081.678.924 1.586 1.386 2.726 1.386zm6.651-9.931l-.831-.323c.431-1.047 1.17-1.971 2.217-2.772 1.047-.8 2.14-1.2 3.28-1.2.8 0 1.447.23 1.94.692.492.431.739 1.093.739 1.986 0 .955-.262 1.632-.786 2.033-.492.37-1 .554-1.524.554-.462 0-.893-.154-1.293-.462-.401-.339-.632-.862-.693-1.57-.062-.709.154-1.617.647-2.726l.6.139c-1.293.492-2.217 1.016-2.771 1.57-.555.524-1.063 1.217-1.525 2.079zm15.13 20.924c-1.262 0-2.355-.23-3.279-.693-.924-.492-1.632-1.17-2.125-2.032-.462-.862-.693-1.863-.693-3.002 0-1.355.308-2.464.924-3.326a7.297 7.297 0 012.448-2.079 18.213 18.213 0 013.095-1.293c1.108-.37 2.155-.708 3.141-1.016.985-.339 1.786-.724 2.402-1.155.646-.431.97-1 .97-1.71v-2.863c0-1.293-.2-2.279-.601-2.956-.369-.678-.877-1.124-1.524-1.34-.647-.246-1.37-.37-2.171-.37-.77 0-1.601.109-2.494.324-.863.216-1.555.662-2.079 1.34.585.123 1.093.43 1.524.924.432.492.647 1.123.647 1.893s-.246 1.386-.739 1.848c-.493.431-1.124.647-1.894.647-.893 0-1.555-.277-1.986-.832a3.364 3.364 0 01-.601-1.94c0-.8.201-1.447.601-1.94a7.43 7.43 0 011.524-1.386c.709-.492 1.617-.908 2.726-1.247 1.139-.37 2.417-.554 3.833-.554 1.263 0 2.341.154 3.234.462.893.277 1.632.693 2.217 1.247a5.194 5.194 0 011.57 2.725c.247 1.047.37 2.31.37 3.788v12.841c0 .77.108 1.324.323 1.663.247.339.616.508 1.109.508.339 0 .662-.077.97-.23.308-.155.677-.401 1.108-.74l.509.785a17.8 17.8 0 01-1.848 1.247c-.585.308-1.37.462-2.356.462-.893 0-1.632-.154-2.217-.462a3.127 3.127 0 01-1.34-1.34c-.277-.615-.415-1.385-.415-2.309-.832 1.386-1.832 2.418-3.003 3.095-1.139.678-2.432 1.016-3.88 1.016zm1.663-1.847a4.917 4.917 0 002.818-.878c.893-.585 1.693-1.463 2.402-2.633v-9.053c-.37.523-.909.97-1.617 1.34-.708.338-1.478.692-2.309 1.062-.832.338-1.633.754-2.402 1.247a5.883 5.883 0 00-1.848 1.847c-.493.77-.739 1.771-.739 3.003 0 1.232.323 2.217.97 2.956.677.74 1.586 1.109 2.725 1.109zm22.128-34.69v31.918c0 1.294.262 2.171.785 2.633.554.462 1.463.693 2.725.693V50a87.582 87.582 0 00-2.402-.092 54.249 54.249 0 00-3.187-.093c-1.047 0-2.109.031-3.187.093a87.75 87.75 0 00-2.402.092v-.97c1.263 0 2.156-.231 2.679-.693.554-.462.832-1.34.832-2.633V19.33c0-1.386-.247-2.402-.739-3.048-.493-.678-1.417-1.017-2.772-1.017v-.97c.985.093 1.94.139 2.864.139.893 0 1.74-.046 2.54-.139a14.473 14.473 0 002.264-.508zm41.025 3.51a58.837 58.837 0 00-.278 3.142 85.877 85.877 0 00-.046 2.31c0 .554.016 1.092.046 1.616.031.493.062.909.093 1.247h-1.063c-.184-1.817-.446-3.249-.785-4.296-.339-1.077-.924-1.832-1.755-2.263-.801-.462-2.017-.693-3.649-.693h-3.834c-1.047 0-1.848.093-2.402.277-.523.154-.878.509-1.062 1.063-.185.523-.278 1.355-.278 2.494v22.91c0 1.11.093 1.94.278 2.495.184.554.539.924 1.062 1.109.554.154 1.355.23 2.402.23h3.372c1.94 0 3.403-.261 4.388-.785 1.016-.523 1.74-1.37 2.171-2.54.462-1.201.801-2.818 1.016-4.85h1.063c-.093.831-.139 1.94-.139 3.326 0 .585.015 1.431.046 2.54.062 1.078.154 2.202.277 3.372-1.57-.062-3.341-.092-5.312-.092a340.75 340.75 0 00-5.265-.047h-2.633c-1.047 0-2.187.016-3.418.047-1.232 0-2.479.015-3.742.046-1.262 0-2.463.015-3.603.046v-.924c1.047-.061 1.833-.185 2.356-.37a1.667 1.667 0 001.109-1.108c.184-.554.277-1.386.277-2.494v-22.91c0-1.14-.093-1.972-.277-2.495a1.667 1.667 0 00-1.109-1.109c-.523-.215-1.309-.339-2.356-.37v-.923c1.14.03 2.341.061 3.603.092 1.263 0 2.51.016 3.742.046h10.854c1.817-.03 3.434-.077 4.851-.138zm-7.945 15.798v.924h-8.453v-.924h8.453zm1.339-6.097c-.123 1.755-.185 3.095-.185 4.018.031.924.047 1.771.047 2.541s.015 1.617.046 2.54c.031.924.108 2.264.231 4.02h-1.063a40.064 40.064 0 00-.461-2.865c-.154-.954-.524-1.724-1.109-2.31-.554-.615-1.509-.923-2.864-.923v-.924c1.016 0 1.786-.2 2.31-.6.554-.431.954-.97 1.201-1.617a9.02 9.02 0 00.508-1.986c.092-.708.184-1.34.277-1.894h1.062zm19.556-.785v.97c-.585 0-1.077.138-1.478.415-.4.278-.446.662-.138 1.155L242.57 46.72c.523.77.985 1.325 1.385 1.663.401.308.893.524 1.478.647V50c-.308-.03-.785-.062-1.431-.092a18.56 18.56 0 00-1.848-.093c-.955 0-1.986.031-3.095.093-1.078.03-1.863.061-2.356.092v-.97c.616 0 1.124-.139 1.525-.416.4-.308.431-.693.092-1.154l-12.333-17.97c-.616-.893-1.109-1.478-1.478-1.755-.37-.308-.831-.493-1.386-.554v-.97c.308.03.785.077 1.432.138.647.031 1.263.046 1.848.046.985 0 2.017-.015 3.095-.046 1.077-.061 1.863-.108 2.355-.138zm1.247 11.732l.093.323c.061.185.123.385.185.601l.138.323-3.834 4.989c-.8 1.047-1.231 1.925-1.293 2.633-.031.708.262 1.247.878 1.616.615.34 1.462.555 2.54.647V50a30.094 30.094 0 00-1.755-.046 39.835 39.835 0 00-1.894-.046 30.924 30.924 0 00-1.617-.047c-.708 0-1.355.016-1.94.047-.554 0-1.077.03-1.57.092v-.924c.585-.061 1.185-.323 1.801-.785.647-.493 1.401-1.309 2.264-2.448l6.004-7.899zm11.41-11.732v.924c-.585.061-1.232.369-1.94.923-.678.524-1.386 1.294-2.125 2.31l-5.312 7.344-.093-.277a14.555 14.555 0 00-.184-.6l-.093-.324 3.603-5.035c.678-.954 1.109-1.74 1.294-2.355.184-.616.077-1.078-.324-1.386-.369-.339-1.108-.539-2.217-.6v-.924a94 94 0 011.986.092c.555.03 1.186.046 1.894.046s1.34-.015 1.894-.046c.585-.03 1.124-.061 1.617-.092zm10.187-.508v28.36c0 1.325.385 2.203 1.155 2.634.801.462 1.894.693 3.28.693v.97c-.678-.031-1.617-.077-2.818-.139a149.95 149.95 0 00-3.834-.046c-.955 0-1.909.015-2.864.046-.924.062-1.632.108-2.125.139v-.97c1.109 0 1.894-.2 2.356-.6.462-.401.693-1.156.693-2.264v-23.28c0-1.386-.246-2.402-.739-3.05-.493-.677-1.417-1.015-2.771-1.015v-.97c.985.092 1.94.138 2.863.138.893 0 1.74-.046 2.541-.138a14.482 14.482 0 002.263-.508zm7.391-.139c1.632 0 3.095.447 4.388 1.34 1.293.862 2.309 2.14 3.049 3.833.769 1.694 1.154 3.788 1.154 6.282 0 1.663-.2 3.31-.6 4.943a14.38 14.38 0 01-1.894 4.388 9.705 9.705 0 01-3.28 3.14c-1.324.77-2.925 1.156-4.803 1.156-1.448 0-2.71-.34-3.788-1.017-1.047-.677-1.755-1.493-2.125-2.448l.462-.646a5.959 5.959 0 001.848 2.17c.831.586 1.863.878 3.094.878 1.725 0 3.064-.539 4.019-1.616.955-1.078 1.617-2.51 1.986-4.296.401-1.817.601-3.819.601-6.005 0-2.464-.2-4.48-.601-6.051-.4-1.57-1.001-2.74-1.801-3.51-.801-.77-1.786-1.155-2.956-1.155-1.509 0-2.88.631-4.111 1.894-1.232 1.231-2.017 3.11-2.356 5.635l-.554-.647c.338-2.617 1.262-4.65 2.771-6.097 1.54-1.447 3.372-2.171 5.497-2.171zm23.329 0c2.71 0 4.819.831 6.328 2.494 1.54 1.632 2.309 4.188 2.309 7.668h-16.305l-.046-.878h11.917c.062-1.508-.062-2.894-.369-4.157-.308-1.293-.801-2.325-1.479-3.095-.646-.77-1.493-1.154-2.54-1.154-1.417 0-2.679.708-3.788 2.124-1.077 1.417-1.724 3.665-1.94 6.744l.139.185c-.062.462-.108.97-.139 1.524a29.767 29.767 0 00-.046 1.663c0 2.094.339 3.896 1.016 5.405.678 1.508 1.555 2.663 2.633 3.464 1.109.77 2.248 1.155 3.418 1.155.924 0 1.802-.139 2.633-.416.832-.308 1.601-.8 2.31-1.478.708-.678 1.324-1.586 1.847-2.725l.924.37c-.339 1.015-.893 2-1.663 2.955-.77.955-1.74 1.74-2.91 2.356-1.17.585-2.525.878-4.065.878-2.217 0-4.126-.508-5.727-1.525-1.571-1.016-2.787-2.417-3.649-4.203-.832-1.817-1.247-3.895-1.247-6.236 0-2.71.431-5.035 1.293-6.975.862-1.97 2.079-3.48 3.649-4.526 1.57-1.078 3.403-1.617 5.497-1.617zm26.507 0c.831 0 1.555.17 2.171.508.646.339 1.139.785 1.478 1.34a3.05 3.05 0 01.554 1.801 3.06 3.06 0 01-.739 2.033c-.462.585-1.093.877-1.894.877-.646 0-1.216-.2-1.709-.6-.492-.431-.739-1.032-.739-1.802 0-.585.154-1.078.462-1.478a4.26 4.26 0 011.109-1.016c-.216-.308-.539-.462-.97-.462-.955 0-1.833.293-2.633.878-.801.554-1.478 1.278-2.033 2.17a12.023 12.023 0 00-1.293 2.864c-.308.986-.462 1.91-.462 2.772v9.792c0 1.51.431 2.525 1.293 3.049.893.493 2.094.739 3.603.739V50a164.22 164.22 0 00-3.002-.092 86.597 86.597 0 00-4.111-.093c-1.047 0-2.094.031-3.141.093-1.016.03-1.786.061-2.31.092v-.97c1.263 0 2.156-.231 2.679-.693.555-.462.832-1.34.832-2.633V31.247c0-1.386-.246-2.402-.739-3.05-.493-.677-1.417-1.015-2.772-1.015v-.97c.986.092 1.94.138 2.864.138.893 0 1.74-.046 2.541-.138a14.482 14.482 0 002.263-.508v5.773c.339-.893.816-1.786 1.432-2.679a9.154 9.154 0 012.31-2.31 5.092 5.092 0 012.956-.923zm13.641-7.021v7.714h6.836v.924h-6.836v17.876c0 1.447.261 2.463.785 3.048.523.585 1.247.878 2.171.878.924 0 1.724-.37 2.402-1.109.677-.77 1.262-2.048 1.755-3.834l.924.231c-.308 1.786-.924 3.295-1.848 4.527-.893 1.232-2.279 1.848-4.157 1.848-1.047 0-1.909-.139-2.587-.416a5.187 5.187 0 01-1.801-1.109 5.93 5.93 0 01-1.432-2.54c-.246-.986-.37-2.294-.37-3.926V27.182h-4.434v-.924h4.434V19.19c.77-.031 1.509-.093 2.218-.185a8.974 8.974 0 001.94-.462z" fill="#fff"/><defs><clipPath id="clip0_383_11793"><path fill="#fff" transform="translate(0 10.07)" d="M0 0h54.454v69.74H0z"/></clipPath></defs></svg>