<svg width="582" height="100" fill="none" xmlns="http://www.w3.org/2000/svg"><g clip-path="url(#clip0_606_8)"><path fill-rule="evenodd" clip-rule="evenodd" d="M12.966 47.05c3.118-4.3 7.517-8.04 12.474-11.05l.722-22.26c-1.215.23-2.593.66-4.136 1.256C9.88 21.15-3.218 37.787 12.966 47.05zm13.82-11.843a52.44 52.44 0 011.87-1.025l.624-20.673c-.525-.067-1.116-.034-1.772.033l-.722 21.665zm.919-27.62l-.131 3.739C34.139 9.308 40.867 7.819 46.383 6a38.055 38.055 0 01-9.356 5.49l-.525 19.318c5.055-1.786 10.242-2.878 15.002-3.11 9.027-.628 18.218 4.334 12.113 13.397-1.871 2.779-5.285 5.359-9.881 8.071-5.909 3.275-11.883 5.359-17.923 6.252l-.46 16.505c10.538-1.422 21.797-6.02 26.064-16.605 2.856-.33 4.629-.562 5.285-.628-7.057 12.404-17.463 19.317-31.25 20.707-.526 5.755-2.462 10.65-5.81 14.653 15.132-5.028 29.084-5.094 43.593-9.196-3.447 4.83-6.697 8.865-9.684 12.107 1.838-2.944 2.593-4.796 1.773-5.524-9.126 4.366-18.317 6.55-27.64 6.582-4.497 0-8.765.232-12.77.629l-.164 4.862-1.346.265.165-4.995c-.329.033-.69.066-1.018.132-3.512.298-8.075 1.092-13.754 2.382 6.893-3.705 11.916-7.707 15.1-12.007l.295-9.163C12.145 74.603 3.25 65.076 9.946 52.574-4.826 44.898-1.511 29.021 9.88 19.858c4.53-3.671 10.373-6.119 16.413-8.07l.131-3.672 1.28-.53zm-.985 29.671l-.46 14.19c.624.033 1.248.067 1.904.067l.46-15.183c-.657.265-1.28.595-1.904.926zm-.59 18.59l-.526 15.877c.656.132 1.313.232 1.97.265l.459-16.11c-.624 0-1.28 0-1.904-.032zm-.657 20.376l-.23 6.88c1.28-2.217 2.068-4.466 2.429-6.814-.755 0-1.477 0-2.2-.067zm-1.182-4.797l.525-15.712c-4.038-.33-8.075-1.19-12.178-2.547-3.513 9.328 3.315 16.175 11.653 18.26zm.656-20.078l.427-13.297c-4.497 2.68-8.108 5.987-10.865 9.923 2.691 1.853 6.17 2.977 10.438 3.374zm11.457-18.093l-.493 17.663c2.56-.33 5.285-.86 8.207-1.521 24.193-5.69 16.216-22.063-3.874-17.2-1.313.33-2.593.694-3.84 1.058z" fill="#000"/></g><path d="M106.414 18.95v.974c-1.105.033-1.949.163-2.534.39-.552.195-.926.585-1.121 1.17-.195.552-.292 1.429-.292 2.63v24.17c0 1.17.097 2.047.292 2.631.195.585.569.975 1.121 1.17.585.162 1.429.243 2.534.243h3.557c1.527 0 2.761-.162 3.703-.487.975-.325 1.738-.828 2.29-1.51.585-.715 1.024-1.657 1.316-2.827.293-1.17.52-2.598.682-4.288h1.121c-.097 1.007-.146 2.34-.146 3.996 0 .617.016 1.51.049 2.68.065 1.137.162 2.323.292 3.557a144.34 144.34 0 00-5.604-.097 359.56 359.56 0 00-5.555-.049h-2.777c-1.105 0-2.307.016-3.606.049-1.3 0-2.615.016-3.947.049-1.332 0-2.599.016-3.801.048v-.974c1.105-.065 1.933-.195 2.485-.39a1.757 1.757 0 001.17-1.17c.195-.584.292-1.462.292-2.631v-24.17c0-1.201-.097-2.078-.292-2.63a1.757 1.757 0 00-1.17-1.17c-.552-.227-1.38-.357-2.485-.39v-.974c.682.032 1.576.065 2.68.097a121.36 121.36 0 006.919 0 197.3 197.3 0 002.827-.097zm27.428 8.722c2.859 0 5.084.877 6.676 2.631 1.625 1.722 2.437 4.418 2.437 8.09h-17.201l-.049-.927h12.572c.065-1.592-.065-3.053-.39-4.385-.325-1.365-.845-2.453-1.559-3.265-.683-.812-1.576-1.218-2.68-1.218-1.495 0-2.827.747-3.996 2.241-1.137 1.495-1.819 3.866-2.047 7.115l.146.194a21.329 21.329 0 00-.146 1.609 32.063 32.063 0 00-.049 1.754c0 2.209.358 4.11 1.073 5.701.714 1.592 1.64 2.81 2.777 3.655 1.17.812 2.371 1.218 3.606 1.218.974 0 1.9-.146 2.777-.439.878-.325 1.69-.844 2.437-1.559.747-.715 1.397-1.673 1.949-2.875l.975.39c-.358 1.072-.943 2.111-1.755 3.118-.812 1.008-1.835 1.836-3.07 2.486-1.234.617-2.663.925-4.288.925-2.339 0-4.353-.536-6.042-1.608-1.657-1.072-2.94-2.55-3.849-4.434-.878-1.916-1.316-4.11-1.316-6.578 0-2.859.455-5.312 1.364-7.358.91-2.08 2.193-3.671 3.85-4.776 1.657-1.137 3.589-1.705 5.798-1.705zm21.775 34.938c-1.722 0-3.346-.178-4.873-.536-1.526-.357-2.761-.926-3.703-1.705-.91-.748-1.364-1.706-1.364-2.875 0-1.137.454-2.112 1.364-2.924.91-.812 2.144-1.43 3.703-1.852l.293.78c-.715.227-1.283.682-1.706 1.364a4.266 4.266 0 00-.633 2.29c0 1.495.682 2.632 2.046 3.412 1.397.812 3.2 1.218 5.409 1.218 1.462 0 2.891-.195 4.288-.585 1.397-.357 2.55-.975 3.46-1.852.91-.877 1.364-2.03 1.364-3.46 0-1.071-.389-1.948-1.169-2.63-.747-.715-2.242-1.073-4.483-1.073h-3.606c-1.04 0-2.047-.08-3.021-.243-.975-.163-1.771-.504-2.388-1.024s-.926-1.315-.926-2.387c0-1.105.455-2.16 1.365-3.168.909-1.04 2.582-2.095 5.019-3.167l.584.439c-1.104.584-2.062 1.185-2.875 1.803-.812.584-1.218 1.283-1.218 2.095 0 1.04.78 1.56 2.339 1.56h6.091c1.365 0 2.615.194 3.752.584 1.17.39 2.112 1.007 2.827 1.852.714.844 1.072 1.949 1.072 3.313 0 1.527-.488 2.956-1.462 4.288-.975 1.332-2.437 2.404-4.386 3.216-1.916.845-4.304 1.267-7.163 1.267zm.244-19.54c-1.592 0-3.038-.26-4.337-.78-1.299-.552-2.323-1.396-3.07-2.533-.747-1.137-1.121-2.6-1.121-4.386 0-1.787.374-3.249 1.121-4.386.747-1.136 1.771-1.965 3.07-2.485 1.299-.552 2.745-.828 4.337-.828 1.624 0 3.07.276 4.337.828 1.299.52 2.322 1.349 3.07 2.485.747 1.137 1.12 2.6 1.12 4.386 0 1.787-.373 3.249-1.12 4.386-.748 1.137-1.771 1.981-3.07 2.533-1.267.52-2.713.78-4.337.78zm0-.877c1.234 0 2.193-.487 2.875-1.462.714-.974 1.072-2.761 1.072-5.36s-.358-4.386-1.072-5.36c-.682-.975-1.641-1.462-2.875-1.462-1.202 0-2.16.487-2.875 1.462-.715.974-1.072 2.761-1.072 5.36s.357 4.386 1.072 5.36c.715.975 1.673 1.462 2.875 1.462zm7.017-10.477l-.877-.34c.454-1.105 1.234-2.08 2.339-2.924 1.104-.845 2.257-1.267 3.459-1.267.845 0 1.527.243 2.047.73.52.455.779 1.154.779 2.096 0 1.007-.276 1.722-.828 2.144-.52.39-1.056.585-1.608.585-.487 0-.942-.163-1.364-.488-.423-.357-.666-.91-.731-1.656-.065-.747.162-1.706.682-2.875l.633.146c-1.364.52-2.339 1.072-2.923 1.657-.585.552-1.121 1.283-1.608 2.192zm15.961 22.074c-1.332 0-2.485-.243-3.46-.73-.974-.52-1.722-1.235-2.241-2.145-.488-.91-.731-1.965-.731-3.167 0-1.43.325-2.599.974-3.508a7.694 7.694 0 012.583-2.193 19.213 19.213 0 013.265-1.365c1.169-.39 2.274-.747 3.313-1.072 1.04-.357 1.884-.763 2.534-1.218.682-.455 1.023-1.056 1.023-1.803v-3.02c0-1.365-.211-2.405-.633-3.12-.39-.714-.926-1.185-1.608-1.413-.682-.26-1.446-.39-2.29-.39-.812 0-1.69.114-2.632.342-.909.227-1.64.698-2.192 1.413.617.13 1.153.454 1.608.974.454.52.682 1.186.682 1.998s-.26 1.462-.78 1.95c-.52.454-1.186.681-1.998.681-.942 0-1.64-.292-2.095-.877a3.549 3.549 0 01-.634-2.046c0-.845.212-1.527.634-2.047.422-.52.958-1.007 1.608-1.462.747-.52 1.705-.958 2.875-1.315 1.202-.39 2.55-.585 4.044-.585 1.332 0 2.469.162 3.411.487.942.293 1.722.731 2.339 1.316a5.484 5.484 0 011.657 2.875c.26 1.104.39 2.436.39 3.996v13.546c0 .812.114 1.397.341 1.754.26.358.65.536 1.17.536.357 0 .698-.08 1.023-.243.325-.163.715-.423 1.169-.78l.536.828a18.74 18.74 0 01-1.949 1.316c-.617.325-1.445.487-2.485.487-.942 0-1.722-.162-2.339-.487a3.299 3.299 0 01-1.413-1.413c-.292-.65-.439-1.462-.439-2.437-.877 1.462-1.932 2.55-3.167 3.265-1.202.715-2.566 1.072-4.093 1.072zm1.754-1.949a5.189 5.189 0 002.973-.926c.942-.617 1.786-1.543 2.533-2.777v-9.55c-.389.551-.958 1.022-1.705 1.412a91.55 91.55 0 01-2.436 1.12 15.64 15.64 0 00-2.534 1.317 6.204 6.204 0 00-1.95 1.949c-.519.812-.779 1.868-.779 3.167 0 1.3.341 2.339 1.023 3.119.715.78 1.673 1.17 2.875 1.17zm23.343-36.595v33.671c0 1.365.276 2.29.829 2.778.584.487 1.543.73 2.875.73v1.024a92.31 92.31 0 00-2.534-.097 57.265 57.265 0 00-3.363-.098c-1.104 0-2.225.033-3.362.098a92.31 92.31 0 00-2.534.097v-1.023c1.332 0 2.274-.244 2.827-.731.584-.487.877-1.413.877-2.778V21.094c0-1.462-.26-2.534-.78-3.216-.52-.715-1.494-1.073-2.924-1.073v-1.023c1.04.098 2.047.146 3.022.146a23.4 23.4 0 002.68-.146c.877-.13 1.673-.308 2.387-.536zm43.279 3.704a62.478 62.478 0 00-.293 3.313 88.652 88.652 0 00-.048 2.436c0 .585.016 1.154.048 1.706.033.52.065.958.098 1.316h-1.121c-.195-1.917-.471-3.428-.828-4.532-.358-1.137-.975-1.933-1.852-2.388-.845-.487-2.128-.73-3.85-.73h-4.044c-1.105 0-1.949.097-2.534.292-.552.162-.926.536-1.121 1.12-.195.553-.292 1.43-.292 2.632v24.169c0 1.17.097 2.047.292 2.631.195.585.569.975 1.121 1.17.585.162 1.429.243 2.534.243h3.557c2.047 0 3.59-.276 4.629-.828 1.072-.552 1.836-1.446 2.291-2.68.487-1.267.844-2.972 1.072-5.117h1.12c-.097.878-.146 2.047-.146 3.509 0 .617.016 1.51.049 2.68.065 1.137.162 2.323.292 3.557a144.304 144.304 0 00-5.604-.097 353.46 353.46 0 00-5.555-.049h-2.777c-1.105 0-2.307.016-3.606.049-1.299 0-2.615.016-3.947.049-1.332 0-2.599.016-3.801.048v-.974c1.105-.065 1.933-.195 2.485-.39a1.758 1.758 0 001.17-1.17c.195-.584.292-1.462.292-2.631v-24.17c0-1.201-.097-2.078-.292-2.63a1.758 1.758 0 00-1.17-1.17c-.552-.227-1.38-.357-2.485-.39v-.974c1.202.032 2.469.065 3.801.097 1.332 0 2.648.016 3.947.049h11.451c1.917-.033 3.622-.081 5.117-.146zm-8.382 16.665v.974h-8.917v-.974h8.917zm1.413-6.433c-.129 1.852-.194 3.265-.194 4.24.032.974.048 1.868.048 2.68s.017 1.705.049 2.68c.033.975.114 2.388.244 4.24h-1.121a41.899 41.899 0 00-.487-3.022c-.163-1.007-.553-1.819-1.17-2.436-.585-.65-1.592-.975-3.021-.975v-.974c1.072 0 1.884-.212 2.436-.634a3.87 3.87 0 001.267-1.705c.26-.683.439-1.381.536-2.096.098-.747.195-1.413.293-1.997h1.12zm20.631-.828v1.023c-.617 0-1.137.147-1.559.439-.423.292-.471.698-.147 1.218l13.011 18.956c.552.812 1.039 1.396 1.462 1.754.422.325.942.552 1.559.682v1.023a32.011 32.011 0 00-1.511-.097 19.55 19.55 0 00-1.949-.098c-1.007 0-2.095.033-3.265.098a82.03 82.03 0 00-2.485.097v-1.023c.65 0 1.186-.146 1.608-.439.423-.325.455-.73.098-1.218l-13.011-18.955c-.649-.942-1.169-1.56-1.559-1.852-.39-.325-.877-.52-1.462-.585v-1.023c.325.033.829.081 1.511.146.682.033 1.332.049 1.949.049 1.039 0 2.128-.016 3.265-.049a525.64 525.64 0 002.485-.146zm1.316 12.377l.097.341c.065.195.13.406.195.634l.146.34-4.044 5.263c-.845 1.105-1.3 2.03-1.365 2.778-.032.747.276 1.316.926 1.705.65.358 1.543.585 2.68.683v.974a31.759 31.759 0 00-1.852-.048 41.978 41.978 0 00-1.997-.05 32.652 32.652 0 00-1.706-.048c-.747 0-1.429.016-2.046.049-.585 0-1.137.032-1.657.097v-.974c.617-.065 1.25-.341 1.9-.829.682-.52 1.478-1.38 2.388-2.582l6.335-8.333zm12.035-12.377v.975c-.617.065-1.299.39-2.046.974-.715.552-1.462 1.365-2.242 2.437l-5.603 7.747-.098-.292c-.065-.227-.13-.438-.195-.633l-.097-.341 3.801-5.312c.714-1.007 1.169-1.835 1.364-2.485.195-.65.081-1.137-.341-1.462-.39-.357-1.17-.568-2.339-.633v-.975c.845.033 1.543.065 2.095.098.585.032 1.251.048 1.998.048.747 0 1.413-.016 1.998-.048a173.44 173.44 0 001.705-.098zm10.748-.536v29.92c0 1.396.406 2.322 1.218 2.777.845.487 1.998.73 3.46.73v1.024c-.715-.032-1.706-.081-2.973-.146a158.115 158.115 0 00-4.044-.049c-1.007 0-2.014.016-3.021.049-.975.065-1.722.114-2.242.146v-1.023c1.17 0 1.998-.211 2.485-.634.487-.422.731-1.218.731-2.387v-24.56c0-1.461-.26-2.533-.78-3.216-.519-.714-1.494-1.072-2.923-1.072v-1.023c1.039.098 2.046.146 3.021.146a23.4 23.4 0 002.68-.146c.877-.13 1.673-.308 2.388-.536zm7.796-.146c1.722 0 3.265.471 4.629 1.413 1.365.91 2.437 2.258 3.216 4.044.813 1.787 1.219 3.996 1.219 6.628a21.78 21.78 0 01-.634 5.214 15.132 15.132 0 01-1.998 4.629 10.242 10.242 0 01-3.459 3.313c-1.397.812-3.086 1.218-5.068 1.218-1.527 0-2.859-.357-3.996-1.072-1.104-.714-1.851-1.575-2.241-2.582l.487-.682a6.287 6.287 0 001.949 2.29c.877.617 1.965.926 3.265.926 1.819 0 3.232-.569 4.239-1.706 1.007-1.137 1.706-2.647 2.096-4.532.422-1.916.633-4.028.633-6.334 0-2.6-.211-4.727-.633-6.384-.423-1.656-1.056-2.89-1.901-3.703-.844-.812-1.884-1.218-3.118-1.218-1.592 0-3.038.666-4.337 1.998-1.3 1.3-2.128 3.28-2.485 5.945l-.585-.683c.357-2.761 1.332-4.905 2.924-6.432 1.624-1.527 3.557-2.29 5.798-2.29zm24.611 0c2.858 0 5.084.877 6.675 2.631 1.625 1.722 2.437 4.418 2.437 8.09h-17.201l-.049-.927h12.572c.065-1.592-.065-3.053-.39-4.385-.325-1.365-.844-2.453-1.559-3.265-.682-.812-1.576-1.218-2.68-1.218-1.495 0-2.826.747-3.996 2.241-1.137 1.495-1.819 3.866-2.047 7.115l.147.194a21.3 21.3 0 00-.147 1.609 32.062 32.062 0 00-.048 1.754c0 2.209.357 4.11 1.072 5.701.714 1.592 1.64 2.81 2.777 3.655 1.17.812 2.372 1.218 3.606 1.218.975 0 1.901-.146 2.778-.439.877-.325 1.689-.844 2.436-1.559.747-.715 1.397-1.673 1.949-2.875l.975.39c-.358 1.072-.942 2.111-1.754 3.118-.813 1.008-1.836 1.836-3.07 2.486-1.235.617-2.664.925-4.288.925-2.339 0-4.353-.536-6.043-1.608-1.656-1.072-2.94-2.55-3.849-4.434-.877-1.916-1.316-4.11-1.316-6.578 0-2.859.455-5.312 1.364-7.358.91-2.08 2.193-3.671 3.85-4.776 1.657-1.137 3.59-1.705 5.799-1.705zm27.963 0c.877 0 1.64.179 2.29.536.682.357 1.202.828 1.559 1.413.39.552.585 1.186.585 1.9 0 .813-.26 1.527-.779 2.145-.488.617-1.154.925-1.998.925a2.775 2.775 0 01-1.803-.633c-.52-.455-.78-1.088-.78-1.9 0-.618.163-1.137.487-1.56a4.519 4.519 0 011.17-1.072c-.228-.325-.569-.487-1.023-.487-1.007 0-1.933.308-2.778.926-.845.584-1.559 1.348-2.144 2.29-.585.942-1.04 1.95-1.364 3.021-.325 1.04-.488 2.014-.488 2.924v10.33c0 1.592.455 2.664 1.365 3.216.942.52 2.209.78 3.801.78v1.023a173.56 173.56 0 00-3.168-.097 91.322 91.322 0 00-4.337-.098c-1.104 0-2.209.033-3.313.098a92.79 92.79 0 00-2.437.097v-1.023c1.332 0 2.274-.244 2.827-.731.584-.487.877-1.413.877-2.778V33.665c0-1.461-.26-2.533-.78-3.216-.52-.714-1.494-1.072-2.924-1.072v-1.023c1.04.098 2.047.146 3.022.146a23.4 23.4 0 002.68-.146c.877-.13 1.673-.308 2.387-.536v6.091a13.33 13.33 0 011.511-2.826 9.644 9.644 0 012.436-2.436 5.375 5.375 0 013.119-.975zm14.39-7.407v8.138h7.212v.974h-7.212v18.858c0 1.527.276 2.6.828 3.216.553.618 1.316.926 2.291.926.974 0 1.819-.39 2.534-1.17.714-.811 1.331-2.16 1.851-4.044l.975.244c-.325 1.884-.975 3.476-1.949 4.775-.942 1.3-2.404 1.95-4.386 1.95-1.104 0-2.014-.147-2.729-.44a5.477 5.477 0 01-1.9-1.169 6.267 6.267 0 01-1.511-2.68c-.26-1.04-.39-2.42-.39-4.142V29.377h-4.677v-.974h4.677v-7.456a26.14 26.14 0 002.339-.194 9.436 9.436 0 002.047-.488zM100.903 85.836c-1.444 0-2.749-.323-3.913-.968a7.248 7.248 0 01-2.734-2.672c-.66-1.136-.99-2.412-.99-3.828 0-1.417.33-2.693.99-3.83a7.248 7.248 0 012.734-2.671c1.164-.645 2.469-.968 3.913-.968 1.066 0 2.048.176 2.945.526a5.961 5.961 0 012.293 1.515l-.673.694c-1.178-1.164-2.685-1.746-4.523-1.746-1.234 0-2.356.28-3.366.841a6.135 6.135 0 00-2.377 2.336c-.575.981-.862 2.082-.862 3.303 0 1.22.287 2.328.862 3.323a6.18 6.18 0 002.377 2.314c1.01.561 2.132.842 3.366.842 1.824 0 3.331-.59 4.523-1.767l.673.694a6.14 6.14 0 01-2.314 1.536c-.897.35-1.872.526-2.924.526zm17.176-5.344h-9.446c.028.856.246 1.62.653 2.293.406.66.953 1.171 1.64 1.536.702.365 1.487.547 2.357.547a5.07 5.07 0 001.977-.379 3.95 3.95 0 001.536-1.157l.61.695a4.674 4.674 0 01-1.809 1.325 5.837 5.837 0 01-2.335.463c-1.094 0-2.069-.239-2.925-.716a5.265 5.265 0 01-2.019-1.977c-.477-.842-.715-1.802-.715-2.882 0-1.066.224-2.02.673-2.861a5.102 5.102 0 011.893-1.999c.8-.477 1.697-.715 2.693-.715s1.886.238 2.672.715a4.845 4.845 0 011.872 1.957c.463.841.694 1.795.694 2.86l-.021.295zm-5.217-4.901c-.771 0-1.466.175-2.083.526a3.896 3.896 0 00-1.493 1.451c-.365.617-.575 1.318-.632 2.104h8.415c-.042-.786-.252-1.487-.631-2.104a4.108 4.108 0 00-1.493-1.451c-.618-.351-1.312-.526-2.083-.526zm14.208-.926c1.024 0 1.949.238 2.777.715a5.049 5.049 0 011.935 1.978c.477.841.715 1.802.715 2.882s-.238 2.047-.715 2.903a5.05 5.05 0 01-1.935 1.977c-.828.463-1.753.695-2.777.695-.968 0-1.844-.225-2.63-.674a4.813 4.813 0 01-1.83-1.914v6.585h-1.052V74.749h1.01v2.588a4.748 4.748 0 011.83-1.957c.8-.477 1.69-.715 2.672-.715zm-.063 10.203c.841 0 1.599-.196 2.272-.59a4.137 4.137 0 001.578-1.64c.392-.701.589-1.5.589-2.398 0-.898-.197-1.697-.589-2.398a4.137 4.137 0 00-1.578-1.641c-.673-.393-1.431-.59-2.272-.59-.842 0-1.599.197-2.272.59a4.335 4.335 0 00-1.578 1.64c-.379.702-.568 1.501-.568 2.399 0 .897.189 1.697.568 2.398a4.335 4.335 0 001.578 1.64c.673.394 1.43.59 2.272.59zm15.411-4.796c1.613.28 2.42 1.185 2.42 2.713 0 .954-.351 1.683-1.052 2.188-.687.505-1.725.758-3.114.758h-4.754V74.749h4.628c1.22 0 2.174.246 2.861.736.701.477 1.052 1.164 1.052 2.062 0 .645-.182 1.185-.547 1.62-.351.42-.848.722-1.494.904zm-5.469-.316h3.534c.94 0 1.662-.175 2.167-.526.505-.365.757-.884.757-1.557 0-.687-.252-1.199-.757-1.535-.491-.351-1.213-.526-2.167-.526h-3.534v4.144zm3.702 5.112c2.09 0 3.135-.708 3.135-2.125 0-.743-.239-1.29-.715-1.64-.477-.351-1.228-.527-2.251-.527h-3.871v4.292h3.702zm7.922-10.119h1.052v9.362l7.826-9.362h.925v10.982h-1.051v-9.362l-7.826 9.362h-.926V74.749zm18.779 11.066c-1.066 0-2.02-.239-2.861-.716a5.152 5.152 0 01-1.978-1.977c-.477-.856-.715-1.816-.715-2.882 0-1.08.238-2.04.715-2.882a4.967 4.967 0 011.978-1.978c.841-.477 1.795-.715 2.861-.715.883 0 1.683.175 2.398.526a4.257 4.257 0 011.767 1.493l-.778.569a3.64 3.64 0 00-1.473-1.22 4.307 4.307 0 00-1.914-.421c-.856 0-1.627.196-2.314.589a4.128 4.128 0 00-1.599 1.62c-.379.7-.568 1.507-.568 2.419 0 .911.189 1.718.568 2.419a4.278 4.278 0 001.599 1.64c.687.38 1.458.569 2.314.569a4.49 4.49 0 001.914-.4 3.808 3.808 0 001.473-1.241l.778.568a4.413 4.413 0 01-1.767 1.515c-.715.336-1.515.505-2.398.505zm16.314-11.15c1.36 0 2.405.35 3.134 1.052.729.687 1.094 1.704 1.094 3.05v6.964h-1.01v-1.957a3.714 3.714 0 01-1.535 1.515c-.674.35-1.48.526-2.42.526-1.22 0-2.188-.288-2.903-.863-.701-.575-1.052-1.332-1.052-2.272 0-.912.323-1.648.968-2.209.659-.575 1.704-.862 3.134-.862h3.766v-.884c0-1.024-.28-1.802-.841-2.335-.547-.533-1.354-.8-2.42-.8a5.94 5.94 0 00-2.103.38 5.28 5.28 0 00-1.683 1.009l-.526-.757a5.704 5.704 0 011.977-1.136 7.029 7.029 0 012.42-.421zm-.59 10.287c.912 0 1.683-.21 2.315-.631.645-.42 1.129-1.03 1.451-1.83v-2.062h-3.744c-1.08 0-1.866.197-2.357.59-.476.392-.715.932-.715 1.619 0 .715.267 1.283.8 1.704.532.407 1.283.61 2.25.61zm19.421-.147v3.66h-.989v-2.734h-10.392v2.734h-1.01v-3.66h.652c.743-.042 1.248-.617 1.515-1.725.28-1.122.477-2.693.589-4.712l.147-3.619h7.721v10.056h1.767zm-8.667-6.374c-.071 1.669-.211 3.057-.421 4.165-.211 1.108-.589 1.844-1.136 2.209h7.405v-9.11h-5.722l-.126 2.736zm18.274 1.64c1.613.281 2.419 1.186 2.419 2.714 0 .954-.35 1.683-1.052 2.188-.687.505-1.725.758-3.113.758h-4.754V74.749h4.628c1.22 0 2.174.246 2.861.736.701.477 1.052 1.164 1.052 2.062 0 .645-.183 1.185-.547 1.62-.351.42-.849.722-1.494.904zm-5.47-.315h3.535c.939 0 1.662-.175 2.166-.526.505-.365.758-.884.758-1.557 0-.687-.253-1.199-.758-1.535-.49-.351-1.213-.526-2.166-.526h-3.535v4.144zm3.703 5.112c2.09 0 3.134-.708 3.134-2.125 0-.743-.238-1.29-.715-1.64-.477-.351-1.227-.527-2.251-.527h-3.871v4.292h3.703zm12.297.947c-1.037 0-1.977-.239-2.819-.716a5.2 5.2 0 01-1.956-1.977c-.477-.856-.715-1.816-.715-2.882s.238-2.02.715-2.861a5.158 5.158 0 011.956-1.999c.842-.477 1.782-.715 2.819-.715 1.038 0 1.971.238 2.798.715a5.11 5.11 0 011.978 1.999c.477.841.715 1.795.715 2.86 0 1.067-.238 2.027-.715 2.883a5.152 5.152 0 01-1.978 1.977c-.827.477-1.76.716-2.798.716zm0-.947c.842 0 1.592-.196 2.251-.59a4.13 4.13 0 001.578-1.64c.393-.701.589-1.5.589-2.398 0-.898-.196-1.697-.589-2.398a4.13 4.13 0 00-1.578-1.641c-.659-.393-1.409-.59-2.251-.59-.841 0-1.598.197-2.272.59a4.325 4.325 0 00-1.577 1.64c-.379.702-.568 1.501-.568 2.399 0 .897.189 1.697.568 2.398a4.325 4.325 0 001.577 1.64c.674.394 1.431.59 2.272.59zm12.64-4.228h-2.671v5.09h-1.052V74.75h1.052v4.985h2.671l4.145-4.986h1.157l-4.46 5.323 4.796 5.659h-1.262l-4.376-5.091zm11.667-5.975c1.361 0 2.406.35 3.135 1.052.729.687 1.094 1.704 1.094 3.05v6.964h-1.01v-1.957a3.716 3.716 0 01-1.536 1.515c-.673.35-1.479.526-2.419.526-1.22 0-2.188-.288-2.903-.863-.701-.575-1.052-1.332-1.052-2.272 0-.912.323-1.648.968-2.209.659-.575 1.704-.862 3.134-.862h3.766v-.884c0-1.024-.281-1.802-.842-2.335-.546-.533-1.353-.8-2.419-.8a5.95 5.95 0 00-2.104.38 5.249 5.249 0 00-1.682 1.009l-.526-.757a5.704 5.704 0 011.977-1.136 7.023 7.023 0 012.419-.421zm-.589 10.287c.912 0 1.683-.21 2.314-.631.646-.42 1.129-1.03 1.452-1.83v-2.062h-3.745c-1.08 0-1.865.197-2.356.59-.477.392-.715.932-.715 1.619 0 .715.266 1.283.799 1.704.533.407 1.284.61 2.251.61zm16.433-9.256h-4.291V85.73h-1.052V75.696h-4.292v-.947h9.635v.947zm6.115 10.119c-1.038 0-1.978-.239-2.819-.716a5.195 5.195 0 01-1.957-1.977c-.477-.856-.715-1.816-.715-2.882s.238-2.02.715-2.861a5.153 5.153 0 011.957-1.999c.841-.477 1.781-.715 2.819-.715s1.97.238 2.798.715a5.115 5.115 0 011.977 1.999c.477.841.715 1.795.715 2.86 0 1.067-.238 2.027-.715 2.883a5.156 5.156 0 01-1.977 1.977c-.828.477-1.76.716-2.798.716zm0-.947c.841 0 1.592-.196 2.251-.59a4.128 4.128 0 001.577-1.64c.393-.701.59-1.5.59-2.398 0-.898-.197-1.697-.59-2.398a4.128 4.128 0 00-1.577-1.641c-.659-.393-1.41-.59-2.251-.59-.842 0-1.599.197-2.272.59a4.335 4.335 0 00-1.578 1.64c-.379.702-.568 1.501-.568 2.399 0 .897.189 1.697.568 2.398a4.335 4.335 0 001.578 1.64c.673.394 1.43.59 2.272.59zm15.417-4.796c1.612.28 2.419 1.185 2.419 2.713 0 .954-.351 1.683-1.052 2.188-.687.505-1.725.758-3.114.758h-4.754V74.749h4.628c1.22 0 2.174.246 2.861.736.701.477 1.052 1.164 1.052 2.062 0 .645-.182 1.185-.547 1.62-.35.42-.848.722-1.493.904zm-5.47-.316h3.534c.94 0 1.662-.175 2.167-.526.505-.365.757-.884.757-1.557 0-.687-.252-1.199-.757-1.535-.491-.351-1.213-.526-2.167-.526h-3.534v4.144zm3.702 5.112c2.09 0 3.135-.708 3.135-2.125 0-.743-.239-1.29-.715-1.64-.477-.351-1.228-.527-2.251-.527h-3.871v4.292h3.702zm13.325-10.119h1.052v9.362l7.826-9.362h.926v10.982h-1.052v-9.362L296.8 85.73h-.926V74.749zm28.936-.084c1.024 0 1.943.238 2.756.715a4.906 4.906 0 011.915 1.978c.462.841.694 1.802.694 2.882 0 1.066-.232 2.026-.694 2.882a5.09 5.09 0 01-1.915 1.977c-.813.477-1.732.716-2.756.716-.981 0-1.872-.218-2.671-.653a5.04 5.04 0 01-1.894-1.83c-.462-.785-.722-1.683-.778-2.692h-2.798v5.09h-1.052V74.75h1.052v4.922h2.798c.084-.982.365-1.852.841-2.609a4.981 4.981 0 011.894-1.767c.785-.42 1.655-.631 2.608-.631zm0 10.224a4.22 4.22 0 002.209-.59 4.037 4.037 0 001.536-1.64c.379-.715.568-1.522.568-2.42 0-.91-.189-1.717-.568-2.419a3.898 3.898 0 00-1.536-1.62 4.232 4.232 0 00-2.209-.588c-.813 0-1.549.196-2.209.589a4.026 4.026 0 00-1.556 1.62c-.365.7-.547 1.507-.547 2.419 0 .897.182 1.704.547 2.419a4.173 4.173 0 001.556 1.64c.66.394 1.396.59 2.209.59zm14.357-10.224c1.024 0 1.95.238 2.777.715a5.042 5.042 0 011.935 1.978c.477.841.716 1.802.716 2.882s-.239 2.047-.716 2.903a5.043 5.043 0 01-1.935 1.977c-.827.463-1.753.695-2.777.695-.968 0-1.844-.225-2.63-.674a4.813 4.813 0 01-1.83-1.914v6.585h-1.052V74.749h1.01v2.588a4.748 4.748 0 011.83-1.957c.8-.477 1.69-.715 2.672-.715zm-.063 10.203c.841 0 1.599-.196 2.272-.59a4.137 4.137 0 001.578-1.64c.392-.701.589-1.5.589-2.398 0-.898-.197-1.697-.589-2.398a4.137 4.137 0 00-1.578-1.641c-.673-.393-1.431-.59-2.272-.59-.841 0-1.599.197-2.272.59a4.335 4.335 0 00-1.578 1.64c-.378.702-.568 1.501-.568 2.399 0 .897.19 1.697.568 2.398a4.335 4.335 0 001.578 1.64c.673.394 1.431.59 2.272.59zm8.911-10.119h1.052v9.362l7.826-9.362h.926v10.982h-1.052v-9.362l-7.826 9.362h-.926V74.749zm24.669 10.056v3.66h-.989v-2.734h-10.392v2.734h-1.01v-3.66h.652c.744-.042 1.249-.617 1.515-1.725.281-1.122.477-2.693.589-4.712l.147-3.619h7.721v10.056h1.767zm-8.667-6.374c-.07 1.669-.21 3.057-.421 4.165-.21 1.108-.589 1.844-1.136 2.209h7.405v-9.11h-5.722l-.126 2.736zm11.774-3.682h1.052v9.362l7.825-9.362h.926v10.982h-1.052v-9.362l-7.826 9.362h-.925V74.749zm22.229 0v10.982h-1.052v-4.734c-1.305.603-2.609.905-3.913.905-1.291 0-2.307-.295-3.051-.884-.729-.589-1.094-1.458-1.094-2.609v-3.66h1.052v3.597c0 .856.288 1.515.863 1.978.575.463 1.367.694 2.377.694 1.15 0 2.405-.287 3.766-.862v-5.407h1.052zm13.901 5.743h-9.445c.028.856.245 1.62.652 2.293.406.66.953 1.171 1.641 1.536.701.365 1.486.547 2.356.547a5.07 5.07 0 001.977-.379 3.95 3.95 0 001.536-1.157l.61.695a4.674 4.674 0 01-1.809 1.325 5.833 5.833 0 01-2.335.463c-1.094 0-2.069-.239-2.924-.716a5.26 5.26 0 01-2.02-1.977c-.477-.842-.715-1.802-.715-2.882 0-1.066.224-2.02.673-2.861a5.102 5.102 0 011.893-1.999c.8-.477 1.697-.715 2.693-.715s1.886.238 2.672.715a4.845 4.845 0 011.872 1.957c.463.841.694 1.795.694 2.86l-.021.295zm-5.217-4.901c-.771 0-1.466.175-2.083.526a3.896 3.896 0 00-1.493 1.451c-.365.617-.575 1.318-.631 2.104h8.415c-.043-.786-.253-1.487-.632-2.104a4.108 4.108 0 00-1.493-1.451c-.617-.351-1.312-.526-2.083-.526zm13.114 10.224c-1.066 0-2.019-.239-2.861-.716a5.15 5.15 0 01-1.977-1.977c-.477-.856-.716-1.816-.716-2.882 0-1.08.239-2.04.716-2.882a4.965 4.965 0 011.977-1.978c.842-.477 1.795-.715 2.861-.715.884 0 1.683.175 2.398.526.73.336 1.319.834 1.767 1.493l-.778.569a3.637 3.637 0 00-1.472-1.22 4.314 4.314 0 00-1.915-.421c-.855 0-1.627.196-2.314.589a4.135 4.135 0 00-1.599 1.62c-.378.7-.568 1.507-.568 2.419 0 .911.19 1.718.568 2.419a4.285 4.285 0 001.599 1.64c.687.38 1.459.569 2.314.569.701 0 1.339-.133 1.915-.4a3.805 3.805 0 001.472-1.241l.778.568a4.4 4.4 0 01-1.767 1.515c-.715.336-1.514.505-2.398.505zm10.995-5.175h-2.672v5.09h-1.052V74.75h1.052v4.985h2.672l4.144-4.986h1.157l-4.46 5.323 4.797 5.659h-1.262l-4.376-5.091zm8.233-5.89h1.052v9.36l7.826-9.36h.925v10.98h-1.051v-9.36l-7.826 9.362h-.926V74.749zm21.219 10.98l-3.766-4.901-3.765 4.902h-1.199l4.354-5.66-4.123-5.322h1.199l3.534 4.565 3.535-4.565h1.178l-4.124 5.323 4.418 5.659h-1.241zm18.25-10.98l-5.638 12.474c-.42.968-.911 1.655-1.472 2.062-.547.406-1.199.61-1.957.61-.504 0-.981-.084-1.43-.253a3.033 3.033 0 01-1.115-.736l.526-.8a2.744 2.744 0 002.04.863c.533 0 .989-.147 1.368-.442.379-.294.729-.799 1.052-1.514l.589-1.326-4.944-10.939h1.115l4.397 9.824 4.397-9.824h1.072zm6.674 11.065c-1.065 0-2.019-.239-2.861-.716a5.156 5.156 0 01-1.977-1.977c-.477-.856-.715-1.816-.715-2.882 0-1.08.238-2.04.715-2.882a4.971 4.971 0 011.977-1.978c.842-.477 1.796-.715 2.861-.715.884 0 1.683.175 2.399.526a4.257 4.257 0 011.767 1.493l-.779.569a3.63 3.63 0 00-1.472-1.22 4.308 4.308 0 00-1.915-.421c-.855 0-1.626.196-2.314.589a4.126 4.126 0 00-1.598 1.62c-.379.7-.568 1.507-.568 2.419 0 .911.189 1.718.568 2.419a4.275 4.275 0 001.598 1.64c.688.38 1.459.569 2.314.569a4.49 4.49 0 001.915-.4 3.798 3.798 0 001.472-1.241l.779.568a4.413 4.413 0 01-1.767 1.515c-.716.336-1.515.505-2.399.505zm15.403-11.066v10.982h-1.052V75.696h-5.722l-.147 2.924c-.084 1.515-.211 2.784-.379 3.808-.168 1.023-.456 1.85-.862 2.482-.407.631-.968.947-1.683.947-.211 0-.512-.05-.905-.148l.105-.904c.225.056.393.084.505.084.589 0 1.038-.287 1.346-.862.309-.576.519-1.29.632-2.146.112-.856.203-1.97.273-3.345l.189-3.787h7.7zm13.485 0l-5.638 12.475c-.42.968-.911 1.655-1.472 2.062-.547.406-1.199.61-1.957.61-.505 0-.982-.084-1.43-.253a3.033 3.033 0 01-1.115-.736l.526-.8a2.744 2.744 0 002.04.863c.533 0 .989-.147 1.368-.442.378-.294.729-.799 1.052-1.514l.589-1.326-4.944-10.939h1.115l4.397 9.824 4.396-9.824h1.073zm10.054.947h-6.459V85.73h-1.051V74.749h7.51v.947z" fill="#000"/><defs><clipPath id="clip0_606_8"><path fill="#fff" transform="translate(0 6)" d="M0 0h73.17v93.709H0z"/></clipPath></defs></svg>