<svg width="197" height="140" fill="none" xmlns="http://www.w3.org/2000/svg"><g clip-path="url(#clip0_632_6)"><path fill-rule="evenodd" clip-rule="evenodd" d="M86.168 21.98c1.67-2.302 4.025-4.304 6.68-5.915l.386-11.92c-.65.124-1.389.354-2.215.673-6.503 3.294-13.517 12.203-4.851 17.162zm7.4-6.34c.334-.195.668-.373 1.002-.55l.334-11.07c-.281-.035-.598-.017-.95.018l-.386 11.601zM94.06.85l-.07 2.002C97.505 1.772 101.109.974 104.062 0a20.384 20.384 0 01-5.01 2.94l-.281 10.344c2.707-.957 5.484-1.541 8.033-1.665 4.833-.337 9.755 2.32 6.486 7.173-1.002 1.488-2.83 2.87-5.291 4.322-3.164 1.753-6.363 2.87-9.597 3.347l-.246 8.839c5.642-.762 11.671-3.224 13.956-8.892 1.529-.177 2.478-.3 2.83-.336-3.779 6.642-9.351 10.343-16.734 11.087-.28 3.082-1.318 5.703-3.11 7.847 8.102-2.693 15.573-2.728 23.342-4.924-1.846 2.586-3.586 4.746-5.186 6.482.985-1.576 1.389-2.568.95-2.958-4.887 2.338-9.808 3.507-14.8 3.525-2.408 0-4.694.124-6.838.337l-.088 2.603-.72.142.087-2.675c-.175.018-.369.036-.544.071-1.881.16-4.325.585-7.365 1.276 3.69-1.984 6.38-4.127 8.085-6.43l.158-4.906c-6.45-.815-11.214-5.916-7.628-12.61-7.91-4.11-6.135-12.612-.035-17.518C86.94 5.455 90.07 4.145 93.304 3.1l.07-1.966.686-.284zm-.527 15.888l-.246 7.598c.334.018.668.035 1.02.035l.245-8.13c-.351.142-.685.32-1.02.497zm-.317 9.954l-.28 8.501c.35.071.702.124 1.054.142l.246-8.626c-.334 0-.686 0-1.02-.017zm-.351 10.91l-.123 3.684a10.351 10.351 0 001.3-3.648c-.404 0-.79 0-1.177-.036zm-.633-2.568l.281-8.413c-2.162-.177-4.324-.638-6.52-1.364-1.882 4.995 1.775 8.661 6.24 9.777zm.352-10.751l.228-7.12c-2.408 1.434-4.341 3.206-5.818 5.313 1.441.992 3.305 1.594 5.59 1.807zm6.134-9.689l-.264 9.459c1.372-.178 2.83-.46 4.395-.815 12.954-3.047 8.683-11.814-2.074-9.21a57.5 57.5 0 00-2.057.566z" fill="#000"/></g><path d="M10.373 66.59v.657c-.744.022-1.314.11-1.708.263-.372.131-.624.394-.756.788-.131.373-.197.964-.197 1.775v16.294c0 .789.066 1.38.197 1.774.132.394.384.657.756.789.394.11.964.164 1.708.164h2.399c1.029 0 1.861-.11 2.496-.328.657-.22 1.172-.559 1.544-1.019.395-.482.69-1.117.887-1.905.197-.789.35-1.752.46-2.891h.756c-.066.679-.099 1.577-.099 2.694 0 .416.011 1.018.033 1.806.044.767.11 1.566.197 2.399a97.337 97.337 0 00-3.778-.066 242.44 242.44 0 00-3.745-.033H9.651c-.745 0-1.555.011-2.431.033-.877 0-1.764.01-2.662.033-.897 0-1.752.01-2.562.033v-.657c.745-.044 1.303-.132 1.675-.263.395-.132.658-.395.789-.789s.197-.985.197-1.774V70.073c0-.81-.066-1.402-.197-1.774a1.185 1.185 0 00-.789-.789c-.372-.153-.93-.24-1.675-.263v-.657c.46.022 1.062.044 1.807.066a81.853 81.853 0 004.665 0c.766-.022 1.402-.044 1.905-.066zm18.492 5.88c1.928 0 3.428.592 4.501 1.775 1.095 1.16 1.643 2.978 1.643 5.453H23.412l-.033-.624h8.476c.044-1.073-.044-2.059-.263-2.957-.219-.92-.57-1.653-1.051-2.2-.46-.548-1.062-.822-1.807-.822-1.007 0-1.905.504-2.694 1.511-.766 1.008-1.226 2.607-1.38 4.797l.099.131c-.044.328-.077.69-.099 1.084-.021.394-.032.789-.032 1.183 0 1.49.24 2.77.722 3.843.482 1.074 1.106 1.895 1.873 2.464.788.548 1.599.822 2.431.822.657 0 1.281-.099 1.873-.296a4.769 4.769 0 001.642-1.051c.504-.482.942-1.128 1.314-1.939l.657.263c-.24.723-.635 1.424-1.182 2.103a6.516 6.516 0 01-2.07 1.675c-.832.416-1.796.624-2.891.624-1.577 0-2.935-.36-4.074-1.084-1.117-.722-1.982-1.719-2.595-2.99-.591-1.291-.887-2.77-.887-4.434 0-1.927.307-3.581.92-4.96.613-1.403 1.478-2.476 2.595-3.22 1.117-.767 2.42-1.15 3.91-1.15zm14.68 23.556c-1.16 0-2.255-.12-3.284-.361-1.03-.242-1.862-.625-2.497-1.15-.613-.504-.92-1.15-.92-1.939 0-.766.307-1.423.92-1.97.613-.548 1.445-.965 2.497-1.25l.197.526c-.482.154-.865.46-1.15.92-.285.46-.427.975-.427 1.544 0 1.008.46 1.774 1.38 2.3.941.548 2.157.821 3.646.821.986 0 1.95-.131 2.891-.394.942-.24 1.72-.657 2.333-1.248.613-.592.92-1.37.92-2.333 0-.723-.263-1.314-.789-1.774-.504-.482-1.511-.722-3.022-.722h-2.431c-.701 0-1.38-.055-2.037-.165-.657-.11-1.194-.34-1.61-.69-.416-.35-.624-.887-.624-1.61 0-.744.306-1.456.92-2.135.613-.7 1.74-1.412 3.384-2.135l.394.295c-.745.395-1.391.8-1.938 1.216-.548.394-.822.865-.822 1.413 0 .7.526 1.05 1.577 1.05h4.107c.92 0 1.763.132 2.53.395.788.263 1.423.679 1.905 1.249.482.569.722 1.314.722 2.233 0 1.03-.328 1.994-.985 2.891-.657.898-1.643 1.621-2.957 2.169-1.292.57-2.902.854-4.83.854zm.165-13.174c-1.073 0-2.048-.175-2.924-.526a4.537 4.537 0 01-2.07-1.708c-.503-.766-.755-1.752-.755-2.957 0-1.204.252-2.19.756-2.956a4.342 4.342 0 012.07-1.676c.875-.372 1.85-.558 2.923-.558 1.095 0 2.07.186 2.924.558.876.35 1.566.91 2.07 1.676.503.766.755 1.752.755 2.956 0 1.205-.252 2.19-.755 2.957a4.538 4.538 0 01-2.07 1.708c-.854.35-1.829.526-2.924.526zm0-.591c.832 0 1.478-.329 1.938-.986.482-.657.723-1.861.723-3.614 0-1.752-.24-2.956-.723-3.613-.46-.657-1.106-.986-1.938-.986-.81 0-1.456.329-1.938.986s-.723 1.861-.723 3.613c0 1.753.241 2.957.723 3.614s1.128.986 1.938.986zm4.73-7.063l-.59-.23c.306-.745.832-1.402 1.576-1.972.745-.569 1.523-.854 2.333-.854.57 0 1.03.165 1.38.493.35.307.525.777.525 1.413 0 .679-.186 1.16-.558 1.445-.35.263-.712.394-1.084.394a1.48 1.48 0 01-.92-.328c-.285-.241-.45-.613-.493-1.117-.044-.504.11-1.15.46-1.938l.427.098c-.92.35-1.577.723-1.971 1.117-.394.373-.756.865-1.084 1.479zM59.203 90.08c-.898 0-1.676-.165-2.333-.493a3.703 3.703 0 01-1.511-1.446c-.328-.613-.493-1.325-.493-2.135 0-.964.22-1.752.657-2.365a5.184 5.184 0 011.742-1.479c.7-.372 1.434-.679 2.2-.92.789-.263 1.534-.503 2.235-.722.7-.241 1.27-.515 1.708-.822.46-.306.69-.711.69-1.215v-2.037c0-.92-.143-1.62-.427-2.103-.263-.481-.625-.799-1.084-.952a4.309 4.309 0 00-1.544-.263c-.548 0-1.14.076-1.775.23a2.611 2.611 0 00-1.478.953 1.95 1.95 0 011.084.656c.307.351.46.8.46 1.347 0 .548-.175.986-.526 1.315-.35.306-.799.46-1.346.46-.636 0-1.106-.198-1.413-.592a2.39 2.39 0 01-.427-1.38c0-.57.142-1.029.427-1.38.285-.35.646-.678 1.084-.985.504-.35 1.15-.646 1.938-.887.81-.263 1.72-.394 2.727-.394.898 0 1.665.11 2.3.328.635.197 1.16.493 1.577.887.57.526.941 1.172 1.117 1.939.175.744.262 1.642.262 2.694v9.132c0 .548.077.942.23 1.183.176.241.438.362.789.362.24 0 .47-.055.69-.165.219-.11.482-.285.788-.525l.362.558c-.46.35-.898.646-1.315.887-.416.22-.974.329-1.675.329-.635 0-1.16-.11-1.577-.329a2.223 2.223 0 01-.953-.953c-.197-.438-.295-.985-.295-1.642-.592.985-1.303 1.719-2.136 2.2-.81.483-1.73.724-2.76.724zm1.182-1.314c.723 0 1.391-.209 2.004-.625.636-.416 1.205-1.04 1.709-1.872v-6.44c-.263.373-.646.69-1.15.953a64.82 64.82 0 01-1.643.756c-.591.24-1.16.537-1.708.887a4.18 4.18 0 00-1.314 1.314c-.35.548-.526 1.26-.526 2.135 0 .877.23 1.577.69 2.103.482.526 1.128.788 1.938.788zm15.738-24.672v22.7c0 .92.186 1.544.559 1.873.394.329 1.04.493 1.938.493v.69a62.4 62.4 0 00-1.708-.066 38.599 38.599 0 00-4.534 0c-.766.022-1.336.044-1.708.066v-.69c.898 0 1.533-.164 1.905-.493.394-.329.591-.953.591-1.873V68.036c0-.986-.175-1.709-.525-2.168-.35-.482-1.008-.723-1.971-.723v-.69c.7.066 1.38.098 2.037.098.635 0 1.237-.032 1.806-.098a10.296 10.296 0 001.61-.361zM105.3 66.59a41.928 41.928 0 00-.197 2.234c-.022.723-.033 1.27-.033 1.643 0 .394.011.777.033 1.15.022.35.044.646.066.887h-.756c-.131-1.293-.317-2.311-.558-3.056-.241-.766-.657-1.303-1.249-1.61-.569-.328-1.434-.492-2.595-.492h-2.727c-.745 0-1.314.066-1.708.197-.372.11-.624.361-.756.755-.131.373-.197.964-.197 1.775v16.294c0 .789.066 1.38.197 1.774.132.394.384.657.756.789.394.11.964.164 1.708.164h2.398c1.38 0 2.42-.186 3.121-.558.723-.373 1.238-.975 1.544-1.807.329-.855.57-2.004.723-3.45h.756c-.066.592-.099 1.38-.099 2.365 0 .417.011 1.019.033 1.807.044.767.11 1.566.197 2.399a97.326 97.326 0 00-3.778-.066c-1.402-.022-2.65-.033-3.745-.033h-1.873c-.744 0-1.555.011-2.43.033-.877 0-1.764.01-2.662.033-.898 0-1.752.01-2.562.033v-.657c.745-.044 1.303-.132 1.675-.263.395-.132.657-.395.789-.789.131-.394.197-.985.197-1.774V70.073c0-.81-.066-1.402-.197-1.774a1.185 1.185 0 00-.789-.789c-.372-.153-.93-.24-1.675-.263v-.657c.81.022 1.664.044 2.562.066.898 0 1.785.01 2.661.033h7.721c1.292-.022 2.442-.055 3.449-.099zm-5.65 11.236v.657h-6.012v-.657h6.011zm.952-4.337c-.087 1.249-.131 2.201-.131 2.858.022.657.033 1.26.033 1.807 0 .548.011 1.15.033 1.807.021.657.076 1.61.164 2.858h-.756a28.26 28.26 0 00-.328-2.037c-.11-.679-.373-1.226-.789-1.642-.394-.438-1.073-.657-2.037-.657v-.657c.723 0 1.27-.143 1.643-.427a2.61 2.61 0 00.854-1.15c.175-.46.296-.931.362-1.413.065-.504.13-.953.197-1.347h.755zm13.909-.558v.69c-.416 0-.767.098-1.051.295-.285.197-.318.471-.099.822l8.772 12.78c.372.547.701.94.985 1.182.285.219.635.372 1.052.46v.69a21.718 21.718 0 00-1.019-.066 13.197 13.197 0 00-1.314-.066c-.679 0-1.413.022-2.201.066a55.32 55.32 0 00-1.675.066v-.69c.438 0 .799-.099 1.084-.296.284-.219.306-.493.065-.821l-8.771-12.78c-.438-.635-.789-1.051-1.051-1.248-.263-.22-.592-.35-.986-.394v-.69c.219.022.558.055 1.018.098.46.022.898.033 1.314.033.701 0 1.435-.01 2.202-.033a271.76 271.76 0 001.675-.098zm.887 8.344l.066.23c.044.132.087.274.131.427l.099.23-2.727 3.548c-.569.745-.876 1.37-.92 1.873-.022.504.186.887.624 1.15.438.24 1.041.394 1.807.46v.657a21.41 21.41 0 00-1.248-.033c-.46-.022-.909-.033-1.347-.033-.416-.022-.8-.033-1.15-.033-.504 0-.964.011-1.38.033-.394 0-.766.022-1.117.066v-.657c.416-.044.843-.23 1.282-.559.459-.35.996-.93 1.609-1.741l4.271-5.618zm8.115-8.344v.657c-.417.044-.877.263-1.38.657-.482.372-.986.92-1.511 1.642l-3.778 5.224-.066-.197a10.29 10.29 0 00-.132-.427l-.065-.23 2.562-3.581c.482-.68.789-1.238.92-1.676.131-.438.055-.766-.23-.985-.263-.241-.788-.383-1.577-.427v-.657c.57.022 1.041.044 1.413.065.394.022.843.033 1.347.033s.953-.01 1.347-.033c.416-.021.799-.043 1.15-.065zm7.245-.362v20.172c0 .941.274 1.566.822 1.872.569.329 1.347.493 2.332.493v.69a366.27 366.27 0 01-2.004-.099 106.67 106.67 0 00-2.727-.032c-.679 0-1.358.01-2.036.032l-1.512.099v-.69c.789 0 1.347-.142 1.676-.427.328-.285.493-.821.493-1.61V76.512c0-.986-.176-1.709-.526-2.169-.35-.481-1.008-.722-1.971-.722v-.69c.701.065 1.38.098 2.037.098.635 0 1.237-.033 1.807-.098a10.3 10.3 0 001.609-.362zm5.257-.098c1.16 0 2.201.317 3.121.953.919.613 1.642 1.522 2.168 2.726.547 1.205.821 2.694.821 4.468a14.69 14.69 0 01-.427 3.515 10.226 10.226 0 01-1.347 3.121 6.907 6.907 0 01-2.332 2.234c-.942.548-2.081.822-3.417.822-1.029 0-1.927-.241-2.694-.723-.745-.482-1.248-1.062-1.511-1.741l.328-.46a4.241 4.241 0 001.315 1.544c.591.416 1.325.624 2.201.624 1.226 0 2.179-.383 2.858-1.15.679-.766 1.15-1.785 1.412-3.055.285-1.292.427-2.716.427-4.27 0-1.753-.142-3.188-.427-4.305-.284-1.117-.711-1.949-1.281-2.496-.569-.548-1.27-.822-2.102-.822-1.074 0-2.048.45-2.924 1.347-.876.876-1.435 2.212-1.676 4.008l-.394-.46c.241-1.861.898-3.307 1.971-4.336 1.095-1.03 2.398-1.544 3.91-1.544zm16.592 0c1.927 0 3.427.591 4.501 1.774 1.095 1.16 1.642 2.978 1.642 5.453h-11.597l-.033-.624h8.476c.044-1.073-.043-2.059-.262-2.957-.219-.92-.57-1.653-1.052-2.2-.46-.548-1.062-.822-1.807-.822-1.007 0-1.905.504-2.693 1.511-.767 1.008-1.227 2.607-1.38 4.797l.098.131c-.044.328-.076.69-.098 1.084-.022.394-.033.789-.033 1.183 0 1.49.241 2.77.723 3.843.481 1.074 1.106 1.895 1.872 2.464.789.548 1.599.822 2.431.822.657 0 1.281-.099 1.873-.296a4.762 4.762 0 001.642-1.051c.504-.482.942-1.128 1.315-1.939l.657.263c-.241.723-.636 1.424-1.183 2.103a6.526 6.526 0 01-2.07 1.675c-.832.416-1.796.624-2.891.624-1.577 0-2.935-.36-4.073-1.084-1.117-.722-1.983-1.719-2.596-2.99-.591-1.291-.887-2.77-.887-4.434 0-1.927.307-3.581.92-4.96.613-1.403 1.478-2.476 2.595-3.22 1.117-.767 2.42-1.15 3.91-1.15zm18.852 0c.592 0 1.106.12 1.544.361.46.241.811.559 1.052.953.262.372.394.8.394 1.281 0 .548-.175 1.03-.526 1.446-.328.416-.777.624-1.347.624a1.87 1.87 0 01-1.215-.427c-.351-.307-.526-.734-.526-1.282 0-.416.11-.766.329-1.05a3.03 3.03 0 01.788-.724c-.153-.219-.383-.328-.69-.328-.679 0-1.303.208-1.872.624a5.142 5.142 0 00-1.446 1.544 8.551 8.551 0 00-.92 2.037c-.219.7-.328 1.358-.328 1.971v6.965c0 1.073.306 1.796.92 2.168.635.35 1.489.526 2.562.526v.69a115.8 115.8 0 00-2.135-.066 61.63 61.63 0 00-2.924-.066c-.745 0-1.489.022-2.234.066a62.81 62.81 0 00-1.643.066v-.69c.898 0 1.533-.164 1.906-.493.394-.329.591-.953.591-1.873V76.512c0-.986-.175-1.709-.526-2.169-.35-.481-1.007-.722-1.971-.722v-.69c.701.065 1.38.098 2.037.098.635 0 1.238-.033 1.807-.098a10.314 10.314 0 001.61-.362v4.107c.241-.635.58-1.27 1.018-1.906a6.511 6.511 0 011.643-1.642 3.622 3.622 0 012.102-.657zm9.702-4.994v5.487h4.862v.657h-4.862v12.713c0 1.03.186 1.752.559 2.169.372.416.887.624 1.544.624s1.226-.263 1.708-.789c.482-.547.898-1.456 1.248-2.726l.657.164c-.219 1.27-.657 2.343-1.314 3.22-.635.876-1.62 1.314-2.956 1.314-.745 0-1.358-.099-1.84-.296a3.685 3.685 0 01-1.281-.789 4.22 4.22 0 01-1.019-1.806c-.175-.701-.263-1.632-.263-2.793V73.621h-3.153v-.657h3.153v-5.027a17.65 17.65 0 001.577-.131 6.364 6.364 0 001.38-.329zM36.59 119.766c-.975 0-1.854-.217-2.639-.652a4.894 4.894 0 01-1.844-1.801c-.444-.766-.666-1.627-.666-2.582 0-.955.222-1.815.666-2.581a4.886 4.886 0 011.844-1.801c.785-.435 1.664-.653 2.638-.653.719 0 1.38.118 1.986.355a4.02 4.02 0 011.546 1.021l-.454.468c-.794-.785-1.81-1.177-3.05-1.177-.832 0-1.588.189-2.269.567a4.137 4.137 0 00-1.603 1.574c-.387.662-.581 1.405-.581 2.227 0 .823.194 1.57.581 2.241a4.164 4.164 0 001.603 1.56c.68.379 1.437.568 2.27.568 1.229 0 2.245-.398 3.049-1.192l.454.468a4.148 4.148 0 01-1.56 1.036 5.38 5.38 0 01-1.972.354zm11.579-3.602H41.8c.019.577.165 1.092.44 1.546.274.444.642.789 1.106 1.035a3.39 3.39 0 001.588.369 3.42 3.42 0 001.333-.255 2.66 2.66 0 001.036-.781l.411.468a3.147 3.147 0 01-1.22.894 3.933 3.933 0 01-1.574.312c-.738 0-1.395-.161-1.971-.482a3.553 3.553 0 01-1.362-1.333c-.322-.568-.482-1.215-.482-1.943 0-.719.151-1.362.454-1.929a3.441 3.441 0 011.276-1.348 3.48 3.48 0 011.816-.482c.67 0 1.271.161 1.8.482.54.312.96.752 1.263 1.319.312.568.468 1.211.468 1.929l-.014.199zm-3.517-3.305c-.52 0-.989.118-1.405.355a2.633 2.633 0 00-1.007.978 3.195 3.195 0 00-.425 1.419h5.673a2.97 2.97 0 00-.425-1.419 2.77 2.77 0 00-1.007-.978 2.786 2.786 0 00-1.404-.355zm9.578-.624c.69 0 1.315.161 1.873.482a3.41 3.41 0 011.304 1.333c.322.568.483 1.215.483 1.944 0 .728-.161 1.38-.483 1.957a3.4 3.4 0 01-1.304 1.333 3.769 3.769 0 01-1.873.468 3.505 3.505 0 01-1.772-.454 3.243 3.243 0 01-1.234-1.29v4.439h-.71v-10.155h.681v1.744a3.2 3.2 0 011.234-1.319 3.454 3.454 0 011.801-.482zm-.042 6.879c.567 0 1.078-.133 1.532-.397a2.789 2.789 0 001.063-1.107c.265-.472.397-1.011.397-1.616 0-.606-.132-1.145-.397-1.617a2.789 2.789 0 00-1.063-1.107 2.991 2.991 0 00-1.532-.397 2.99 2.99 0 00-1.532.397 2.922 2.922 0 00-1.064 1.107c-.255.472-.383 1.011-.383 1.617 0 .605.128 1.144.383 1.616.265.473.62.842 1.064 1.107.454.264.965.397 1.532.397zm10.39-3.234c1.088.189 1.631.799 1.631 1.83 0 .643-.236 1.134-.709 1.475-.463.34-1.163.51-2.099.51h-3.205v-7.403h3.12c.823 0 1.465.165 1.929.496.473.322.709.785.709 1.39 0 .435-.123.799-.369 1.092-.236.284-.572.487-1.007.61zm-3.687-.213h2.382c.634 0 1.12-.118 1.461-.354.34-.246.51-.596.51-1.05 0-.463-.17-.808-.51-1.035-.33-.237-.818-.355-1.46-.355H60.89v2.794zm2.496 3.447c1.409 0 2.113-.478 2.113-1.433 0-.501-.16-.87-.482-1.106-.322-.236-.827-.355-1.518-.355h-2.61v2.894h2.497zm5.34-6.822h.71v6.311l5.276-6.311h.624v7.403h-.71v-6.311l-5.275 6.311h-.624v-7.403zm12.661 7.46c-.719 0-1.362-.161-1.929-.482a3.478 3.478 0 01-1.333-1.333c-.322-.577-.482-1.225-.482-1.943 0-.729.16-1.376.482-1.944a3.353 3.353 0 011.333-1.333c.567-.321 1.21-.482 1.93-.482.595 0 1.134.118 1.616.355.492.227.889.562 1.191 1.007l-.525.383a2.453 2.453 0 00-.992-.823 2.906 2.906 0 00-1.29-.284c-.578 0-1.098.133-1.561.397-.454.256-.813.62-1.078 1.092-.255.473-.383 1.017-.383 1.632 0 .614.128 1.158.383 1.631.265.472.624.841 1.078 1.106a3.18 3.18 0 001.56.383c.473 0 .903-.09 1.29-.27.398-.189.729-.468.993-.836l.525.382c-.302.445-.7.785-1.191 1.022a3.75 3.75 0 01-1.617.34zm10.999-7.517c.917 0 1.621.236 2.113.709.492.463.737 1.149.737 2.057v4.694h-.68v-1.319a2.501 2.501 0 01-1.036 1.021c-.454.237-.997.355-1.63.355-.823 0-1.476-.194-1.958-.581-.473-.388-.71-.899-.71-1.532 0-.615.218-1.111.653-1.489.445-.388 1.15-.582 2.114-.582h2.538v-.596c0-.69-.189-1.215-.567-1.574-.369-.359-.912-.539-1.631-.539a4.01 4.01 0 00-1.418.255 3.565 3.565 0 00-1.135.681l-.355-.51a3.841 3.841 0 011.334-.766 4.739 4.739 0 011.63-.284zm-.397 6.936c.614 0 1.134-.142 1.56-.426.435-.284.76-.695.978-1.234v-1.39h-2.524c-.728 0-1.258.133-1.589.397-.321.265-.482.629-.482 1.092 0 .483.18.866.539 1.149.36.274.865.412 1.518.412zm13.093-.1v2.468h-.667v-1.844H97.41v1.844h-.681v-2.468h.44c.5-.028.841-.416 1.02-1.163.19-.756.322-1.815.398-3.177l.1-2.439h5.204v6.779h1.192zm-5.844-4.297c-.047 1.125-.142 2.061-.283 2.808-.142.747-.398 1.243-.766 1.489h4.992v-6.141h-3.858l-.085 1.844zm12.321 1.106c1.087.189 1.631.799 1.631 1.83 0 .643-.237 1.134-.709 1.475-.464.34-1.163.51-2.1.51h-3.205v-7.403h3.12c.823 0 1.466.165 1.929.496.473.322.709.785.709 1.39 0 .435-.123.799-.368 1.092-.237.284-.572.487-1.007.61zm-3.688-.213h2.383c.633 0 1.12-.118 1.461-.354.34-.246.51-.596.51-1.05 0-.463-.17-.808-.51-1.035-.331-.237-.818-.355-1.461-.355h-2.383v2.794zm2.496 3.447c1.409 0 2.114-.478 2.114-1.433 0-.501-.161-.87-.483-1.106-.321-.236-.827-.355-1.517-.355h-2.61v2.894h2.496zm8.291.638c-.7 0-1.333-.161-1.9-.482a3.504 3.504 0 01-1.319-1.333c-.322-.577-.483-1.225-.483-1.943 0-.719.161-1.362.483-1.929a3.475 3.475 0 011.319-1.348 3.788 3.788 0 011.9-.482c.7 0 1.329.161 1.887.482a3.455 3.455 0 011.333 1.348c.321.567.482 1.21.482 1.929 0 .718-.161 1.366-.482 1.943a3.484 3.484 0 01-1.333 1.333c-.558.321-1.187.482-1.887.482zm0-.638c.567 0 1.073-.133 1.518-.397a2.784 2.784 0 001.063-1.107c.265-.472.398-1.011.398-1.616 0-.606-.133-1.145-.398-1.617a2.784 2.784 0 00-1.063-1.107 2.919 2.919 0 00-1.518-.397c-.567 0-1.078.133-1.532.397a2.917 2.917 0 00-1.063 1.107c-.256.472-.383 1.011-.383 1.617 0 .605.127 1.144.383 1.616.264.473.619.842 1.063 1.107.454.264.965.397 1.532.397zm8.522-2.851h-1.801v3.432h-.71v-7.403h.71v3.361h1.801l2.794-3.361h.78l-3.007 3.588 3.234 3.815h-.851l-2.95-3.432zm7.866-4.028c.917 0 1.621.236 2.113.709.492.463.738 1.149.738 2.057v4.694h-.681v-1.319a2.505 2.505 0 01-1.036 1.021c-.454.237-.997.355-1.631.355-.822 0-1.475-.194-1.957-.581-.473-.388-.709-.899-.709-1.532 0-.615.217-1.111.652-1.489.445-.388 1.149-.582 2.114-.582h2.538v-.596c0-.69-.189-1.215-.567-1.574-.369-.359-.912-.539-1.631-.539-.492 0-.964.085-1.418.255a3.56 3.56 0 00-1.135.681l-.355-.51a3.846 3.846 0 011.334-.766 4.735 4.735 0 011.631-.284zm-.397 6.936c.614 0 1.134-.142 1.56-.426.435-.284.761-.695.978-1.234v-1.39h-2.524c-.728 0-1.258.133-1.589.397-.321.265-.482.629-.482 1.092 0 .483.18.866.539 1.149.359.274.865.412 1.518.412zm11.079-6.241h-2.894v6.765h-.709v-6.765h-2.893v-.638h6.496v.638zm4.122 6.822c-.7 0-1.333-.161-1.901-.482a3.51 3.51 0 01-1.319-1.333c-.321-.577-.482-1.225-.482-1.943 0-.719.161-1.362.482-1.929a3.481 3.481 0 011.319-1.348 3.794 3.794 0 011.901-.482c.7 0 1.328.161 1.886.482a3.442 3.442 0 011.333 1.348c.322.567.483 1.21.483 1.929 0 .718-.161 1.366-.483 1.943a3.47 3.47 0 01-1.333 1.333c-.558.321-1.186.482-1.886.482zm0-.638c.567 0 1.073-.133 1.517-.397a2.786 2.786 0 001.064-1.107c.265-.472.397-1.011.397-1.616 0-.606-.132-1.145-.397-1.617a2.786 2.786 0 00-1.064-1.107 2.912 2.912 0 00-1.517-.397c-.567 0-1.078.133-1.532.397a2.927 2.927 0 00-1.064 1.107c-.255.472-.383 1.011-.383 1.617 0 .605.128 1.144.383 1.616.265.473.62.842 1.064 1.107.454.264.965.397 1.532.397zm10.394-3.234c1.087.189 1.631.799 1.631 1.83 0 .643-.237 1.134-.709 1.475-.464.34-1.163.51-2.099.51h-3.206v-7.403h3.12c.823 0 1.466.165 1.929.496.473.322.709.785.709 1.39 0 .435-.122.799-.368 1.092-.237.284-.572.487-1.007.61zm-3.688-.213h2.383c.633 0 1.12-.118 1.461-.354.34-.246.51-.596.51-1.05 0-.463-.17-.808-.51-1.035-.331-.237-.818-.355-1.461-.355h-2.383v2.794zm2.496 3.447c1.409 0 2.114-.478 2.114-1.433 0-.501-.161-.87-.483-1.106-.321-.236-.827-.355-1.517-.355h-2.61v2.894h2.496zM22.356 129.292h.709v6.311l5.276-6.311h.624v7.403h-.71v-6.311l-5.275 6.311h-.624v-7.403zm19.508-.057c.69 0 1.31.161 1.858.482a3.3 3.3 0 011.29 1.333c.313.568.469 1.215.469 1.944 0 .718-.156 1.366-.468 1.943a3.436 3.436 0 01-1.29 1.333 3.618 3.618 0 01-1.859.482 3.71 3.71 0 01-1.801-.44 3.395 3.395 0 01-1.277-1.234c-.312-.529-.486-1.134-.524-1.815h-1.887v3.432h-.709v-7.403h.71v3.319h1.886a3.866 3.866 0 01.567-1.759 3.35 3.35 0 011.276-1.191 3.661 3.661 0 011.76-.426zm0 6.893c.549 0 1.045-.132 1.49-.397a2.728 2.728 0 001.035-1.106 3.435 3.435 0 00.383-1.631c0-.615-.128-1.159-.383-1.632a2.634 2.634 0 00-1.036-1.092 2.861 2.861 0 00-1.489-.397c-.548 0-1.045.133-1.49.397-.444.256-.793.62-1.049 1.092-.245.473-.368 1.017-.368 1.632 0 .605.123 1.148.368 1.631.256.472.605.841 1.05 1.106.444.265.94.397 1.49.397zm9.68-6.893c.69 0 1.314.161 1.872.482a3.41 3.41 0 011.304 1.333c.322.568.483 1.215.483 1.944 0 .728-.161 1.38-.483 1.957a3.4 3.4 0 01-1.304 1.333 3.77 3.77 0 01-1.873.468 3.506 3.506 0 01-1.773-.454 3.243 3.243 0 01-1.234-1.29v4.439h-.709v-10.155h.681v1.744a3.2 3.2 0 011.234-1.319 3.453 3.453 0 011.801-.482zm-.043 6.879c.567 0 1.078-.133 1.532-.397a2.789 2.789 0 001.063-1.107c.265-.472.397-1.011.397-1.616 0-.606-.132-1.145-.397-1.617a2.789 2.789 0 00-1.063-1.107 2.991 2.991 0 00-1.532-.397c-.567 0-1.078.133-1.532.397a2.921 2.921 0 00-1.064 1.107c-.255.472-.383 1.011-.383 1.617 0 .605.128 1.144.383 1.616.265.473.62.842 1.064 1.107.454.264.965.397 1.532.397zm6.008-6.822h.709v6.311l5.276-6.311h.624v7.403h-.71v-6.311l-5.275 6.311h-.624v-7.403zm16.631 6.779v2.468h-.666v-1.844h-7.007v1.844h-.68v-2.468h.44c.5-.028.84-.416 1.02-1.163.19-.756.322-1.815.397-3.177l.1-2.439h5.205v6.779h1.191zm-5.843-4.297c-.047 1.125-.142 2.061-.284 2.808-.142.747-.397 1.243-.766 1.489h4.993v-6.141h-3.858l-.085 1.844zm7.938-2.482h.709v6.311l5.276-6.311h.624v7.403h-.71v-6.311l-5.275 6.311h-.624v-7.403zm14.986 0v7.403h-.709v-3.191c-.88.407-1.759.61-2.638.61-.87 0-1.555-.199-2.057-.596-.491-.397-.737-.983-.737-1.758v-2.468h.709v2.425c0 .577.194 1.021.582 1.333.387.312.921.468 1.602.468.776 0 1.622-.194 2.539-.581v-3.645h.71zm9.373 3.872h-6.369c.02.577.166 1.092.44 1.546.274.444.643.789 1.106 1.035a3.389 3.389 0 001.589.369 3.42 3.42 0 001.333-.255 2.66 2.66 0 001.035-.781l.412.468a3.15 3.15 0 01-1.22.894 3.932 3.932 0 01-1.574.312c-.738 0-1.395-.161-1.972-.482a3.552 3.552 0 01-1.361-1.333c-.322-.568-.483-1.215-.483-1.943 0-.719.152-1.362.454-1.929a3.44 3.44 0 011.277-1.348 3.48 3.48 0 011.815-.482c.672 0 1.272.161 1.801.482.54.312.96.752 1.263 1.319.312.568.468 1.211.468 1.929l-.014.199zm-3.518-3.305c-.52 0-.988.118-1.404.355a2.633 2.633 0 00-1.007.978 3.194 3.194 0 00-.425 1.419h5.673a2.97 2.97 0 00-.426-1.419 2.769 2.769 0 00-1.007-.978 2.786 2.786 0 00-1.404-.355zm8.842 6.893c-.719 0-1.362-.161-1.929-.482a3.48 3.48 0 01-1.334-1.333c-.321-.577-.482-1.225-.482-1.943 0-.729.161-1.376.482-1.944a3.355 3.355 0 011.334-1.333c.567-.321 1.21-.482 1.929-.482.595 0 1.134.118 1.616.355.492.227.889.562 1.192 1.007l-.525.383a2.456 2.456 0 00-.993-.823 2.903 2.903 0 00-1.29-.284 3.1 3.1 0 00-1.561.397c-.453.256-.813.62-1.077 1.092-.256.473-.383 1.017-.383 1.632 0 .614.127 1.158.383 1.631.264.472.624.841 1.077 1.106.464.255.984.383 1.561.383.472 0 .903-.09 1.29-.27.397-.189.728-.468.993-.836l.525.382c-.303.445-.7.785-1.192 1.022a3.747 3.747 0 01-1.616.34zm7.412-3.489h-1.801v3.432h-.709v-7.403h.709v3.361h1.801l2.794-3.361h.78l-3.006 3.588 3.233 3.815h-.851l-2.95-3.432zm5.551-3.971h.709v6.311l5.276-6.311h.624v7.403h-.709v-6.311l-5.276 6.311h-.624v-7.403zm14.306 7.403l-2.539-3.304-2.539 3.304h-.808l2.935-3.815-2.779-3.588h.808l2.383 3.077 2.382-3.077h.795l-2.78 3.588 2.978 3.815h-.836zm12.304-7.403l-3.801 8.41c-.284.653-.615 1.116-.993 1.39-.369.274-.809.412-1.319.412-.341 0-.662-.057-.965-.171a2.045 2.045 0 01-.751-.496l.354-.539c.379.388.837.582 1.376.582.359 0 .667-.1.922-.298.255-.199.492-.539.709-1.022l.397-.893-3.333-7.375h.752l2.964 6.623 2.964-6.623h.724zm4.499 7.46c-.718 0-1.361-.161-1.929-.482a3.484 3.484 0 01-1.333-1.333c-.321-.577-.482-1.225-.482-1.943 0-.729.161-1.376.482-1.944a3.359 3.359 0 011.333-1.333c.568-.321 1.211-.482 1.929-.482.596 0 1.135.118 1.617.355.492.227.889.562 1.192 1.007l-.525.383a2.456 2.456 0 00-.993-.823 2.908 2.908 0 00-1.291-.284c-.576 0-1.096.133-1.56.397-.454.256-.813.62-1.078 1.092-.255.473-.383 1.017-.383 1.632 0 .614.128 1.158.383 1.631.265.472.624.841 1.078 1.106.464.255.984.383 1.56.383.473 0 .903-.09 1.291-.27.397-.189.728-.468.993-.836l.525.382c-.303.445-.7.785-1.192 1.022a3.749 3.749 0 01-1.617.34zm10.385-7.46v7.403h-.71v-6.765h-3.857l-.1 1.971a24.35 24.35 0 01-.255 2.568c-.113.69-.307 1.248-.581 1.673-.275.426-.653.638-1.135.638-.142 0-.345-.033-.61-.099l.071-.61c.151.038.265.057.34.057.397 0 .7-.194.908-.582.208-.387.35-.869.426-1.446.075-.577.137-1.329.184-2.255l.128-2.553h5.191zm9.091 0l-3.801 8.41c-.283.653-.614 1.116-.993 1.39-.368.274-.808.412-1.319.412a2.71 2.71 0 01-.964-.171 2.05 2.05 0 01-.752-.496l.355-.539a1.85 1.85 0 001.376.582c.359 0 .666-.1.921-.298.256-.199.492-.539.71-1.022l.397-.893-3.333-7.375h.751l2.965 6.623 2.964-6.623h.723zm6.778.638h-4.354v6.765h-.709v-7.403h5.063v.638z" fill="#000"/><defs><clipPath id="clip0_632_6"><path fill="#fff" transform="translate(79.226)" d="M0 0h39.18v50.177H0z"/></clipPath></defs></svg>