<svg width="44" height="45" fill="none" xmlns="http://www.w3.org/2000/svg"><path d="M21.999 4.203c-9.824 0-17.807 8.006-17.807 17.853 0 9.847 7.983 17.85 17.807 17.85 9.823 0 17.81-8.003 17.81-17.85 0-9.847-7.987-17.853-17.81-17.853zm0 2.1c8.69 0 15.714 7.041 15.714 15.753S30.69 37.808 21.999 37.808c-8.692 0-15.715-7.04-15.715-15.752S13.307 6.304 22 6.304z" fill="#48647D"/><path d="M22 0a1.046 1.046 0 00-1.063 1.05A1.053 1.053 0 0022 2.1c11.006 0 19.905 8.921 19.905 19.953S33.005 42.006 22 42.006a1.045 1.045 0 00-1.063 1.05A1.052 1.052 0 0022 44.106c12.138 0 22-9.886 22-22.053C44 9.886 34.138 0 22 0zM2.095 22.052a1.052 1.052 0 01-1.047 1.05A1.047 1.047 0 010 22.052a1.052 1.052 0 011.048-1.05 1.045 1.045 0 011.047 1.05zM16.85 2.777a1.045 1.045 0 01-1.283-.742 1.053 1.053 0 01.74-1.287 1.046 1.046 0 011.284.743 1.052 1.052 0 01-.741 1.286zm-4.801 1.995a1.045 1.045 0 01-1.563-.773 1.052 1.052 0 01.902-1.178 1.045 1.045 0 011.044.516 1.053 1.053 0 01-.383 1.435zM7.925 7.943A1.046 1.046 0 016.137 7.2a1.052 1.052 0 011.048-1.05A1.046 1.046 0 018.232 7.2c0 .278-.11.546-.307.743zm-3.163 4.134a1.048 1.048 0 11-1.545-1.358 1.046 1.046 0 011.65.56c.072.27.034.557-.105.798zM2.773 16.89a1.051 1.051 0 01-1.283.743 1.046 1.046 0 01-.767-.878 1.053 1.053 0 01.902-1.178 1.045 1.045 0 011.175.904c.018.137.009.276-.027.409zm.001 10.327a1.053 1.053 0 01-.741 1.286 1.047 1.047 0 01-1.283-.742 1.052 1.052 0 01.74-1.287 1.046 1.046 0 011.284.743zm1.988 4.814a1.052 1.052 0 01-.383 1.435 1.046 1.046 0 01-1.563-.773 1.052 1.052 0 01.515-1.046 1.046 1.046 0 011.431.384zm3.163 4.133a1.051 1.051 0 01-.74 1.792 1.046 1.046 0 01-1.048-1.05 1.052 1.052 0 011.048-1.05 1.047 1.047 0 01.74.308zm4.124 3.171A1.05 1.05 0 0111 41.154a1.049 1.049 0 01-.383-1.435 1.048 1.048 0 011.43-.384zm4.801 1.994a1.047 1.047 0 01.74 1.286 1.052 1.052 0 01-.874.77 1.045 1.045 0 01-1.176-.904 1.054 1.054 0 01.515-1.047 1.046 1.046 0 01.795-.105z" fill="#48647D"/><path d="M21.983 8.387a1.047 1.047 0 00-1.033 1.062v12.605c.002.278.113.544.31.74l6.283 6.302a1.047 1.047 0 001.791-.74 1.054 1.054 0 00-.306-.744l-5.982-5.996V9.449a1.051 1.051 0 00-1.063-1.062z" fill="#48647D"/></svg>