<svg width="41" height="47" fill="none" xmlns="http://www.w3.org/2000/svg"><path fill-rule="evenodd" clip-rule="evenodd" d="M37.739 23.585C35.333 34.02 29.412 41.397 20.136 45.51 10.86 41.397 4.94 34.02 2.533 23.585 1.006 16.96 1.455 11.114 1.648 9.342c9.552-.995 16.63-6.207 18.488-7.704 1.858 1.497 8.936 6.709 18.487 7.704.194 1.772.643 7.618-.884 14.243zm2.225-15.006a.712.712 0 00-.643-.602C28.56 7.06 20.685.245 20.606.177a.714.714 0 00-.94 0c-.078.068-7.955 6.882-18.715 7.8a.712.712 0 00-.643.602c-.044.286-1.049 7.103.826 15.278 1.74 7.585 6.398 17.747 18.719 23.084a.71.71 0 00.566 0c12.32-5.337 16.98-15.499 18.719-23.084 1.875-8.175.87-14.992.826-15.278z" fill="#48647D"/><path fill-rule="evenodd" clip-rule="evenodd" d="M20.136 39.76C5.27 33.107 6.157 16.319 6.476 13.077c6.933-.766 12.11-4.468 13.66-5.693 1.548 1.225 6.727 4.927 13.659 5.693.323 3.241 1.224 20.022-13.66 26.685zm14.36-28.046c-7.982-.681-13.833-5.738-13.89-5.79a.714.714 0 00-.94 0c-.058.052-5.909 5.109-13.89 5.79a.712.712 0 00-.644.601c-.032.212-3.017 21.193 14.72 28.877a.71.71 0 00.567 0c17.737-7.684 14.752-28.665 14.72-28.877a.712.712 0 00-.643-.601z" fill="#48647D"/><path fill-rule="evenodd" clip-rule="evenodd" d="M26.973 20.651l-7.32 7.171c-.555.542-1.505.543-2.06.005l-4.013-3.9a1.46 1.46 0 01-.446-1.036 1.47 1.47 0 011.475-1.495c.37 0 .742.139 1.027.416l2.482 2.413a.71.71 0 00.995-.002l5.796-5.678a1.478 1.478 0 012.085.021c.276.282.425.654.422 1.047a1.466 1.466 0 01-.443 1.038zm-3.06-3.123l-5.3 5.192-1.984-1.929a2.903 2.903 0 00-4.1.059 2.878 2.878 0 00-.819 2.061c.01.775.323 1.498.878 2.037l4.012 3.9c.545.529 1.263.82 2.02.82a2.89 2.89 0 002.03-.828l7.32-7.17a2.881 2.881 0 00.87-2.042 2.88 2.88 0 00-.829-2.058 2.902 2.902 0 00-4.099-.042z" fill="#48647D"/></svg>