<svg width="46" height="46" fill="none" xmlns="http://www.w3.org/2000/svg"><path d="M.952 40.038c0 3.255 6.972 5.01 13.523 5.01 6.158 0 12.676-1.548 13.452-4.427 1.154.111 2.352.168 3.585.168 6.557 0 13.523-1.755 13.523-5.012V5.963c0-3.255-6.97-5.01-13.523-5.01-6.555 0-13.482 1.752-13.52 4.992v12.213a36.778 36.778 0 00-3.508-.169c-6.56 0-13.523 1.758-13.523 5.013v17.036H.952zM4.54 26.47a.757.757 0 00.3.111c2.606.94 6.182 1.43 9.641 1.43 3.46 0 7.033-.49 9.638-1.43a.715.715 0 00.3-.114 9.51 9.51 0 002.086-1.073v3.285c0 1.466-4.574 3.507-12.02 3.507-7.447 0-12.021-2.04-12.021-3.507v-3.285A9.644 9.644 0 004.54 26.47zm36.309-4.874h.039c.943-.3 1.837-.735 2.656-1.29v3.546c0 .584-.826 1.485-3.143 2.27-2.317.784-5.503 1.226-8.883 1.226a36.76 36.76 0 01-3.507-.169v-4.225a2.103 2.103 0 000-.244c1.133.106 2.314.163 3.525.163 3.507.027 6.818-.436 9.313-1.277zm-.415-7.408h-.033c-2.35.8-5.503 1.238-8.883 1.238-3.381 0-6.534-.43-8.88-1.23H22.6c-2.293-.79-3.11-1.685-3.11-2.262v-3.58c2.404 1.717 7.32 2.621 12.02 2.621 4.7 0 9.617-.901 12.021-2.617v3.567c.012.577-.805 1.473-3.098 2.263zm3.11 15.627c0 .583-.826 1.484-3.143 2.272-2.317.787-5.506 1.235-8.883 1.235-1.202 0-2.384-.057-3.507-.169V28.7c1.127.108 2.302.162 3.507.162 3.54 0 6.866-.466 9.364-1.316.945-.298 1.842-.73 2.662-1.286v3.555zm-29.063 3.873c4.707 0 9.617-.901 12.021-2.617v2.587a.768.768 0 000 .33v.37c0 .68-1.046 1.503-2.729 2.125h-.036c-2.34.872-5.71 1.37-9.262 1.37-3.552 0-6.911-.498-9.262-1.37H5.18c-1.685-.633-2.73-1.445-2.73-2.123v-3.29c2.41 1.713 7.326 2.617 12.032 2.617zm0 9.857c-7.45 0-12.02-2.04-12.02-3.507v-3.27a9.575 9.575 0 002.209 1.125h.066c2.5.922 6.052 1.451 9.751 1.451 3.7 0 7.252-.529 9.752-1.451h.036a9.545 9.545 0 002.239-1.133v2.849a.734.734 0 000 .348v.072c-.006 1.476-4.577 3.516-12.033 3.516zm17.037-4.258c-1.202 0-2.38-.057-3.507-.168v-4.457a36.91 36.91 0 003.507.162c3.54 0 6.863-.465 9.364-1.316.945-.297 1.842-.73 2.662-1.286v3.555c0 1.466-4.574 3.51-12.026 3.51zm0-36.831c7.45 0 12.02 2.04 12.02 3.507 0 1.466-4.58 3.507-12.02 3.507-7.441 0-12.021-2.044-12.021-3.51 0-1.467 4.57-3.504 12.02-3.504zM19.497 14.332c.817.557 1.71.993 2.65 1.295h.04c2.494.842 5.806 1.305 9.33 1.305 3.526 0 6.837-.463 9.332-1.305h.039a10.3 10.3 0 002.656-1.289v3.552c0 .577-.817 1.47-3.11 2.26h-.033c-2.35.8-5.503 1.238-8.883 1.238a35.105 35.105 0 01-4.172-.228l-.207-.027c-1.4-1.383-4.3-2.33-7.648-2.801l.006-4zm-5.016 5.16a36.268 36.268 0 014.09.222.629.629 0 00.169.021c3.921.47 6.545 1.539 7.429 2.543.014.02.03.04.047.057.17.183.27.418.286.667 0 .673-.97 1.466-2.738 2.13l-.084.03c-2.08.767-5.232 1.347-9.205 1.347-3.972 0-7.13-.583-9.213-1.346a.427.427 0 00-.067-.027c-1.77-.662-2.74-1.455-2.746-2.128.012-1.476 4.586-3.516 12.032-3.516z" fill="#48647D"/></svg>