<svg width="48" height="50" fill="none" xmlns="http://www.w3.org/2000/svg"><path d="M.847 24.857h2.374v24.294a.848.848 0 00.847.848h36.94a.847.847 0 00.846-.848V24.857h2.373a.847.847 0 00.848-.847v-8.577a.847.847 0 00-.848-.847H27.916c2.013-.818 4.1-2.013 5.227-3.689a4.846 4.846 0 00.743-3.89 5 5 0 00-4.137-3.784 5.84 5.84 0 00-5.983 2.244 10.627 10.627 0 00-1.403 3.021 7.752 7.752 0 00-.638-1.13 4.826 4.826 0 00-4.942-1.86 4.151 4.151 0 00-3.431 3.148 4.028 4.028 0 00.617 3.232 8.541 8.541 0 003.565 2.708H.847a.847.847 0 00-.847.847v8.577a.847.847 0 00.847.847zm4.069 0H17.07v23.447H4.916V24.857zm13.85 23.447V24.857h7.544v23.447h-7.544zm21.394 0H28.004V24.857H40.16v23.447zm3.22-25.142H29.422v-6.881H43.38v6.881zM25.16 6.43a4.047 4.047 0 013.383-1.626c.296 0 .591.028.882.084a3.353 3.353 0 012.806 2.489 3.17 3.17 0 01-.494 2.574c-1.67 2.488-6.285 3.793-8.32 4.262.002-.366-.005-.745-.025-1.133.067-2.12.454-4.744 1.769-6.65zm-9.786 4.503a2.36 2.36 0 01-.368-1.918 2.504 2.504 0 012.1-1.851c.222-.043.447-.064.673-.064a3.05 3.05 0 012.55 1.221c.937 1.358 1.269 3.192 1.36 4.77-.01.382-.012.757-.006 1.119-1.943-.468-5.15-1.55-6.309-3.277zm12.353 5.348v6.882h-10.38v-6.881h10.38zm-26.032 0h13.958v6.882H1.695v-6.881zM44.007 3.953h-1.694v2.569h1.694V3.953zm0 5.34h-1.694v2.569h1.694V9.293zm3.107-2.23h-2.57v1.694h2.57V7.063zm-5.34 0h-2.569v1.694h2.569V7.063zM4.884 0H3.19v2.569h1.695V0zm0 5.34H3.19v2.569h1.695v-2.57zm3.108-2.235h-2.57V4.8h2.57V3.105zm-5.342 0H.083V4.8h2.569V3.105z" fill="#48647D"/></svg>