<svg width="47" height="44" viewBox="0 0 47 44" fill="none" xmlns="http://www.w3.org/2000/svg">
<path d="M17.6523 5.38572C17.6523 8.4767 20.0964 11.9382 23.3698 11.9382C26.6433 11.9382 29.0873 8.4767 29.0873 5.38572C29.0873 2.29474 26.6322 0 23.3698 0C20.1074 0 17.6523 2.31132 17.6523 5.38572ZM23.3698 1.65884C25.7199 1.65884 27.4285 3.22369 27.4285 5.38572C27.4285 7.54774 25.6203 10.2793 23.3698 10.2793C21.1193 10.2793 19.3112 7.59751 19.3112 5.38572C19.3112 3.17392 21.0419 1.65884 23.3919 1.65884H23.3698Z" fill="#48647D"/>
<path d="M16.6237 19.8945L16.0707 28.1887C16.0625 28.2974 16.0758 28.4067 16.1101 28.5101C16.1443 28.6136 16.1988 28.7093 16.2703 28.7916C16.3418 28.8739 16.4289 28.9411 16.5266 28.9895C16.6242 29.0379 16.7306 29.0664 16.8393 29.0734H16.9002C17.1094 29.0739 17.311 28.9947 17.464 28.852C17.617 28.7092 17.71 28.5136 17.7241 28.3048L18.3102 20.0106C18.3256 19.7906 18.253 19.5735 18.1083 19.4071C17.9636 19.2407 17.7588 19.1385 17.5388 19.1231C17.3188 19.1077 17.1018 19.1803 16.9353 19.325C16.7689 19.4697 16.6667 19.6745 16.6513 19.8945H16.6237Z" fill="#48647D"/>
<path d="M32.7479 19.8119C32.7452 19.845 32.7452 19.8783 32.7479 19.9114L33.7653 28.3549C33.7896 28.5554 33.886 28.7401 34.0367 28.8744C34.1874 29.0088 34.3818 29.0836 34.5837 29.0848H34.6888C34.9062 29.0585 35.1045 28.9472 35.2402 28.7752C35.3759 28.6033 35.4381 28.3846 35.4131 28.1669L34.4068 19.7621C34.4516 17.9932 33.8504 16.2685 32.7156 14.9109C31.5808 13.5532 29.9902 12.6555 28.2414 12.3858C26.6573 12.1752 25.0619 12.0607 23.4639 12.043C21.8207 12.0715 20.18 12.1841 18.5482 12.3803C14.9817 12.8669 12.3884 15.9689 12.3718 19.7677L11.4318 28.1669C11.4198 28.2759 11.4294 28.3861 11.46 28.4913C11.4906 28.5965 11.5416 28.6947 11.6102 28.7802C11.6787 28.8656 11.7634 28.9368 11.8595 28.9895C11.9555 29.0423 12.061 29.0756 12.1699 29.0876C12.2789 29.0996 12.3891 29.09 12.4943 29.0594C12.5995 29.0288 12.6977 28.9777 12.7832 28.9092C12.8687 28.8406 12.9398 28.7559 12.9926 28.6599C13.0453 28.5638 13.0786 28.4583 13.0906 28.3494L14.014 19.9004C14.014 19.9004 14.014 19.8451 14.014 19.8119C14.014 16.7873 15.9604 14.4041 18.7583 14.0281C20.3146 13.8384 21.8797 13.7295 23.4473 13.7018C24.9617 13.7229 26.4737 13.83 27.976 14.0225C29.3414 14.2378 30.5807 14.9456 31.4598 16.0123C32.339 17.0789 32.7972 18.4305 32.7479 19.8119Z" fill="#48647D"/>
<path d="M29.2644 19.127C29.0458 19.144 28.8426 19.2463 28.6988 19.4118C28.555 19.5774 28.4821 19.7929 28.4958 20.0117L29.0819 28.3059C29.0959 28.5147 29.1889 28.7103 29.3419 28.8531C29.4949 28.9958 29.6965 29.075 29.9058 29.0745H29.9666C30.1858 29.0589 30.3898 28.957 30.5339 28.7912C30.678 28.6253 30.7504 28.409 30.7352 28.1898L30.1491 19.8956C30.1335 19.6764 30.0316 19.4724 29.8657 19.3283C29.6998 19.1842 29.4836 19.1118 29.2644 19.127Z" fill="#48647D"/>
<path d="M28.7113 36.5931L32.7036 32.7225C32.8148 32.6142 32.8933 32.4769 32.9303 32.3261C32.9673 32.1754 32.9613 32.0173 32.9129 31.8699C32.8645 31.7224 32.7757 31.5915 32.6566 31.492C32.5375 31.3924 32.3929 31.3283 32.2391 31.3069L26.7097 30.5052L24.2435 25.5286C24.175 25.3899 24.0691 25.2731 23.9376 25.1914C23.8062 25.1097 23.6545 25.0664 23.4998 25.0664C23.3451 25.0664 23.1934 25.1097 23.062 25.1914C22.9305 25.2731 22.8246 25.3899 22.7561 25.5286L20.2899 30.5052L14.7604 31.3069C14.6132 31.3362 14.4767 31.4049 14.3655 31.5056C14.2542 31.6063 14.1724 31.7354 14.1287 31.8789C14.085 32.0225 14.0811 32.1753 14.1174 32.3209C14.1536 32.4665 14.2287 32.5996 14.3347 32.7059L18.3214 36.5765L17.3814 42.0673C17.3552 42.2201 17.3722 42.3771 17.4307 42.5207C17.4891 42.6642 17.5866 42.7885 17.7121 42.8795C17.8376 42.9704 17.9861 43.0244 18.1407 43.0353C18.2953 43.0462 18.4499 43.0135 18.5869 42.941L23.5136 40.3477L28.4459 42.941C28.565 43.0044 28.6981 43.0367 28.833 43.035C29.0075 43.0362 29.1779 42.982 29.3196 42.8802C29.4439 42.788 29.5407 42.6635 29.5992 42.5201C29.6576 42.3768 29.6757 42.2202 29.6513 42.0673L28.7113 36.5931ZM27.0027 36.4438L27.7326 40.7071L23.9062 38.6943C23.7865 38.6327 23.6538 38.6006 23.5191 38.6006C23.3845 38.6006 23.2518 38.6327 23.1321 38.6943L19.3057 40.7071L20.0356 36.4438C20.0586 36.3112 20.049 36.1749 20.0076 36.0467C19.9662 35.9186 19.8942 35.8025 19.7978 35.7084L16.7013 32.6893L20.9701 32.07C21.1032 32.0508 21.2296 31.9994 21.3384 31.9204C21.4473 31.8414 21.5353 31.7372 21.5949 31.6166L23.5081 27.746L25.4268 31.6166C25.4855 31.7368 25.5725 31.8408 25.6804 31.9198C25.7883 31.9988 25.9138 32.0504 26.0461 32.07L30.3315 32.6893L27.2294 35.7084C27.1309 35.8014 27.0563 35.9169 27.012 36.0449C26.9677 36.173 26.9551 36.3098 26.9751 36.4438H27.0027Z" fill="#48647D"/>
<path d="M46.2786 33.8121L42.2476 33.2093L40.445 29.5599C40.3765 29.4211 40.2706 29.3043 40.1391 29.2226C40.0077 29.1409 39.856 29.0977 39.7013 29.0977C39.5466 29.0977 39.3949 29.1409 39.2635 29.2226C39.1321 29.3043 39.0261 29.4211 38.9576 29.5599L37.155 33.2093L33.135 33.8121C32.9818 33.8343 32.8378 33.899 32.7194 33.9989C32.6011 34.0987 32.513 34.2297 32.4652 34.3771C32.4175 34.5244 32.4119 34.6821 32.4492 34.8325C32.4864 34.9828 32.565 35.1197 32.6761 35.2276L35.5901 38.0698L34.9045 42.0842C34.8834 42.2033 34.8887 42.3256 34.9202 42.4424C34.9517 42.5592 35.0085 42.6676 35.0866 42.76C35.1648 42.8524 35.2623 42.9264 35.3722 42.9768C35.4822 43.0273 35.6019 43.0529 35.7228 43.0518C35.8577 43.0535 35.9908 43.0212 36.1099 42.9578L39.7096 41.0612L43.3148 42.9578C43.4518 43.0303 43.6064 43.063 43.761 43.0521C43.9156 43.0413 44.0641 42.9873 44.1896 42.8963C44.3151 42.8054 44.4126 42.6811 44.471 42.5375C44.5295 42.394 44.5465 42.2369 44.5202 42.0842L43.8346 38.0698L46.7486 35.2276C46.8597 35.1197 46.9383 34.9828 46.9756 34.8325C47.0128 34.6821 47.0073 34.5244 46.9595 34.3771C46.9117 34.2297 46.8237 34.0987 46.7053 33.9989C46.5869 33.899 46.4429 33.8343 46.2897 33.8121H46.2786ZM42.3527 37.185C42.2551 37.2783 42.1823 37.3943 42.1408 37.5227C42.0993 37.6511 42.0904 37.7878 42.1149 37.9205L42.5905 40.6852L40.0856 39.3692C39.9656 39.3083 39.8331 39.2761 39.6985 39.2752C39.5657 39.2755 39.4348 39.3077 39.317 39.3692L36.8122 40.6852L37.2877 37.9205C37.3122 37.7878 37.3033 37.6511 37.2618 37.5227C37.2203 37.3943 37.1475 37.2783 37.0499 37.185L35.0261 35.211L37.824 34.8074C37.9567 34.7868 38.0825 34.7349 38.1912 34.6561C38.2998 34.5772 38.3882 34.4737 38.4489 34.3539L39.6985 31.8159L40.9537 34.3539C41.0144 34.4737 41.1028 34.5772 41.2114 34.6561C41.3201 34.7349 41.4459 34.7868 41.5786 34.8074L44.3765 35.211L42.3527 37.185Z" fill="#48647D"/>
<path d="M13.8649 33.8124L9.83389 33.2096L8.03127 29.5602C7.96236 29.421 7.85599 29.3038 7.72412 29.2217C7.59225 29.1397 7.44011 29.096 7.28479 29.0957C7.13 29.0951 6.97823 29.1385 6.84707 29.2207C6.71592 29.3029 6.61078 29.4206 6.54384 29.5602L4.74123 33.2096L0.710239 33.8124C0.556977 33.8346 0.413007 33.8993 0.294629 33.9992C0.176252 34.099 0.0881962 34.23 0.0404324 34.3774C-0.00733143 34.5247 -0.0128951 34.6824 0.0243709 34.8328C0.0616369 34.9831 0.140244 35.12 0.251292 35.2279L3.16533 38.0701L2.47967 42.0845C2.45191 42.237 2.46774 42.3942 2.52534 42.5381C2.58294 42.6821 2.67997 42.8068 2.80529 42.8981C2.93061 42.9893 3.07913 43.0434 3.23378 43.054C3.38844 43.0646 3.54295 43.0314 3.67957 42.9581L7.28479 41.0615L10.89 42.9581C11.0091 43.0215 11.1422 43.0538 11.2771 43.0521C11.4516 43.0533 11.622 42.9991 11.7637 42.8973C11.888 42.8051 11.9847 42.6806 12.0432 42.5373C12.1017 42.394 12.1198 42.2373 12.0954 42.0845L11.4043 38.0701L14.3349 35.2279C14.4459 35.12 14.5245 34.9831 14.5618 34.8328C14.5991 34.6824 14.5935 34.5247 14.5457 34.3774C14.498 34.23 14.4099 34.099 14.2915 33.9992C14.1732 33.8993 14.0292 33.8346 13.8759 33.8124H13.8649ZM9.9113 37.1853C9.81572 37.28 9.74424 37.3961 9.70286 37.5241C9.66149 37.6521 9.65143 37.7881 9.67353 37.9208L10.1546 40.6855L7.6995 39.3916C7.57978 39.33 7.44708 39.2979 7.31244 39.2979C7.1778 39.2979 7.0451 39.33 6.92538 39.3916L4.38181 40.7076L4.85735 37.9429C4.87945 37.8102 4.86939 37.6742 4.82802 37.5462C4.78664 37.4182 4.71516 37.3021 4.61958 37.2075L2.61238 35.2113L5.4103 34.8077C5.54394 34.7879 5.6709 34.7364 5.78057 34.6575C5.89024 34.5787 5.97942 34.4747 6.04066 34.3542L7.29032 31.8162L8.54552 34.3542C8.60495 34.4738 8.69222 34.5774 8.79998 34.6563C8.90774 34.7352 9.03285 34.7871 9.16482 34.8077L11.9683 35.2113L9.9113 37.1853Z" fill="#48647D"/>
</svg>
