<svg width="44" height="45" viewBox="0 0 44 45" fill="none" xmlns="http://www.w3.org/2000/svg">
<path d="M21.9986 4.20312C12.175 4.20312 4.19238 12.2089 4.19238 22.0561C4.19239 31.9033 12.175 39.9052 21.9986 39.9052C31.8221 39.9052 39.8086 31.9033 39.8086 22.0561C39.8086 12.2089 31.8221 4.20312 21.9986 4.20312ZM21.9986 6.30393C30.6897 6.30393 37.7128 13.344 37.7128 22.0561C37.7128 30.7682 30.6897 37.8082 21.9986 37.8082C13.3074 37.8082 6.28428 30.7682 6.28427 22.0561C6.28427 13.344 13.3074 6.30393 21.9986 6.30393Z" fill="#48647D"/>
<path d="M22.0003 0.000108254C21.8614 -0.00189073 21.7236 0.0238132 21.5947 0.0756907C21.4659 0.127568 21.3486 0.204604 21.2497 0.302317C21.1508 0.40003 21.0723 0.516457 21.0187 0.64486C20.9651 0.773263 20.9375 0.911078 20.9375 1.05027C20.9375 1.18946 20.9651 1.32727 21.0187 1.45568C21.0723 1.58408 21.1508 1.70051 21.2497 1.79822C21.3486 1.89593 21.4659 1.97297 21.5947 2.02484C21.7236 2.07672 21.8614 2.10243 22.0003 2.10043C33.0058 2.10043 41.905 11.0211 41.905 22.0532C41.905 33.0852 33.0058 42.0059 22.0003 42.0059C21.8614 42.0039 21.7236 42.0295 21.5947 42.0814C21.4659 42.1333 21.3486 42.2103 21.2497 42.308C21.1508 42.4057 21.0723 42.5222 21.0187 42.6506C20.9651 42.779 20.9375 42.9168 20.9375 43.056C20.9375 43.1952 20.9651 43.333 21.0187 43.4614C21.0723 43.5898 21.1508 43.7062 21.2497 43.8039C21.3486 43.9016 21.4659 43.9787 21.5947 44.0306C21.7236 44.0824 21.8614 44.1081 22.0003 44.1061C34.1381 44.1061 44.0003 34.2203 44.0003 22.0532C44.0003 9.88604 34.1381 0.000108254 22.0003 0.000108254Z" fill="#48647D"/>
<path d="M2.09524 22.0521C2.09523 22.3306 1.98486 22.5977 1.78839 22.7947C1.59193 22.9916 1.32546 23.1023 1.04762 23.1023C0.769775 23.1023 0.503312 22.9916 0.306845 22.7947C0.110379 22.5977 3.48641e-06 22.3306 0 22.0521C-8.73531e-07 21.9142 0.0270961 21.7776 0.0797434 21.6502C0.132391 21.5228 0.209558 21.4071 0.306838 21.3096C0.404119 21.212 0.519608 21.1347 0.646711 21.0819C0.773814 21.0291 0.910043 21.002 1.04762 21.002C1.18519 21.002 1.32142 21.0291 1.44853 21.0819C1.57563 21.1347 1.69112 21.212 1.7884 21.3096C1.88568 21.4071 1.96285 21.5228 2.01549 21.6502C2.06814 21.7776 2.09524 21.9142 2.09524 22.0521Z" fill="#48647D"/>
<path d="M16.8497 2.77711C16.7168 2.8128 16.5782 2.82191 16.4418 2.80391C16.3054 2.7859 16.1739 2.74114 16.0547 2.67219C15.9356 2.60323 15.8312 2.51145 15.7474 2.40205C15.6637 2.29264 15.6022 2.16774 15.5666 2.03453C15.4947 1.76551 15.5324 1.47886 15.6713 1.23767C15.8102 0.996468 16.039 0.820444 16.3074 0.74836C16.5758 0.676276 16.8617 0.714033 17.1024 0.853288C17.343 0.992543 17.5186 1.22192 17.5905 1.49094C17.6261 1.62415 17.6352 1.7631 17.6172 1.89983C17.5993 2.03656 17.5546 2.16837 17.4858 2.2878C17.417 2.40724 17.3255 2.51193 17.2163 2.59588C17.1072 2.67983 16.9826 2.74142 16.8497 2.77711Z" fill="#48647D"/>
<path d="M12.0485 4.77172C11.8079 4.91097 11.522 4.94872 11.2536 4.87663C10.9852 4.80455 10.7564 4.62856 10.6175 4.38736C10.5487 4.26793 10.504 4.13609 10.4861 3.99936C10.4681 3.86263 10.4772 3.72369 10.5128 3.59048C10.5484 3.45727 10.6099 3.33239 10.6936 3.22298C10.7774 3.11357 10.8818 3.02177 11.0009 2.95281C11.1201 2.88386 11.2516 2.83912 11.388 2.82111C11.5244 2.80311 11.663 2.81223 11.7959 2.84792C11.9288 2.88361 12.0534 2.94519 12.1625 3.02915C12.2717 3.1131 12.3632 3.21777 12.432 3.3372C12.5709 3.5784 12.6086 3.86505 12.5367 4.13407C12.4647 4.4031 12.2892 4.63246 12.0485 4.77172Z" fill="#48647D"/>
<path d="M7.92536 7.94253C7.7289 8.13947 7.46244 8.25011 7.18459 8.25011C6.90675 8.25011 6.64029 8.13946 6.44382 7.94253C6.34654 7.84501 6.26936 7.72927 6.21672 7.60186C6.16407 7.47445 6.13698 7.33788 6.13698 7.19997C6.13698 7.06206 6.16407 6.9255 6.21672 6.79809C6.26936 6.67068 6.34652 6.55491 6.4438 6.4574C6.64027 6.26046 6.90675 6.14983 7.18459 6.14983C7.46244 6.14984 7.7289 6.26048 7.92536 6.45742C8.12182 6.65436 8.23221 6.92146 8.23221 7.19997C8.23221 7.47848 8.12182 7.74559 7.92536 7.94253Z" fill="#48647D"/>
<path d="M4.76239 12.0768C4.62347 12.318 4.39466 12.494 4.12628 12.5661C3.85791 12.6382 3.57195 12.6005 3.33132 12.4612C3.21218 12.3922 3.10776 12.3004 3.02401 12.191C2.94026 12.0816 2.87883 11.9567 2.84322 11.8235C2.80761 11.6903 2.79852 11.5514 2.81648 11.4146C2.83444 11.2779 2.87907 11.1461 2.94786 11.0267C3.01665 10.9072 3.10823 10.8026 3.21738 10.7186C3.32652 10.6346 3.45111 10.5731 3.584 10.5374C3.71689 10.5017 3.8555 10.4926 3.99189 10.5106C4.12829 10.5286 4.25981 10.5733 4.37896 10.6423C4.61958 10.7815 4.79515 11.0109 4.86706 11.2799C4.93897 11.549 4.90132 11.8356 4.76239 12.0768Z" fill="#48647D"/>
<path d="M2.77321 16.89C2.7376 17.0232 2.67616 17.1481 2.5924 17.2575C2.50865 17.3669 2.40423 17.4587 2.28509 17.5277C2.16595 17.5966 2.03443 17.6414 1.89803 17.6594C1.76163 17.6774 1.62302 17.6683 1.49014 17.6326C1.35725 17.5969 1.23267 17.5353 1.12352 17.4513C1.01438 17.3674 0.922809 17.2627 0.854022 17.1433C0.785234 17.0238 0.740582 16.892 0.722625 16.7553C0.704669 16.6186 0.713752 16.4796 0.74936 16.3464C0.784966 16.2132 0.846411 16.0883 0.930161 15.9789C1.01391 15.8695 1.11833 15.7777 1.23748 15.7088C1.35662 15.6398 1.48814 15.595 1.62454 15.577C1.76094 15.559 1.89954 15.5681 2.03243 15.6038C2.16532 15.6395 2.2899 15.7011 2.39904 15.7851C2.50819 15.869 2.59976 15.9737 2.66854 16.0931C2.73733 16.2126 2.78198 16.3444 2.79994 16.4811C2.8179 16.6178 2.80881 16.7568 2.77321 16.89Z" fill="#48647D"/>
<path d="M2.77351 27.2169C2.80912 27.3501 2.8182 27.489 2.80024 27.6258C2.78229 27.7625 2.73764 27.8943 2.66885 28.0137C2.60006 28.1332 2.50849 28.2379 2.39935 28.3218C2.2902 28.4058 2.16562 28.4674 2.03273 28.5031C1.89985 28.5387 1.76124 28.5478 1.62484 28.5298C1.48844 28.5118 1.35692 28.4671 1.23778 28.3981C1.11864 28.3292 1.01422 28.2374 0.930465 28.128C0.846715 28.0186 0.78527 27.8937 0.749664 27.7605C0.677756 27.4914 0.715402 27.2048 0.854325 26.9636C0.993248 26.7224 1.22206 26.5464 1.49044 26.4743C1.75882 26.4022 2.04477 26.44 2.28539 26.5792C2.52601 26.7185 2.7016 26.9479 2.77351 27.2169Z" fill="#48647D"/>
<path d="M4.76214 32.0312C4.90105 32.2724 4.93871 32.559 4.8668 32.828C4.79489 33.0971 4.6193 33.3264 4.37869 33.4657C4.13807 33.6049 3.85212 33.6427 3.58374 33.5706C3.31536 33.4985 3.08656 33.3225 2.94763 33.0813C2.87884 32.9619 2.83418 32.8301 2.81622 32.6933C2.79826 32.5566 2.80736 32.4177 2.84296 32.2845C2.87857 32.1512 2.94 32.0264 3.02375 31.9169C3.1075 31.8075 3.21194 31.7158 3.33108 31.6468C3.5717 31.5076 3.85765 31.4698 4.12603 31.5419C4.3944 31.614 4.62321 31.79 4.76214 32.0312Z" fill="#48647D"/>
<path d="M7.92549 36.1637C8.12196 36.3606 8.23232 36.6277 8.23232 36.9062C8.23232 37.1848 8.12194 37.4519 7.92547 37.6488C7.72901 37.8457 7.46255 37.9564 7.1847 37.9564C6.90686 37.9564 6.64038 37.8458 6.44391 37.6488C6.34663 37.5513 6.26948 37.4355 6.21683 37.3081C6.16418 37.1807 6.13709 37.0442 6.13709 36.9062C6.13709 36.7683 6.16418 36.6318 6.21683 36.5044C6.26948 36.377 6.34663 36.2612 6.44391 36.1637C6.5412 36.0662 6.65668 35.9888 6.78379 35.936C6.91089 35.8833 7.04713 35.8561 7.1847 35.8561C7.32228 35.8561 7.45852 35.8833 7.58562 35.936C7.71273 35.9888 7.82821 36.0662 7.92549 36.1637Z" fill="#48647D"/>
<path d="M12.0486 39.3351C12.2892 39.4744 12.4648 39.7037 12.5367 39.9728C12.6087 40.2418 12.571 40.5284 12.4321 40.7696C12.2932 41.0108 12.0644 41.1868 11.796 41.2589C11.5276 41.331 11.2417 41.2932 11.001 41.154C10.8819 41.085 10.7775 40.9933 10.6937 40.8838C10.6099 40.7744 10.5485 40.6496 10.5129 40.5163C10.4773 40.3831 10.4682 40.2442 10.4862 40.1075C10.5041 39.9707 10.5488 39.8389 10.6176 39.7195C10.7565 39.4783 10.9853 39.3023 11.2537 39.2302C11.5221 39.1581 11.808 39.1959 12.0486 39.3351Z" fill="#48647D"/>
<path d="M16.8501 41.329C16.983 41.3647 17.1076 41.4263 17.2167 41.5102C17.3259 41.5942 17.4174 41.6989 17.4862 41.8183C17.555 41.9377 17.5997 42.0695 17.6176 42.2063C17.6356 42.343 17.6265 42.4819 17.5909 42.6152C17.5553 42.7484 17.4938 42.8733 17.4101 42.9827C17.3263 43.0921 17.2219 43.1839 17.1028 43.2528C16.9836 43.3218 16.8521 43.3665 16.7157 43.3845C16.5793 43.4025 16.4407 43.3934 16.3078 43.3577C16.1749 43.322 16.0504 43.2605 15.9412 43.1765C15.8321 43.0925 15.7405 42.9879 15.6717 42.8684C15.6029 42.749 15.5583 42.6172 15.5403 42.4805C15.5224 42.3437 15.5314 42.2048 15.567 42.0716C15.6027 41.9384 15.6641 41.8135 15.7478 41.7041C15.8316 41.5946 15.936 41.5029 16.0552 41.4339C16.1743 41.365 16.3058 41.3202 16.4422 41.3022C16.5786 41.2842 16.7172 41.2933 16.8501 41.329Z" fill="#48647D"/>
<path d="M21.9827 8.38684C21.7054 8.39088 21.4411 8.50493 21.2475 8.704C21.054 8.90308 20.9471 9.17093 20.9503 9.44887V22.0537C20.9515 22.3318 21.0628 22.598 21.2596 22.794L27.543 29.0964C27.6402 29.1942 27.7557 29.2717 27.8829 29.3247C28.01 29.3777 28.1464 29.4052 28.2841 29.4053C28.4218 29.4055 28.5582 29.3785 28.6855 29.3259C28.8128 29.2732 28.9285 29.196 29.026 29.0985C29.1235 29.001 29.2009 28.8852 29.2537 28.7577C29.3066 28.6302 29.3339 28.4936 29.3341 28.3556C29.3342 28.2175 29.3073 28.0808 29.2547 27.9532C29.2022 27.8256 29.1251 27.7096 29.0278 27.6119L23.046 21.6157V9.44887C23.0476 9.30863 23.0212 9.16947 22.9682 9.03964C22.9153 8.90982 22.837 8.79197 22.7379 8.69298C22.6388 8.59399 22.5209 8.51591 22.3912 8.46333C22.2615 8.41075 22.1226 8.38474 21.9827 8.38684Z" fill="#48647D"/>
</svg>
