<svg width="41" height="47" viewBox="0 0 41 47" fill="none" xmlns="http://www.w3.org/2000/svg">
<path fill-rule="evenodd" clip-rule="evenodd" d="M37.739 23.5847C35.3334 34.0212 29.4123 41.3965 20.1361 45.5107C10.8599 41.3965 4.93882 34.0212 2.53325 23.5847C1.00597 16.9601 1.45508 11.114 1.64831 9.3417C11.2003 8.34662 18.2784 3.13479 20.1361 1.63837C21.9938 3.13479 29.0719 8.34662 38.6234 9.3417C38.8171 11.114 39.2663 16.9601 37.739 23.5847ZM39.9641 8.57925C39.9143 8.25404 39.6484 8.00527 39.3209 7.97726C28.5611 7.05909 20.6845 0.245447 20.6061 0.176608C20.3374 -0.0588693 19.9348 -0.0588693 19.6661 0.176608C19.5878 0.245447 11.7112 7.05909 0.951372 7.97726C0.623318 8.00527 0.357932 8.25404 0.308083 8.57925C0.263931 8.86505 -0.740645 15.682 1.13415 23.8573C2.87364 31.4424 7.53239 41.604 19.8527 46.9411C19.9434 46.9805 20.0397 47 20.1361 47C20.2325 47 20.3289 46.9805 20.4195 46.9411C32.7398 41.604 37.3986 31.4424 39.1376 23.8573C41.0129 15.682 40.0078 8.86505 39.9641 8.57925Z" fill="#48647D"/>
<path fill-rule="evenodd" clip-rule="evenodd" d="M20.1355 39.7607C5.27096 33.1056 6.15732 16.3184 6.47636 13.0758C13.4092 12.3096 18.5868 8.60843 20.1355 7.38262C21.6841 8.60843 26.8627 12.3096 33.7945 13.0758C34.1179 16.317 35.0189 33.0981 20.1355 39.7607ZM34.4958 11.7138C26.5138 11.0325 20.6634 5.97593 20.6055 5.92465C20.3367 5.68918 19.9342 5.68918 19.6654 5.92465C19.6075 5.97593 13.7572 11.0325 5.77515 11.7138C5.44757 11.7413 5.18171 11.9906 5.13186 12.3153C5.09957 12.5266 2.11528 33.5078 19.852 41.1921C19.9427 41.2315 20.0391 41.251 20.1355 41.251C20.2318 41.251 20.3282 41.2315 20.4189 41.1921C38.1556 33.5078 35.1713 12.5266 35.139 12.3153C35.0892 11.9906 34.8233 11.7413 34.4958 11.7138Z" fill="#48647D"/>
<path fill-rule="evenodd" clip-rule="evenodd" d="M26.9726 20.6514L19.6524 27.8221C19.0984 28.3638 18.1479 28.3652 17.5929 27.8268L13.5803 23.9268C13.2979 23.6528 13.1393 23.2849 13.1341 22.8913C13.1284 22.4973 13.276 22.1251 13.5509 21.8431C13.8395 21.5459 14.2241 21.3963 14.6091 21.3963C14.9794 21.3963 15.3507 21.5345 15.636 21.8122L18.118 24.2249C18.3948 24.4946 18.8358 24.4946 19.1126 24.223L24.9089 18.545C25.4904 17.9762 26.4262 17.9871 26.9945 18.5663C27.2698 18.8479 27.4194 19.2196 27.4156 19.6132C27.4113 20.0072 27.2541 20.3756 26.9726 20.6514ZM23.9124 17.528L18.6127 22.7195L16.6287 20.791C15.4827 19.6777 13.6439 19.7043 12.5297 20.8499C11.9899 21.4053 11.6989 22.1374 11.7103 22.9113C11.7207 23.6856 12.0326 24.4091 12.5876 24.9484L16.6002 28.8485C17.1452 29.3769 17.8626 29.6679 18.6203 29.6679C19.3832 29.6679 20.1034 29.3741 20.6494 28.8395L27.9696 21.6693C28.5227 21.1271 28.8317 20.4027 28.8398 19.6283C28.8474 18.854 28.5535 18.1229 28.0114 17.5698C26.8929 16.428 25.0546 16.4095 23.9124 17.528Z" fill="#48647D"/>
</svg>
