<svg width="46" height="46" viewBox="0 0 46 46" fill="none" xmlns="http://www.w3.org/2000/svg">
<path d="M0.952148 40.0383C0.952148 43.2928 7.92412 45.0479 14.4754 45.0479C20.6329 45.0479 27.1511 43.5002 27.9265 40.6213C29.0805 40.7324 30.2795 40.7895 31.5116 40.7895C38.0689 40.7895 45.0349 39.0345 45.0349 35.7769V5.96273C45.0349 2.70814 38.0659 0.953125 31.5116 0.953125C24.9574 0.953125 18.0305 2.70513 17.9914 5.9447C17.9914 5.9447 17.9914 5.9447 17.9914 5.96273V18.1577C16.8374 18.0465 15.6534 17.9894 14.4844 17.9894C7.92412 17.9894 0.961164 19.7474 0.961164 23.002V40.0383H0.952148ZM4.54031 26.4699C4.63141 26.528 4.73387 26.5659 4.84083 26.5811C7.4463 27.5218 11.0224 28.0116 14.4814 28.0116C17.9403 28.0116 21.5135 27.5218 24.1189 26.5811C24.2265 26.5664 24.3292 26.5273 24.4195 26.4669C25.1562 26.1967 25.8568 25.8364 26.505 25.3941V28.6787C26.505 30.1453 21.9312 32.1858 14.4844 32.1858C7.0376 32.1858 2.46374 30.1453 2.46374 28.6787V25.3941C3.10975 25.8356 3.80706 26.1969 4.54031 26.4699ZM40.8487 21.5956H40.8877C41.8306 21.2956 42.7253 20.8614 43.5443 20.3064V23.8525C43.5443 24.4355 42.7179 25.337 40.4009 26.1214C38.0839 26.9057 34.8984 27.3475 31.5176 27.3475C30.3156 27.3475 29.1345 27.2874 28.0106 27.1792V22.9719C28.0106 22.9719 28.0106 22.9719 28.0106 22.9539C28.0153 22.8728 28.0153 22.7916 28.0106 22.7105C29.1436 22.8157 30.3246 22.8728 31.5357 22.8728C35.0427 22.8998 38.3544 22.437 40.8487 21.5956ZM40.434 14.1879H40.4009C38.0509 14.9872 34.8984 15.426 31.5176 15.426C28.1368 15.426 24.9844 14.9962 22.6374 14.1969H22.6013C20.3084 13.4065 19.491 12.511 19.491 11.934V8.35484C21.8951 10.0708 26.8116 10.9753 31.5116 10.9753C36.2117 10.9753 41.1281 10.0738 43.5323 8.35784V11.925C43.5443 12.502 42.7269 13.3975 40.434 14.1879ZM43.5443 29.8147C43.5443 30.3977 42.7179 31.2992 40.4009 32.0866C38.0839 32.8739 34.8954 33.3217 31.5176 33.3217C30.3156 33.3217 29.1345 33.2646 28.0106 33.1534V28.6998C29.1376 28.808 30.3126 28.8621 31.5176 28.8621C35.0577 28.8621 38.3844 28.3963 40.8817 27.5458C41.8269 27.2484 42.7238 26.8152 43.5443 26.2596V29.8147ZM14.4814 33.6883C19.1875 33.6883 24.0979 32.7868 26.502 31.0709V33.6583C26.478 33.7672 26.478 33.88 26.502 33.9889V34.3585C26.502 35.0377 25.4562 35.8611 23.7733 36.4831H23.7373C21.3963 37.3546 18.0275 37.8535 14.4754 37.8535C10.9233 37.8535 7.5635 37.3546 5.21347 36.4831H5.18041C3.49451 35.8491 2.44872 35.0377 2.44872 34.3585V31.0709C4.85886 32.7838 9.7753 33.6883 14.4814 33.6883ZM14.4814 43.5453C7.03159 43.5453 2.46074 41.5048 2.46074 40.0383V36.7686C3.14522 37.2374 3.8877 37.6152 4.66953 37.8926H4.69958H4.73565C7.23594 38.8152 10.788 39.3441 14.4874 39.3441C18.1867 39.3441 21.7388 38.8152 24.2391 37.8926H24.2752C25.0681 37.6151 25.8209 37.2341 26.514 36.7596V39.6085C26.486 39.723 26.486 39.8426 26.514 39.9571V40.0292C26.508 41.5048 21.9372 43.5453 14.4814 43.5453ZM31.5176 39.287C30.3156 39.287 29.1376 39.2299 28.0106 39.1187V34.662C29.1406 34.7702 30.3126 34.8243 31.5176 34.8243C35.0577 34.8243 38.3814 34.3585 40.8817 33.508C41.8269 33.2107 42.7238 32.7774 43.5443 32.2218V35.7769C43.5443 37.2435 38.9704 39.287 31.5176 39.287ZM31.5176 2.45571C38.9674 2.45571 43.5383 4.49621 43.5383 5.96273C43.5383 7.42925 38.9584 9.46975 31.5176 9.46975C24.0769 9.46975 19.497 7.42624 19.497 5.95972C19.497 4.4932 24.0678 2.45571 31.5176 2.45571ZM19.497 14.3321C20.3138 14.8887 21.2065 15.3249 22.1475 15.6273H22.1866C24.6809 16.4688 27.9926 16.9316 31.5176 16.9316C35.0427 16.9316 38.3544 16.4688 40.8487 15.6273H40.8877C41.8306 15.3274 42.7253 14.8932 43.5443 14.3381V17.8902C43.5443 18.4672 42.7269 19.3597 40.434 20.1501H40.4009C38.0509 20.9495 34.8984 21.3882 31.5176 21.3882C30.124 21.3949 28.7311 21.3187 27.3465 21.1598L27.1391 21.1328C25.7387 19.7504 22.8387 18.8038 19.491 18.332L19.497 14.3321ZM14.4814 19.492C15.8478 19.489 17.2133 19.5632 18.5714 19.7143C18.6263 19.7289 18.6829 19.736 18.7397 19.7354C22.6614 20.2042 25.2849 21.274 26.1685 22.2778C26.1828 22.2981 26.1989 22.3172 26.2165 22.3348C26.3855 22.5179 26.4863 22.7534 26.502 23.002C26.502 23.6751 25.5314 24.4685 23.7643 25.1327L23.6802 25.1627C21.6006 25.929 18.4482 26.509 14.4754 26.509C10.5026 26.509 7.34413 25.926 5.26155 25.1627C5.24029 25.1519 5.21818 25.1428 5.19544 25.1357C3.4254 24.4745 2.45473 23.6812 2.44872 23.008C2.46074 21.5325 7.03459 19.492 14.4814 19.492Z" fill="#48647D"/>
</svg>
