<svg width="48" height="50" viewBox="0 0 48 50" fill="none" xmlns="http://www.w3.org/2000/svg">
<path d="M0.847458 24.8572H3.22072V49.1512C3.22071 49.2625 3.24262 49.3727 3.2852 49.4756C3.32778 49.5784 3.3902 49.6718 3.4689 49.7505C3.5476 49.8292 3.64103 49.8916 3.74385 49.9342C3.84668 49.9768 3.95689 49.9987 4.06818 49.9987H41.0071C41.1184 49.9987 41.2286 49.9768 41.3314 49.9342C41.4342 49.8916 41.5277 49.8292 41.6063 49.7505C41.685 49.6718 41.7475 49.5784 41.7901 49.4756C41.8326 49.3727 41.8545 49.2625 41.8545 49.1512V24.8572H44.2275C44.3388 24.8572 44.449 24.8353 44.5518 24.7927C44.6547 24.7501 44.7481 24.6877 44.8268 24.609C44.9055 24.5303 44.9679 24.4369 45.0105 24.334C45.0531 24.2312 45.075 24.121 45.075 24.0097V15.433C45.075 15.3218 45.0531 15.2115 45.0105 15.1087C44.9679 15.0059 44.9055 14.9125 44.8268 14.8338C44.7481 14.7551 44.6547 14.6926 44.5518 14.6501C44.449 14.6075 44.3388 14.5856 44.2275 14.5856H27.9155C29.9293 13.7681 32.0162 12.5735 33.1427 10.897C33.5334 10.3375 33.8016 9.7018 33.9296 9.0315C34.0577 8.36119 34.0427 7.6714 33.8856 7.00729C33.6533 6.03526 33.135 5.15515 32.3976 4.48059C31.6602 3.80603 30.7376 3.36797 29.7487 3.22296C28.6412 2.97513 27.4855 3.05541 26.4229 3.45397C25.3603 3.85253 24.4368 4.5521 23.7655 5.46714C23.1422 6.39428 22.6691 7.41389 22.3634 8.48842C22.1825 8.09449 21.969 7.71642 21.7249 7.35819C21.1709 6.6017 20.4084 6.02298 19.5308 5.69278C18.6532 5.36259 17.6984 5.2952 16.7831 5.49887C15.9621 5.62027 15.1963 5.98497 14.5846 6.54589C13.9729 7.10682 13.5434 7.83822 13.3516 8.64567C13.221 9.19761 13.2085 9.7709 13.3148 10.328C13.4212 10.8851 13.644 11.4135 13.9687 11.8785C14.8953 13.0818 16.1259 14.0162 17.5338 14.5856H0.847458C0.736163 14.5856 0.625955 14.6075 0.523128 14.6501C0.420301 14.6927 0.326871 14.7551 0.248173 14.8338C0.169476 14.9125 0.107053 15.0059 0.0644711 15.1087C0.0218889 15.2116 -1.8542e-05 15.3218 1.17753e-08 15.4331V24.0097C-1.8542e-05 24.121 0.0218889 24.2312 0.0644711 24.334C0.107053 24.4369 0.169476 24.5303 0.248173 24.609C0.326871 24.6877 0.420301 24.7501 0.523128 24.7927C0.625955 24.8353 0.736163 24.8572 0.847458 24.8572ZM4.91564 24.8572H17.0708V48.3038H4.91562L4.91564 24.8572ZM18.7657 48.3038V24.8572H26.3095V48.3038H18.7657ZM40.1596 48.3038H28.0044V24.8572H40.1596V48.3038ZM43.3801 23.1622H29.4221V16.2805H43.3801V23.1622ZM25.1608 6.42935C25.5514 5.90535 26.063 5.48373 26.652 5.20057C27.241 4.91741 27.8898 4.78114 28.543 4.8034C28.8389 4.80281 29.1343 4.83071 29.4249 4.88672C30.0875 4.97463 30.7087 5.25857 31.2088 5.70209C31.7089 6.14561 32.0651 6.72847 32.2315 7.37585C32.3375 7.81545 32.3481 8.27263 32.2628 8.7167C32.1775 9.16077 31.9982 9.58145 31.7369 9.9505C30.0667 12.4381 25.4522 13.7429 23.4163 14.2118C23.419 13.8457 23.4116 13.4669 23.3916 13.0793C23.4595 10.9583 23.8465 8.33479 25.1608 6.42935H25.1608ZM15.3745 10.9318C15.1798 10.657 15.0462 10.3437 14.9826 10.013C14.9189 9.68235 14.9268 9.34188 15.0057 9.01448C15.1316 8.53162 15.3989 8.09737 15.7733 7.76743C16.1477 7.43748 16.6121 7.22687 17.1069 7.1626C17.3284 7.11992 17.5534 7.09867 17.7789 7.09915C18.2711 7.08168 18.7602 7.18364 19.2043 7.39632C19.6485 7.60899 20.0346 7.92605 20.3296 8.32041C21.2662 9.67828 21.5977 11.5122 21.689 13.0903C21.6785 13.4723 21.6765 13.8468 21.6829 14.2089C19.7402 13.7405 16.5334 12.6581 15.3745 10.9318ZM27.7272 16.2805V23.1622H17.3478V16.2805H27.7272ZM1.69489 16.2805H15.6528V23.1622H1.69492L1.69489 16.2805Z" fill="#48647D"/>
<path d="M44.0074 3.95312H42.3125V6.52199H44.0074V3.95312Z" fill="#48647D"/>
<path d="M44.0074 9.29297H42.3125V11.8618H44.0074V9.29297Z" fill="#48647D"/>
<path d="M47.1138 7.0625H44.5449V8.75742H47.1138V7.0625Z" fill="#48647D"/>
<path d="M41.7739 7.0625H39.2051V8.75742H41.7739V7.0625Z" fill="#48647D"/>
<path d="M4.88437 0H3.18945V2.56886H4.88437V0Z" fill="#48647D"/>
<path d="M4.88437 5.33984H3.18945V7.9087H4.88437V5.33984Z" fill="#48647D"/>
<path d="M7.99171 3.10547H5.42285V4.80038H7.99171V3.10547Z" fill="#48647D"/>
<path d="M2.65089 3.10547H0.0820312V4.80038H2.65089V3.10547Z" fill="#48647D"/>
</svg>
