<svg width="137" height="176" fill="none" xmlns="http://www.w3.org/2000/svg"><path fill-rule="evenodd" clip-rule="evenodd" d="M24.278 77.097c5.839-8.076 14.075-15.096 23.356-20.75l1.352-41.81c-2.274.435-4.856 1.243-7.744 2.361C18.5 28.453-6.023 59.702 24.278 77.098zm25.876-22.24a97.903 97.903 0 013.503-1.926l1.168-38.829c-.983-.124-2.09-.062-3.32.063l-1.351 40.691zm1.72-51.875l-.245 7.02C63.92 6.212 76.52 3.417 86.847 0 81.5 4.287 75.66 7.704 69.33 10.313l-.983 36.28c9.465-3.354 19.176-5.404 28.088-5.839 16.902-1.18 34.112 8.138 22.68 25.16-3.504 5.22-9.896 10.065-18.501 15.16-11.063 6.15-22.249 10.063-33.558 11.74l-.86 31.001c19.729-2.671 40.811-11.307 48.801-31.187 5.347-.62 8.666-1.056 9.895-1.18-13.214 23.297-32.698 36.281-58.512 38.89-.984 10.81-4.61 20.004-10.879 27.522 28.334-9.443 54.456-9.568 81.622-17.271-6.453 9.07-12.538 16.649-18.131 22.738 3.442-5.53 4.855-9.009 3.319-10.375-17.087 8.2-34.296 12.3-51.752 12.363-8.42 0-16.41.434-23.909 1.18l-.307 9.132-2.52.497.307-9.381c-.614.062-1.29.125-1.905.249-6.576.559-15.12 2.05-25.753 4.473 12.907-6.958 22.311-14.475 28.273-22.551l.553-17.209c-22.557-2.858-39.213-20.75-26.675-44.233C-9.035 73.059-2.826 43.239 18.5 26.03c8.482-6.896 19.423-11.493 30.732-15.158l.246-6.896 2.397-.994zm-1.843 55.726l-.86 26.652c1.167.062 2.335.124 3.564.124l.86-28.515c-1.229.497-2.396 1.118-3.564 1.74zm-1.106 34.914l-.984 29.82c1.23.249 2.459.435 3.688.497l.86-30.255c-1.167 0-2.397 0-3.564-.062zm-1.23 38.269l-.43 12.922c2.397-4.162 3.872-8.387 4.548-12.797-1.413 0-2.766 0-4.118-.125zm-2.212-9.008l.983-29.51c-7.56-.62-15.12-2.236-22.803-4.783-6.576 17.519 6.208 30.379 21.82 34.293zm1.229-37.71L47.51 60.2c-8.42 5.032-15.181 11.245-20.344 18.638 5.04 3.479 11.555 5.59 19.545 6.336zm21.45-33.982l-.922 33.175c4.794-.622 9.896-1.616 15.366-2.858 45.298-10.686 30.362-41.437-7.253-32.305-2.458.621-4.855 1.305-7.19 1.988z" fill="#000"/></svg>