<svg width="17" height="18" fill="none" xmlns="http://www.w3.org/2000/svg"><path d="M14.58.488H2.42C1.045.488 0 1.534 0 2.908v12.161c0 1.373 1.046 2.42 2.42 2.42h12.16c1.374 0 2.42-1.047 2.42-2.42V2.908c0-1.374-1.046-2.42-2.42-2.42zm-6.08 13.6c2.812 0 5.1-2.223 5.1-4.904 0-.457-.065-.98-.196-1.373h1.438v6.931a.655.655 0 01-.654.654H2.813a.655.655 0 01-.654-.654V7.746h1.504a4.97 4.97 0 00-.197 1.373c-.065 2.746 2.223 4.97 5.035 4.97zm0-1.961c-1.83 0-3.27-1.439-3.27-3.204 0-1.765 1.44-3.204 3.27-3.204s3.27 1.439 3.27 3.204c0 1.83-1.44 3.204-3.27 3.204zm6.277-6.996a.726.726 0 01-.72.719h-1.83a.726.726 0 01-.72-.72V3.366c0-.392.328-.719.72-.719h1.83c.393 0 .72.327.72.72V5.13z" fill="#fff"/></svg>