<svg width="76" height="76" fill="none" xmlns="http://www.w3.org/2000/svg"><path d="M38 0C17.013 0 0 17.013 0 38s17.013 38 38 38 38-17.013 38-38C75.978 17.023 58.977.022 38 0zm0 70.571C20.01 70.571 5.429 55.99 5.429 38c0-17.989 14.582-32.571 32.57-32.571 17.99 0 32.572 14.582 32.572 32.57-.02 17.982-14.59 32.553-32.571 32.572z" fill="#00A6FF"/><path d="M54.003 36.788a2.715 2.715 0 00-1.218-1.218L31.07 24.713a2.714 2.714 0 00-3.927 2.429v21.714a2.714 2.714 0 003.927 2.43l21.715-10.858a2.714 2.714 0 001.218-3.64zm-21.432 7.677V31.534l12.931 6.465-12.93 6.466z" fill="#00A6FF"/></svg>