<svg width="137" height="151" fill="none" xmlns="http://www.w3.org/2000/svg"><path d="M68.308 13.72c3.811 0 6.91-3.078 6.91-6.86 0-3.782-3.099-6.86-6.91-6.86-3.81 0-6.91 3.076-6.91 6.86 0 3.783 3.1 6.86 6.91 6.86zm0-11.323c2.49 0 4.514 2.001 4.514 4.463 0 2.461-2.024 4.463-4.514 4.463-2.489 0-4.513-2.002-4.513-4.463 0-2.462 2.024-4.463 4.513-4.463zm68.062 84.402a1.194 1.194 0 00-.95-.469h-4.735l-8.149-39.618c3.72-1.154 7.481-3.332 11.242-6.547a4.044 4.044 0 001.411-2.972 4.09 4.09 0 00-1.28-3.067 4.111 4.111 0 00-5.523-.1c-4.572 3.947-8.832 5.831-12.645 5.578-4.199-.274-7.62-3.13-11.953-6.75-5.328-4.447-11.96-9.983-22.734-12.922-.263-.072-.531-.127-.796-.194l1.824-2.21a1.198 1.198 0 00-.924-1.962H55.457a1.2 1.2 0 00-.924 1.962l1.824 2.21c-.264.067-.532.123-.794.194-10.777 2.939-17.406 8.475-22.738 12.926-4.33 3.617-7.75 6.473-11.948 6.746-3.818.246-8.074-1.63-12.647-5.577-1.613-1.393-3.987-1.349-5.521.1a4.084 4.084 0 00-1.281 3.066 4.043 4.043 0 001.41 2.972c3.762 3.215 7.523 5.394 11.243 6.547L5.93 86.33H1.198A1.199 1.199 0 00.04 87.84c1.752 6.546 6.645 11.625 12.81 13.832v48.129a1.199 1.199 0 001.565 1.141c17.314-5.559 36.208-5.56 53.527 0 .029.009.059.01.089.016.046.011.091.022.138.028.046.006.092.006.139.006.047 0 .093 0 .14-.006.047-.006.091-.016.138-.027.03-.007.06-.008.09-.017 17.32-5.56 36.213-5.559 53.527 0a1.198 1.198 0 001.565-1.141v-48.129c6.163-2.207 11.058-7.286 12.81-13.833.094-.36.018-.744-.209-1.04zm-8.132-.469H105.48l8.112-38.862c.519.077 1.045.142 1.59.177.414.027.827.04 1.242.04 1.253 0 2.517-.145 3.784-.39l8.03 39.035zM25.368 46.968c4.958-1.39 8.835-4.62 12.89-8.006 4.949-4.134 10.56-8.818 19.56-11.272a44.036 44.036 0 013.606-.806l-.025 27.801a56.607 56.607 0 00-20.221-3.736c-4.905 0-9.802.651-14.579 1.92l-1.23-5.9zm31.287 8.636a54.67 54.67 0 0110.455 4.328v40.287l-4.382-4.354a1.196 1.196 0 00-1.689 0l-4.382 4.354V55.604h-.002zm11.654 2.254a56.193 56.193 0 00-4.513-2.205l.023-26.875 3.566 4.319a1.199 1.199 0 001.848 0l3.565-4.32.024 26.876a56.193 56.193 0 00-4.513 2.205zm6.909-3.174l-.026-27.801c1.213.224 2.423.482 3.607.805 9 2.455 14.61 7.14 19.56 11.273 4.054 3.385 7.931 6.616 12.889 8.006l-1.231 5.899a56.817 56.817 0 00-14.578-1.919 56.626 56.626 0 00-20.221 3.737zm5.206-32.439c10.271 2.8 16.68 8.152 21.831 12.453 4.665 3.896 8.351 6.973 13.331 7.298 4.473.287 9.302-1.784 14.366-6.156a1.72 1.72 0 012.312.03c.348.326.54.787.528 1.264a1.622 1.622 0 01-.573 1.208c-5.775 4.937-11.453 7.253-16.882 6.91-6.191-.404-10.685-4.157-15.443-8.13-5.139-4.291-10.962-9.154-20.466-11.747a47.45 47.45 0 00-3.212-.741l2.349-2.845c.623.146 1.245.288 1.859.456zm-1.806-4.282l-10.31 12.488L58 17.963h20.618zM3.825 37.134a1.682 1.682 0 01.528-1.264 1.724 1.724 0 012.312-.029c5.065 4.372 9.908 6.438 14.366 6.156 4.98-.324 8.665-3.402 13.333-7.3 5.148-4.299 11.557-9.65 21.829-12.45.613-.168 1.235-.311 1.857-.456l2.35 2.845a46.62 46.62 0 00-3.212.742c-9.505 2.592-15.328 7.455-20.467 11.745-4.758 3.974-9.252 7.728-15.443 8.132-5.437.345-11.108-1.974-16.882-6.91a1.63 1.63 0 01-.571-1.21zm12.584 10.16c1.268.246 2.531.391 3.785.391.414 0 .828-.013 1.241-.04a18.71 18.71 0 001.59-.177l8.113 38.862H8.38l8.03-39.036zM2.832 88.727H36.69c-2.559 6.994-9.307 11.757-16.928 11.757-7.622 0-14.37-4.762-16.929-11.757zM19.76 102.88c9.24 0 17.35-6.185 19.72-15.04a1.199 1.199 0 00-1.157-1.51h-4.737l-6.495-31.114a54.416 54.416 0 0114.088-1.87 54.1 54.1 0 0113.08 1.603v48.147a1.198 1.198 0 002.044.85l5.581-5.544 5.226 5.194v33.255c-16.825-5.065-35.04-5.065-51.862 0v-34.487a20.55 20.55 0 004.512.516zm-4.512 45.293v-8.802c16.808-5.21 35.05-5.21 51.862 0v3.167c-10.718-3.227-21.983-4.457-33.167-3.552a1.199 1.199 0 00.192 2.39 87.698 87.698 0 0132.975 3.661v3.136c-16.828-5.066-35.038-5.066-51.862 0zm54.26 0v-3.136a87.678 87.678 0 0132.975-3.661 1.201 1.201 0 001.29-1.099 1.197 1.197 0 00-1.099-1.291c-11.182-.903-22.448.325-33.167 3.552v-3.167c16.813-5.21 35.056-5.21 51.863 0v8.802c-16.824-5.067-35.035-5.067-51.863 0zm51.862-11.322c-16.822-5.066-35.037-5.066-51.863 0v-76.92c5.677-3.083 14.618-6.586 25.931-6.586 4.74 0 9.473.635 14.089 1.87l-6.495 31.115h-4.738a1.2 1.2 0 00-1.156 1.51c2.37 8.855 10.48 15.04 19.72 15.04 1.544 0 3.052-.187 4.513-.516v34.487h-.001zm-4.512-36.367c-7.621 0-14.369-4.762-16.928-11.757h33.856c-2.561 6.995-9.308 11.757-16.928 11.757z" fill="#000"/></svg>