<svg width="22" height="24" fill="none" xmlns="http://www.w3.org/2000/svg"><path d="M16.614 1.23a30.46 30.46 0 00-11.386 0c-1.657.358-3.747 2.361-4.107 3.936a22.482 22.482 0 000 9.302c.433 1.574 2.522 3.578 4.107 3.936.073 0 .145.071.145.143v4.508c0 .215.288.358.432.143l2.162-2.218s1.73-1.79 2.017-2.075c0 0 .072-.072.145-.072 2.161.072 4.395-.143 6.557-.5 1.657-.359 3.747-2.362 4.107-3.936a22.483 22.483 0 000-9.303c-.432-1.503-2.522-3.506-4.18-3.864zm.072 13.453c-.36.715-.793 1.288-1.514 1.646l-.648.214c-.288-.071-.504-.143-.72-.214-2.306-.93-4.468-2.219-6.198-4.08a17.207 17.207 0 01-2.378-3.577c-.288-.644-.576-1.217-.792-1.86-.216-.573.144-1.145.504-1.575.36-.43.793-.715 1.297-.93.36-.215.72-.072 1.01.215.576.715 1.152 1.43 1.584 2.218.289.5.217 1.073-.288 1.431-.144.072-.216.143-.36.286-.072.072-.216.143-.288.287-.144.214-.144.429-.072.644.576 1.645 1.657 2.933 3.314 3.649.288.143.505.215.865.215.504-.072.72-.644 1.08-.93.361-.287.793-.287 1.226-.072.36.214.72.5 1.153.787.36.286.72.5 1.08.787.217.143.289.501.145.859zm-3.027-5.367c-.144 0-.072 0 0 0-.288 0-.36-.143-.432-.358 0-.143 0-.358-.072-.5a1.36 1.36 0 00-.505-.788l-.432-.215c-.216-.071-.36-.071-.576-.071-.216-.072-.289-.215-.289-.43 0-.143.217-.286.36-.286 1.154.072 2.018.716 2.163 2.076v.286c0 .143-.073.286-.217.286zm-.72-3.149c-.36-.143-.72-.286-1.153-.357-.144 0-.36-.072-.505-.072-.216 0-.36-.143-.288-.358 0-.214.144-.357.36-.286.721.072 1.37.215 2.018.501 1.297.644 2.018 1.717 2.234 3.149v.93c-.072.286-.577.358-.649 0 0-.072-.072-.215-.072-.286a4.15 4.15 0 00-.432-1.86c-.432-.645-.937-1.074-1.513-1.36zm3.89 4.294c-.215 0-.36-.215-.36-.43 0-.429-.072-.858-.143-1.287-.289-2.29-2.162-4.15-4.396-4.509-.36-.071-.72-.071-1.009-.143-.216 0-.504 0-.576-.286-.072-.215.144-.43.36-.43h.144c2.954.072.144 0 0 0 3.027.072 5.549 2.076 6.053 5.081.072.501.144 1.002.144 1.575.144.214 0 .429-.216.429z" fill="#fff"/></svg>