<svg width="17" height="18" fill="none" xmlns="http://www.w3.org/2000/svg"><path d="M14.429 2.688A8.375 8.375 0 008.494.228C3.85.229.09 3.977.09 8.604a8.46 8.46 0 001.117 4.158L.03 17.094l4.466-1.17a8.592 8.592 0 003.997.995c4.642 0 8.403-3.748 8.403-8.375-.059-2.166-.881-4.275-2.468-5.856zm-1.88 8.901c-.177.469-1 .938-1.411.996a3.297 3.297 0 01-1.293-.059c-.294-.117-.705-.234-1.175-.468-2.116-.878-3.467-2.987-3.585-3.162-.117-.117-.881-1.113-.881-2.167 0-1.054.529-1.523.705-1.757.176-.234.411-.234.587-.234h.412c.117 0 .294-.059.47.351s.588 1.464.646 1.523a.372.372 0 010 .351 1.225 1.225 0 01-.235.351c-.117.118-.235.293-.293.352-.118.117-.236.234-.118.41.117.234.529.878 1.175 1.464.823.703 1.47.937 1.705 1.054.235.117.352.059.47-.059.117-.117.529-.585.646-.82.118-.234.294-.175.47-.117.177.059 1.234.586 1.41.703.236.117.353.176.412.234.059.176.059.586-.118 1.054z" fill="#fff"/></svg>