<svg width="26" height="19" fill="none" xmlns="http://www.w3.org/2000/svg"><path d="M25.199 7.478c0-.543-.09-1.177-.09-1.9-.091-.725-.182-1.449-.272-2.082-.181-.724-.453-1.267-.996-1.72-.452-.452-1.086-.724-1.72-.814C20.04.69 16.964.6 12.8.6S5.469.69 3.478.962c-.634.09-1.268.362-1.72.814-.453.453-.815.996-.996 1.72-.18.633-.271 1.267-.271 2.081C.4 6.301.4 6.935.4 7.478v4.163c0 .543.09 1.177.09 1.9.09.725.18 1.449.271 2.082.181.725.453 1.268.996 1.72.452.453 1.086.724 1.72.815 2.081.271 5.158.362 9.322.362 4.163 0 7.33-.09 9.322-.362.633-.09 1.267-.362 1.72-.815.452-.453.814-.995.995-1.72.18-.633.271-1.267.271-2.081.09-.724.09-1.358.09-1.9V7.478zm-7.603 2.806l-7.15 4.434a.692.692 0 01-.452.181c-.181 0-.272 0-.453-.09-.271-.181-.452-.453-.452-.815v-8.96c0-.362.18-.633.452-.814a.822.822 0 01.905 0l7.15 4.435c.272.18.453.452.453.724 0 .271-.181.724-.453.905z" fill="#fff"/></svg>