<svg width="137" height="176" viewBox="0 0 137 176" fill="none" xmlns="http://www.w3.org/2000/svg">
<path fill-rule="evenodd" clip-rule="evenodd" d="M24.278 77.0971C30.117 69.0208 38.3529 62.0007 47.6338 56.3473L48.9859 14.5372C46.7118 14.9721 44.1304 15.7797 41.2417 16.898C18.5005 28.4532 -6.02302 59.7021 24.278 77.0971ZM50.1537 54.8563C51.3215 54.173 52.4893 53.5517 53.6571 52.9305L54.8249 14.1024C53.8415 13.9781 52.7352 14.0402 51.5059 14.1645L50.1537 54.8563ZM51.8747 2.982L51.6288 10.0021C63.9213 6.2125 76.5212 3.41687 86.8469 0C81.4996 4.28662 75.6607 7.7035 69.3301 10.3127L68.3466 46.5937C77.8119 43.239 87.523 41.1888 96.435 40.754C113.337 39.5736 130.547 48.8923 119.115 65.9146C115.611 71.1331 109.219 75.9788 100.614 81.0731C89.5512 87.2234 78.365 91.1373 67.0559 92.8147L66.1955 123.815C85.9249 121.144 107.007 112.508 114.997 92.6283C120.344 92.0071 123.663 91.5722 124.892 91.4479C111.678 114.745 92.1941 127.729 66.3798 130.338C65.3964 141.148 61.7702 150.342 55.501 157.86C83.8352 148.417 109.957 148.292 137.123 140.589C130.67 149.659 124.585 157.238 118.992 163.327C122.434 157.797 123.847 154.318 122.311 152.952C105.224 161.152 88.0147 165.252 70.5593 165.315C62.1389 165.315 54.1488 165.749 46.6504 166.495L46.3431 175.627L43.8231 176.124L44.1304 166.743C43.5158 166.805 42.8397 166.868 42.2251 166.992C35.6486 167.551 27.1053 169.042 16.4723 171.465C29.3794 164.507 38.7832 156.99 44.745 148.914L45.2982 131.705C22.7414 128.847 6.0851 110.955 18.6235 87.4719C-9.03469 73.059 -2.82697 43.239 18.5005 26.0304C26.9824 19.1345 37.9227 14.5372 49.2318 10.8719L49.4776 3.976L51.8747 2.982ZM50.0308 58.7081L49.1703 85.3597C50.3381 85.4218 51.5059 85.4839 52.7352 85.4839L53.5956 56.9686C52.3664 57.4656 51.1986 58.0868 50.0308 58.7081ZM48.9245 93.6223L47.9411 123.442C49.1703 123.691 50.3996 123.877 51.6288 123.939L52.4893 93.6844C51.3215 93.6844 50.0923 93.6844 48.9245 93.6223ZM47.6952 131.891L47.265 144.813C49.662 140.651 51.1371 136.426 51.8132 132.016C50.3996 132.016 49.0474 132.016 47.6952 131.891ZM45.4826 122.883L46.466 93.3738C38.9061 92.7526 31.3462 91.1373 23.6634 88.5902C17.0869 106.109 29.8711 118.969 45.4826 122.883ZM46.7118 85.1733L47.5108 60.1991C39.0905 65.2312 32.3296 71.4437 27.1667 78.8366C32.2067 82.3156 38.7217 84.4278 46.7118 85.1733ZM68.1623 51.191L67.2403 84.3657C72.0344 83.7444 77.1358 82.7504 82.606 81.5079C127.904 70.8224 112.968 40.0706 75.3534 49.203C72.8949 49.8242 70.4978 50.5076 68.1623 51.191Z" fill="black"/>
</svg>
