<svg width="197" height="140" viewBox="0 0 197 140" fill="none" xmlns="http://www.w3.org/2000/svg">
<g clip-path="url(#clip0_632_6)">
<path fill-rule="evenodd" clip-rule="evenodd" d="M86.168 21.9803C87.8378 19.6778 90.1931 17.6763 92.8473 16.0646L93.234 4.14455C92.5836 4.26854 91.8454 4.49879 91.0193 4.8176C84.5157 8.11199 77.5024 17.021 86.168 21.9803ZM93.568 15.6395C93.9019 15.4447 94.2359 15.2675 94.5699 15.0904L94.9038 4.02057C94.6226 3.98515 94.3062 4.00286 93.9547 4.03828L93.568 15.6395ZM94.0601 0.850165L93.9898 2.8516C97.5053 1.77118 101.109 0.974147 104.062 0C102.532 1.22211 100.863 2.19626 99.0521 2.94015L98.7708 13.2838C101.478 12.3274 104.255 11.7429 106.804 11.6189C111.637 11.2824 116.559 13.9392 113.29 18.7922C112.288 20.28 110.46 21.6615 107.999 23.1139C104.835 24.8673 101.636 25.9832 98.4017 26.4614L98.1556 35.2996C103.798 34.538 109.827 32.076 112.112 26.4083C113.641 26.2311 114.59 26.1071 114.942 26.0717C111.163 32.7136 105.591 36.4154 98.2084 37.1593C97.9271 40.2411 96.8901 42.8625 95.0972 45.0056C103.2 42.3134 110.671 42.278 118.44 40.0817C116.594 42.6677 114.854 44.8285 113.254 46.5642C114.239 44.9879 114.643 43.996 114.204 43.6064C109.317 45.9443 104.396 47.1133 99.4036 47.131C96.9955 47.131 94.7105 47.255 92.5661 47.4675L92.4782 50.0712L91.7575 50.2129L91.8454 47.5384C91.6696 47.5561 91.4763 47.5738 91.3005 47.6092C89.4197 47.7686 86.9765 48.1937 83.9356 48.8845C87.6269 46.9008 90.3162 44.7576 92.0212 42.4551L92.1794 37.549C85.7285 36.7342 80.9651 31.6332 84.5508 24.9382C76.6411 20.829 78.4164 12.3274 84.5157 7.42123C86.9413 5.45523 90.0701 4.14455 93.3043 3.09956L93.3746 1.13355L94.0601 0.850165ZM93.5328 16.7376L93.2867 24.336C93.6207 24.3537 93.9547 24.3714 94.3062 24.3714L94.5523 16.2417C94.2007 16.3834 93.8668 16.5605 93.5328 16.7376ZM93.2164 26.6916L92.9352 35.1933C93.2867 35.2641 93.6383 35.3173 93.9898 35.335L94.2359 26.7094C93.9019 26.7094 93.5504 26.7093 93.2164 26.6916ZM92.8649 37.6021L92.7418 41.2861C93.4273 40.0994 93.8492 38.895 94.0426 37.6375C93.6383 37.6375 93.2516 37.6375 92.8649 37.6021ZM92.2321 35.0339L92.5133 26.6208C90.3513 26.4437 88.1893 25.9832 85.9922 25.257C84.1114 30.2517 87.7675 33.918 92.2321 35.0339ZM92.5836 24.2828L92.8121 17.1627C90.4041 18.5974 88.4706 20.3685 86.9941 22.4762C88.4354 23.4681 90.2986 24.0703 92.5836 24.2828ZM98.7181 14.5945L98.4544 24.0526C99.8255 23.8755 101.284 23.5921 102.849 23.2378C115.803 20.1914 111.532 11.4241 100.775 14.0277C100.072 14.2048 99.386 14.3997 98.7181 14.5945Z" fill="black"/>
</g>
<path d="M10.3733 66.5902V67.2473C9.62867 67.2692 9.05923 67.3568 8.66501 67.5101C8.29268 67.6415 8.04082 67.9043 7.90941 68.2985C7.778 68.6709 7.71229 69.2622 7.71229 70.0726V86.3673C7.71229 87.1557 7.778 87.7471 7.90941 88.1413C8.04082 88.5355 8.29268 88.7983 8.66501 88.9297C9.05923 89.0393 9.62867 89.094 10.3733 89.094H12.7715C13.8009 89.094 14.6332 88.9845 15.2683 88.7655C15.9254 88.5465 16.44 88.207 16.8124 87.7471C17.2066 87.2652 17.5023 86.6301 17.6994 85.8416C17.8965 85.0532 18.0498 84.0895 18.1593 82.9506H18.9149C18.8492 83.6296 18.8163 84.5275 18.8163 85.6445C18.8163 86.0607 18.8273 86.6629 18.8492 87.4514C18.893 88.2179 18.9587 89.0174 19.0463 89.8496C17.9293 89.8058 16.67 89.7839 15.2683 89.7839C13.8666 89.762 12.6182 89.7511 11.5232 89.7511C11.0413 89.7511 10.4171 89.7511 9.65057 89.7511C8.90592 89.7511 8.09557 89.762 7.21951 89.7839C6.34345 89.7839 5.45644 89.7949 4.55848 89.8168C3.66052 89.8168 2.80636 89.8277 1.996 89.8496V89.1926C2.74066 89.1488 3.29914 89.0612 3.67147 88.9297C4.0657 88.7983 4.32851 88.5355 4.45992 88.1413C4.59133 87.7471 4.65704 87.1557 4.65704 86.3673V70.0726C4.65704 69.2622 4.59133 68.6709 4.45992 68.2985C4.32851 67.9043 4.0657 67.6415 3.67147 67.5101C3.29914 67.3568 2.74066 67.2692 1.996 67.2473V66.5902C2.45594 66.6121 3.05823 66.634 3.80288 66.6559C4.54753 66.6778 5.34693 66.6888 6.20109 66.6888C6.96764 66.6888 7.72324 66.6778 8.46789 66.6559C9.23445 66.634 9.86959 66.6121 10.3733 66.5902ZM28.8655 72.4708C30.7929 72.4708 32.2931 73.0621 33.3663 74.2448C34.4614 75.4056 35.0089 77.2234 35.0089 79.6983H23.4121L23.3792 79.0741H31.8551C31.8989 78.0009 31.8113 77.0153 31.5923 76.1174C31.3733 75.1975 31.0228 74.4638 30.541 73.9163C30.0811 73.3687 29.4788 73.095 28.7341 73.095C27.7267 73.095 26.8287 73.5987 26.0402 74.6062C25.2737 75.6136 24.8138 77.2125 24.6605 79.4026L24.759 79.534C24.7152 79.8625 24.6824 80.2239 24.6605 80.6181C24.6385 81.0124 24.6276 81.4066 24.6276 81.8008C24.6276 83.2901 24.8685 84.5714 25.3503 85.6445C25.8322 86.7177 26.4564 87.539 27.2229 88.1084C28.0114 88.656 28.8217 88.9297 29.654 88.9297C30.311 88.9297 30.9352 88.8312 31.5266 88.6341C32.1179 88.4151 32.6654 88.0646 33.1692 87.5828C33.6729 87.101 34.1109 86.4549 34.4833 85.6445L35.1403 85.9073C34.8994 86.6301 34.5052 87.3309 33.9576 88.0099C33.4101 88.6888 32.7202 89.2473 31.8879 89.6853C31.0557 90.1015 30.092 90.3095 28.9969 90.3095C27.42 90.3095 26.0621 89.9482 24.9233 89.2254C23.8063 88.5027 22.9412 87.5062 22.3279 86.2359C21.7366 84.9437 21.4409 83.4653 21.4409 81.8008C21.4409 79.8735 21.7476 78.2199 22.3608 76.8401C22.974 75.4384 23.8391 74.3653 24.9561 73.6206C26.0731 72.8541 27.3762 72.4708 28.8655 72.4708ZM43.5459 96.0258C42.3851 96.0258 41.29 95.9054 40.2606 95.6645C39.2313 95.4235 38.399 95.0403 37.7639 94.5146C37.1506 94.0109 36.844 93.3648 36.844 92.5763C36.844 91.8098 37.1506 91.1527 37.7639 90.6052C38.3771 90.0577 39.2094 89.6415 40.2606 89.3568L40.4578 89.8825C39.9759 90.0358 39.5926 90.3424 39.3079 90.8023C39.0232 91.2623 38.8808 91.7769 38.8808 92.3464C38.8808 93.3538 39.3408 94.1204 40.2606 94.646C41.2024 95.1936 42.4179 95.4673 43.9072 95.4673C44.8928 95.4673 45.8565 95.3359 46.7982 95.0731C47.74 94.8322 48.5175 94.4161 49.1307 93.8247C49.744 93.2334 50.0506 92.4559 50.0506 91.4922C50.0506 90.7695 49.7878 90.1781 49.2622 89.7182C48.7584 89.2364 47.751 88.9955 46.2397 88.9955H43.8087C43.1078 88.9955 42.4289 88.9407 41.7718 88.8312C41.1148 88.7217 40.5782 88.4917 40.1621 88.1413C39.746 87.7909 39.5379 87.2543 39.5379 86.5315C39.5379 85.7869 39.8445 85.0751 40.4578 84.3961C41.071 83.6953 42.1989 82.9835 43.8415 82.2607L44.2358 82.5564C43.4911 82.9506 42.845 83.3558 42.2975 83.7719C41.7499 84.1662 41.4762 84.6371 41.4762 85.1846C41.4762 85.8854 42.0018 86.2359 43.0531 86.2359H47.1596C48.0795 86.2359 48.9227 86.3673 49.6892 86.6301C50.4777 86.8929 51.1128 87.309 51.5947 87.8785C52.0765 88.4479 52.3174 89.1926 52.3174 90.1124C52.3174 91.1418 51.9889 92.1055 51.3318 93.0034C50.6748 93.9014 49.6892 94.6241 48.3751 95.1717C47.083 95.7411 45.4732 96.0258 43.5459 96.0258ZM43.7101 82.8521C42.637 82.8521 41.6623 82.6769 40.7863 82.3264C39.9102 81.9541 39.2203 81.3847 38.7166 80.6181C38.2129 79.8516 37.961 78.866 37.961 77.6614C37.961 76.4568 38.2129 75.4713 38.7166 74.7047C39.2203 73.9382 39.9102 73.3797 40.7863 73.0293C41.6623 72.6569 42.637 72.4708 43.7101 72.4708C44.8052 72.4708 45.7798 72.6569 46.634 73.0293C47.51 73.3797 48.1999 73.9382 48.7037 74.7047C49.2074 75.4713 49.4593 76.4568 49.4593 77.6614C49.4593 78.866 49.2074 79.8516 48.7037 80.6181C48.1999 81.3847 47.51 81.9541 46.634 82.3264C45.7798 82.6769 44.8052 82.8521 43.7101 82.8521ZM43.7101 82.2607C44.5424 82.2607 45.1885 81.9322 45.6484 81.2752C46.1302 80.6181 46.3712 79.4136 46.3712 77.6614C46.3712 75.9093 46.1302 74.7047 45.6484 74.0477C45.1885 73.3906 44.5424 73.0621 43.7101 73.0621C42.8998 73.0621 42.2537 73.3906 41.7718 74.0477C41.29 74.7047 41.0491 75.9093 41.0491 77.6614C41.0491 79.4136 41.29 80.6181 41.7718 81.2752C42.2537 81.9322 42.8998 82.2607 43.7101 82.2607ZM48.4408 75.1975L47.8495 74.9675C48.1561 74.2229 48.6818 73.5659 49.4264 72.9964C50.1711 72.427 50.9486 72.1423 51.7589 72.1423C52.3284 72.1423 52.7883 72.3065 53.1387 72.635C53.4891 72.9417 53.6644 73.4125 53.6644 74.0477C53.6644 74.7266 53.4782 75.2085 53.1059 75.4932C52.7554 75.756 52.3941 75.8874 52.0217 75.8874C51.6932 75.8874 51.3866 75.7779 51.1019 75.5589C50.8172 75.318 50.6529 74.9456 50.6091 74.4419C50.5653 73.9382 50.7186 73.2921 51.069 72.5036L51.4961 72.6022C50.5762 72.9526 49.9192 73.3249 49.525 73.7192C49.1307 74.0915 48.7694 74.5843 48.4408 75.1975ZM59.2017 90.0796C58.3038 90.0796 57.5263 89.9153 56.8692 89.5868C56.2122 89.2364 55.7085 88.7545 55.358 88.1413C55.0295 87.5281 54.8653 86.8163 54.8653 86.0059C54.8653 85.0422 55.0843 84.2538 55.5223 83.6405C55.9822 83.0273 56.5626 82.5345 57.2635 82.1622C57.9643 81.7899 58.698 81.4832 59.4646 81.2423C60.253 80.9795 60.9977 80.7386 61.6985 80.5196C62.3994 80.2787 62.9688 80.0049 63.4068 79.6983C63.8668 79.3916 64.0967 78.9865 64.0967 78.4827V76.4459C64.0967 75.526 63.9544 74.8252 63.6696 74.3434C63.4068 73.8615 63.0455 73.544 62.5855 73.3906C62.1256 73.2154 61.6109 73.1278 61.0415 73.1278C60.4939 73.1278 59.9026 73.2045 59.2675 73.3578C58.6542 73.5111 58.1614 73.8287 57.7891 74.3105C58.2052 74.3981 58.5666 74.6171 58.8732 74.9675C59.1798 75.318 59.3332 75.767 59.3332 76.3145C59.3332 76.862 59.1579 77.3001 58.8075 77.6286C58.4571 77.9352 58.0081 78.0885 57.4606 78.0885C56.8254 78.0885 56.3546 77.8914 56.0479 77.4972C55.7632 77.081 55.6209 76.6211 55.6209 76.1174C55.6209 75.5479 55.7632 75.088 56.0479 74.7376C56.3327 74.3872 56.694 74.0586 57.1321 73.752C57.6358 73.4016 58.2819 73.1059 59.0703 72.865C59.8807 72.6022 60.7896 72.4708 61.7971 72.4708C62.695 72.4708 63.4616 72.5803 64.0967 72.7993C64.7319 72.9964 65.2575 73.2921 65.6736 73.6863C66.2431 74.2119 66.6154 74.858 66.7906 75.6246C66.9658 76.3692 67.0534 77.2672 67.0534 78.3185V87.4514C67.0534 87.9989 67.1301 88.3932 67.2834 88.6341C67.4586 88.875 67.7214 88.9955 68.0718 88.9955C68.3128 88.9955 68.5427 88.9407 68.7617 88.8312C68.9808 88.7217 69.2436 88.5465 69.5502 88.3056L69.9116 88.864C69.4516 89.2145 69.0136 89.5101 68.5975 89.7511C68.1814 89.9701 67.6229 90.0796 66.922 90.0796C66.2869 90.0796 65.7612 89.9701 65.3451 89.7511C64.929 89.532 64.6114 89.2145 64.3924 88.7983C64.1953 88.3603 64.0967 87.8128 64.0967 87.1557C63.5054 88.1413 62.7936 88.875 61.9613 89.3568C61.151 89.8387 60.2311 90.0796 59.2017 90.0796ZM60.3844 88.7655C61.1072 88.7655 61.7752 88.5574 62.3884 88.1413C63.0236 87.7252 63.593 87.101 64.0967 86.2687V79.8297C63.8339 80.202 63.4506 80.5196 62.9469 80.7824C62.4432 81.0233 61.8956 81.2752 61.3043 81.538C60.7129 81.7789 60.1435 82.0746 59.596 82.425C59.0703 82.7535 58.6323 83.1916 58.2819 83.7391C57.9315 84.2866 57.7562 84.9984 57.7562 85.8745C57.7562 86.7505 57.9862 87.4514 58.4461 87.977C58.928 88.5027 59.5741 88.7655 60.3844 88.7655ZM76.1222 64.0935V86.7944C76.1222 87.7142 76.3084 88.3384 76.6807 88.6669C77.0749 88.9955 77.721 89.1597 78.619 89.1597V89.8496C78.2466 89.8277 77.6772 89.8058 76.9106 89.7839C76.166 89.7401 75.4104 89.7182 74.6438 89.7182C73.8992 89.7182 73.1436 89.7401 72.377 89.7839C71.6105 89.8058 71.041 89.8277 70.6687 89.8496V89.1597C71.5667 89.1597 72.2018 88.9955 72.5741 88.6669C72.9684 88.3384 73.1655 87.7142 73.1655 86.7944V68.0357C73.1655 67.0502 72.9903 66.3274 72.6399 65.8675C72.2894 65.3856 71.6324 65.1447 70.6687 65.1447V64.4548C71.3696 64.5205 72.0485 64.5534 72.7056 64.5534C73.3407 64.5534 73.943 64.5205 74.5124 64.4548C75.1038 64.3672 75.6404 64.2468 76.1222 64.0935ZM105.3 66.5902C105.212 67.3568 105.147 68.1014 105.103 68.8242C105.081 69.5469 105.07 70.0945 105.07 70.4668C105.07 70.861 105.081 71.2443 105.103 71.6166C105.125 71.967 105.147 72.2627 105.169 72.5036H104.413C104.282 71.2114 104.096 70.193 103.855 69.4484C103.614 68.6818 103.198 68.1452 102.606 67.8386C102.037 67.5101 101.172 67.3458 100.011 67.3458H97.2842C96.5395 67.3458 95.9701 67.4115 95.5758 67.5429C95.2035 67.6525 94.9516 67.9043 94.8202 68.2985C94.6888 68.6709 94.6231 69.2622 94.6231 70.0726V86.3673C94.6231 87.1557 94.6888 87.7471 94.8202 88.1413C94.9516 88.5355 95.2035 88.7983 95.5758 88.9297C95.9701 89.0393 96.5395 89.094 97.2842 89.094H99.6824C101.062 89.094 102.102 88.9078 102.803 88.5355C103.526 88.1632 104.041 87.5609 104.347 86.7286C104.676 85.8745 104.917 84.7247 105.07 83.2792H105.826C105.76 83.8705 105.727 84.659 105.727 85.6445C105.727 86.0607 105.738 86.6629 105.76 87.4514C105.804 88.2179 105.87 89.0174 105.957 89.8496C104.84 89.8058 103.581 89.7839 102.179 89.7839C100.777 89.762 99.5291 89.7511 98.434 89.7511C97.9521 89.7511 97.328 89.7511 96.5614 89.7511C95.8168 89.7511 95.0064 89.762 94.1303 89.7839C93.2543 89.7839 92.3673 89.7949 91.4693 89.8168C90.5713 89.8168 89.7172 89.8277 88.9068 89.8496V89.1926C89.6515 89.1488 90.21 89.0612 90.5823 88.9297C90.9765 88.7983 91.2393 88.5355 91.3707 88.1413C91.5022 87.7471 91.5679 87.1557 91.5679 86.3673V70.0726C91.5679 69.2622 91.5022 68.6709 91.3707 68.2985C91.2393 67.9043 90.9765 67.6415 90.5823 67.5101C90.21 67.3568 89.6515 67.2692 88.9068 67.2473V66.5902C89.7172 66.6121 90.5713 66.634 91.4693 66.6559C92.3673 66.6559 93.2543 66.6669 94.1303 66.6888C95.0064 66.6888 95.8168 66.6888 96.5614 66.6888C97.328 66.6888 97.9521 66.6888 98.434 66.6888C99.4414 66.6888 100.58 66.6888 101.851 66.6888C103.143 66.6669 104.293 66.634 105.3 66.5902ZM99.6495 77.8257C99.6495 77.8257 99.6495 77.9352 99.6495 78.1542C99.6495 78.3732 99.6495 78.4827 99.6495 78.4827H93.6376C93.6376 78.4827 93.6376 78.3732 93.6376 78.1542C93.6376 77.9352 93.6376 77.8257 93.6376 77.8257H99.6495ZM100.602 73.4892C100.515 74.7376 100.471 75.6903 100.471 76.3473C100.493 77.0044 100.504 77.6067 100.504 78.1542C100.504 78.7018 100.515 79.304 100.537 79.9611C100.558 80.6181 100.613 81.5708 100.701 82.8192H99.9452C99.8576 82.1184 99.7481 81.4394 99.6167 80.7824C99.5072 80.1034 99.2443 79.5559 98.8282 79.1398C98.434 78.7018 97.755 78.4827 96.7914 78.4827V77.8257C97.5141 77.8257 98.0617 77.6833 98.434 77.3986C98.8282 77.092 99.1129 76.7087 99.2881 76.2488C99.4633 75.7889 99.5838 75.318 99.6495 74.8361C99.7152 74.3324 99.7809 73.8834 99.8466 73.4892H100.602ZM114.511 72.9307V73.6206C114.095 73.6206 113.744 73.7192 113.46 73.9163C113.175 74.1134 113.142 74.3872 113.361 74.7376L122.133 87.5171C122.505 88.0646 122.834 88.4589 123.118 88.6998C123.403 88.9188 123.753 89.0721 124.17 89.1597V89.8496C123.951 89.8277 123.611 89.8058 123.151 89.7839C122.713 89.7401 122.275 89.7182 121.837 89.7182C121.158 89.7182 120.424 89.7401 119.636 89.7839C118.869 89.8058 118.311 89.8277 117.961 89.8496V89.1597C118.399 89.1597 118.76 89.0612 119.045 88.864C119.329 88.645 119.351 88.3713 119.11 88.0427L110.339 75.2632C109.901 74.6281 109.55 74.2119 109.288 74.0148C109.025 73.7958 108.696 73.6644 108.302 73.6206V72.9307C108.521 72.9526 108.86 72.9855 109.32 73.0293C109.78 73.0512 110.218 73.0621 110.634 73.0621C111.335 73.0621 112.069 73.0512 112.836 73.0293C113.602 72.9855 114.161 72.9526 114.511 72.9307ZM115.398 81.2752C115.398 81.2752 115.42 81.3518 115.464 81.5051C115.508 81.6366 115.551 81.7789 115.595 81.9322C115.661 82.0855 115.694 82.1622 115.694 82.1622L112.967 85.7102C112.398 86.4549 112.091 87.0791 112.047 87.5828C112.025 88.0865 112.233 88.4698 112.671 88.7326C113.109 88.9735 113.712 89.1269 114.478 89.1926V89.8496C114.106 89.8277 113.69 89.8168 113.23 89.8168C112.77 89.7949 112.321 89.7839 111.883 89.7839C111.467 89.762 111.083 89.7511 110.733 89.7511C110.229 89.7511 109.769 89.762 109.353 89.7839C108.959 89.7839 108.587 89.8058 108.236 89.8496V89.1926C108.652 89.1488 109.079 88.9626 109.518 88.6341C109.977 88.2837 110.514 87.7033 111.127 86.8929L115.398 81.2752ZM123.513 72.9307V73.5878C123.096 73.6316 122.636 73.8506 122.133 74.2448C121.651 74.6171 121.147 75.1647 120.622 75.8874L116.844 81.1109C116.844 81.1109 116.822 81.0452 116.778 80.9138C116.734 80.7605 116.69 80.6181 116.646 80.4867C116.603 80.3334 116.581 80.2568 116.581 80.2568L119.143 76.6759C119.625 75.9969 119.932 75.4384 120.063 75.0004C120.194 74.5624 120.118 74.2338 119.833 74.0148C119.57 73.7739 119.045 73.6316 118.256 73.5878V72.9307C118.826 72.9526 119.297 72.9745 119.669 72.9964C120.063 73.0183 120.512 73.0293 121.016 73.0293C121.52 73.0293 121.969 73.0183 122.363 72.9964C122.779 72.9745 123.162 72.9526 123.513 72.9307ZM130.758 72.5693V92.7406C130.758 93.6824 131.032 94.3066 131.58 94.6132C132.149 94.9417 132.927 95.106 133.912 95.106V95.7959C133.43 95.774 132.762 95.7411 131.908 95.6973C131.054 95.6754 130.145 95.6645 129.181 95.6645C128.502 95.6645 127.823 95.6754 127.145 95.6973C126.487 95.7411 125.984 95.774 125.633 95.7959V95.106C126.422 95.106 126.98 94.9636 127.309 94.6789C127.637 94.3942 127.802 93.8576 127.802 93.0691V76.5116C127.802 75.526 127.626 74.8033 127.276 74.3434C126.926 73.8615 126.268 73.6206 125.305 73.6206V72.9307C126.006 72.9964 126.685 73.0293 127.342 73.0293C127.977 73.0293 128.579 72.9964 129.149 72.9307C129.74 72.8431 130.276 72.7226 130.758 72.5693ZM136.015 72.4708C137.175 72.4708 138.216 72.7884 139.136 73.4235C140.055 74.0367 140.778 74.9456 141.304 76.1502C141.851 77.3548 142.125 78.8441 142.125 80.6181C142.125 81.8008 141.983 82.9725 141.698 84.1333C141.413 85.2722 140.964 86.3125 140.351 87.2543C139.76 88.1741 138.982 88.9188 138.019 89.4882C137.077 90.0358 135.938 90.3095 134.602 90.3095C133.573 90.3095 132.675 90.0686 131.908 89.5868C131.163 89.105 130.66 88.5246 130.397 87.8456L130.725 87.3857C131.032 87.9989 131.47 88.5136 132.04 88.9297C132.631 89.3459 133.365 89.5539 134.241 89.5539C135.467 89.5539 136.42 89.1707 137.099 88.4041C137.778 87.6376 138.249 86.6191 138.511 85.3489C138.796 84.0567 138.938 82.6331 138.938 81.0781C138.938 79.3259 138.796 77.8914 138.511 76.7744C138.227 75.6574 137.8 74.8252 137.23 74.2777C136.661 73.7301 135.96 73.4563 135.128 73.4563C134.054 73.4563 133.08 73.9053 132.204 74.8033C131.328 75.6793 130.769 77.0153 130.528 78.8113L130.134 78.3513C130.375 76.4897 131.032 75.0442 132.105 74.0148C133.2 72.9855 134.503 72.4708 136.015 72.4708ZM152.607 72.4708C154.534 72.4708 156.034 73.0621 157.108 74.2448C158.203 75.4056 158.75 77.2234 158.75 79.6983H147.153L147.12 79.0741H155.596C155.64 78.0009 155.553 77.0153 155.334 76.1174C155.115 75.1975 154.764 74.4638 154.282 73.9163C153.822 73.3687 153.22 73.095 152.475 73.095C151.468 73.095 150.57 73.5987 149.782 74.6062C149.015 75.6136 148.555 77.2125 148.402 79.4026L148.5 79.534C148.456 79.8625 148.424 80.2239 148.402 80.6181C148.38 81.0124 148.369 81.4066 148.369 81.8008C148.369 83.2901 148.61 84.5714 149.092 85.6445C149.573 86.7177 150.198 87.539 150.964 88.1084C151.753 88.656 152.563 88.9297 153.395 88.9297C154.052 88.9297 154.676 88.8312 155.268 88.6341C155.859 88.4151 156.407 88.0646 156.91 87.5828C157.414 87.101 157.852 86.4549 158.225 85.6445L158.882 85.9073C158.641 86.6301 158.246 87.3309 157.699 88.0099C157.151 88.6888 156.461 89.2473 155.629 89.6853C154.797 90.1015 153.833 90.3095 152.738 90.3095C151.161 90.3095 149.803 89.9482 148.665 89.2254C147.548 88.5027 146.682 87.5062 146.069 86.2359C145.478 84.9437 145.182 83.4653 145.182 81.8008C145.182 79.8735 145.489 78.2199 146.102 76.8401C146.715 75.4384 147.58 74.3653 148.697 73.6206C149.814 72.8541 151.117 72.4708 152.607 72.4708ZM171.459 72.4708C172.051 72.4708 172.565 72.5912 173.003 72.8322C173.463 73.0731 173.814 73.3906 174.055 73.7849C174.317 74.1572 174.449 74.5843 174.449 75.0661C174.449 75.6136 174.274 76.0955 173.923 76.5116C173.595 76.9277 173.146 77.1358 172.576 77.1358C172.116 77.1358 171.711 76.9934 171.361 76.7087C171.01 76.4021 170.835 75.975 170.835 75.4275C170.835 75.0114 170.945 74.6609 171.164 74.3762C171.405 74.0696 171.667 73.8287 171.952 73.6535C171.799 73.4344 171.569 73.3249 171.262 73.3249C170.583 73.3249 169.959 73.533 169.39 73.9491C168.82 74.3434 168.338 74.858 167.944 75.4932C167.55 76.1283 167.243 76.8073 167.024 77.53C166.805 78.2309 166.696 78.8879 166.696 79.5012V86.4658C166.696 87.539 167.002 88.2618 167.616 88.6341C168.251 88.9845 169.105 89.1597 170.178 89.1597V89.8496C169.674 89.8277 168.963 89.8058 168.043 89.7839C167.123 89.7401 166.148 89.7182 165.119 89.7182C164.374 89.7182 163.63 89.7401 162.885 89.7839C162.162 89.8058 161.615 89.8277 161.242 89.8496V89.1597C162.14 89.1597 162.775 88.9955 163.148 88.6669C163.542 88.3384 163.739 87.7142 163.739 86.7944V76.5116C163.739 75.526 163.564 74.8033 163.213 74.3434C162.863 73.8615 162.206 73.6206 161.242 73.6206V72.9307C161.943 72.9964 162.622 73.0293 163.279 73.0293C163.914 73.0293 164.517 72.9964 165.086 72.9307C165.677 72.8431 166.214 72.7226 166.696 72.5693V76.6759C166.937 76.0407 167.276 75.4056 167.714 74.7704C168.174 74.1134 168.722 73.5659 169.357 73.1278C169.992 72.6898 170.693 72.4708 171.459 72.4708ZM181.161 67.4772V72.9636H186.023V73.6206H181.161V86.3344C181.161 87.3638 181.347 88.0865 181.72 88.5027C182.092 88.9188 182.607 89.1269 183.264 89.1269C183.921 89.1269 184.49 88.864 184.972 88.3384C185.454 87.7909 185.87 86.882 186.22 85.6117L186.877 85.7759C186.658 87.0462 186.22 88.1194 185.563 88.9955C184.928 89.8715 183.943 90.3095 182.607 90.3095C181.862 90.3095 181.249 90.211 180.767 90.0139C180.285 89.8387 179.858 89.5758 179.486 89.2254C179.004 88.7217 178.664 88.1194 178.467 87.4185C178.292 86.7177 178.204 85.7869 178.204 84.6261V73.6206H175.051V72.9636H178.204V67.9372C178.752 67.9153 179.277 67.8715 179.781 67.8058C180.285 67.7401 180.745 67.6305 181.161 67.4772Z" fill="black"/>
<path d="M36.5891 119.766C35.6152 119.766 34.7358 119.549 33.951 119.114C33.1757 118.679 32.5611 118.078 32.1072 117.313C31.6628 116.547 31.4406 115.686 31.4406 114.731C31.4406 113.776 31.6628 112.916 32.1072 112.15C32.5611 111.384 33.1757 110.784 33.951 110.349C34.7358 109.914 35.6152 109.696 36.5891 109.696C37.3077 109.696 37.9695 109.814 38.5747 110.051C39.1798 110.278 39.6952 110.618 40.1206 111.072L39.6668 111.54C38.8725 110.755 37.8561 110.363 36.6174 110.363C35.7854 110.363 35.0289 110.552 34.3481 110.93C33.6673 111.308 33.1331 111.833 32.7454 112.504C32.3578 113.166 32.1639 113.909 32.1639 114.731C32.1639 115.554 32.3578 116.301 32.7454 116.972C33.1331 117.634 33.6673 118.154 34.3481 118.532C35.0289 118.911 35.7854 119.1 36.6174 119.1C37.8466 119.1 38.8631 118.702 39.6668 117.908L40.1206 118.376C39.6952 118.83 39.1751 119.175 38.5605 119.412C37.9554 119.648 37.2982 119.766 36.5891 119.766ZM48.1689 116.164H41.8007C41.8196 116.741 41.9661 117.256 42.2403 117.71C42.5146 118.154 42.8833 118.499 43.3466 118.745C43.8194 118.991 44.3489 119.114 44.9351 119.114C45.4174 119.114 45.8618 119.029 46.2683 118.859C46.6844 118.679 47.0295 118.419 47.3037 118.078L47.715 118.546C47.3935 118.934 46.9869 119.232 46.4953 119.44C46.013 119.648 45.4883 119.752 44.9209 119.752C44.1834 119.752 43.5263 119.591 42.9495 119.27C42.3727 118.948 41.9189 118.504 41.5879 117.937C41.2664 117.369 41.1057 116.722 41.1057 115.994C41.1057 115.275 41.257 114.632 41.5596 114.065C41.8716 113.488 42.2971 113.039 42.836 112.717C43.375 112.396 43.9801 112.235 44.6515 112.235C45.3228 112.235 45.9232 112.396 46.4527 112.717C46.9917 113.029 47.4124 113.469 47.715 114.036C48.027 114.604 48.1831 115.247 48.1831 115.965L48.1689 116.164ZM44.6515 112.859C44.1314 112.859 43.6634 112.977 43.2473 113.214C42.8313 113.441 42.4956 113.767 42.2403 114.192C41.9945 114.608 41.8527 115.081 41.8149 115.611H47.4881C47.4597 115.081 47.3179 114.608 47.0626 114.192C46.8073 113.776 46.4716 113.45 46.0556 113.214C45.6396 112.977 45.1715 112.859 44.6515 112.859ZM54.2304 112.235C54.9206 112.235 55.5447 112.396 56.1025 112.717C56.6604 113.039 57.0953 113.483 57.4074 114.05C57.7289 114.618 57.8896 115.265 57.8896 115.994C57.8896 116.722 57.7289 117.374 57.4074 117.951C57.0953 118.518 56.6604 118.963 56.1025 119.284C55.5447 119.596 54.9206 119.752 54.2304 119.752C53.5779 119.752 52.987 119.601 52.4575 119.298C51.928 118.986 51.5167 118.556 51.2236 118.008V122.447H50.5144V112.292H51.1952V114.036C51.4883 113.469 51.8996 113.029 52.4291 112.717C52.9681 112.396 53.5685 112.235 54.2304 112.235ZM54.1878 119.114C54.7551 119.114 55.2657 118.981 55.7196 118.717C56.1734 118.452 56.528 118.083 56.7833 117.61C57.0481 117.138 57.1804 116.599 57.1804 115.994C57.1804 115.388 57.0481 114.849 56.7833 114.377C56.528 113.904 56.1734 113.535 55.7196 113.27C55.2657 113.006 54.7551 112.873 54.1878 112.873C53.6205 112.873 53.1099 113.006 52.656 113.27C52.2116 113.535 51.8571 113.904 51.5923 114.377C51.337 114.849 51.2094 115.388 51.2094 115.994C51.2094 116.599 51.337 117.138 51.5923 117.61C51.8571 118.083 52.2116 118.452 52.656 118.717C53.1099 118.981 53.6205 119.114 54.1878 119.114ZM64.5782 115.88C65.6656 116.069 66.2093 116.679 66.2093 117.71C66.2093 118.353 65.9729 118.844 65.5001 119.185C65.0368 119.525 64.3371 119.695 63.401 119.695H60.1957V112.292H63.3159C64.1386 112.292 64.7815 112.457 65.2448 112.788C65.7176 113.11 65.954 113.573 65.954 114.178C65.954 114.613 65.8311 114.977 65.5852 115.27C65.3489 115.554 65.0132 115.757 64.5782 115.88ZM60.8906 115.667H63.2734C63.9069 115.667 64.3939 115.549 64.7343 115.313C65.0746 115.067 65.2448 114.717 65.2448 114.263C65.2448 113.8 65.0746 113.455 64.7343 113.228C64.4033 112.991 63.9164 112.873 63.2734 112.873H60.8906V115.667ZM63.3869 119.114C64.7957 119.114 65.5001 118.636 65.5001 117.681C65.5001 117.18 65.3394 116.811 65.0179 116.575C64.6964 116.339 64.1906 116.22 63.5003 116.22H60.8906V119.114H63.3869ZM68.7277 112.292H69.4368V118.603L74.7129 112.292H75.337V119.695H74.6278V113.384L69.3517 119.695H68.7277V112.292ZM81.3881 119.752C80.6694 119.752 80.0265 119.591 79.4592 119.27C78.8918 118.948 78.4474 118.504 78.126 117.937C77.8045 117.36 77.6437 116.712 77.6437 115.994C77.6437 115.265 77.8045 114.618 78.126 114.05C78.4474 113.474 78.8918 113.029 79.4592 112.717C80.0265 112.396 80.6694 112.235 81.3881 112.235C81.9837 112.235 82.5227 112.353 83.0049 112.59C83.4966 112.817 83.8937 113.152 84.1963 113.597L83.6715 113.98C83.4068 113.611 83.0758 113.337 82.6787 113.157C82.291 112.968 81.8608 112.873 81.3881 112.873C80.8113 112.873 80.2912 113.006 79.8279 113.27C79.3741 113.526 79.0148 113.89 78.75 114.362C78.4947 114.835 78.3671 115.379 78.3671 115.994C78.3671 116.608 78.4947 117.152 78.75 117.625C79.0148 118.097 79.3741 118.466 79.8279 118.731C80.2912 118.986 80.8113 119.114 81.3881 119.114C81.8608 119.114 82.291 119.024 82.6787 118.844C83.0758 118.655 83.4068 118.376 83.6715 118.008L84.1963 118.39C83.8937 118.835 83.4966 119.175 83.0049 119.412C82.5227 119.639 81.9837 119.752 81.3881 119.752ZM92.3867 112.235C93.3039 112.235 94.0083 112.471 94.5 112.944C94.9917 113.407 95.2375 114.093 95.2375 115.001V119.695H94.5567V118.376C94.3203 118.811 93.9752 119.152 93.5213 119.397C93.0675 119.634 92.5238 119.752 91.8903 119.752C91.0677 119.752 90.4152 119.558 89.933 119.171C89.4603 118.783 89.2239 118.272 89.2239 117.639C89.2239 117.024 89.4413 116.528 89.8763 116.15C90.3207 115.762 91.0251 115.568 91.9896 115.568H94.5283V114.972C94.5283 114.282 94.3392 113.757 93.961 113.398C93.5923 113.039 93.0486 112.859 92.33 112.859C91.8383 112.859 91.3655 112.944 90.9117 113.114C90.4673 113.285 90.089 113.511 89.777 113.795L89.4224 113.285C89.7912 112.954 90.2356 112.698 90.7556 112.519C91.2757 112.33 91.8194 112.235 92.3867 112.235ZM91.9896 119.171C92.6042 119.171 93.1242 119.029 93.5497 118.745C93.9847 118.461 94.3109 118.05 94.5283 117.511V116.121H92.0038C91.2757 116.121 90.7462 116.254 90.4152 116.518C90.0938 116.783 89.933 117.147 89.933 117.61C89.933 118.093 90.1127 118.476 90.472 118.759C90.8313 119.033 91.3371 119.171 91.9896 119.171ZM105.083 119.071V121.539H104.416V119.695H97.4096V121.539H96.7288V119.071H97.1685C97.6696 119.043 98.01 118.655 98.1897 117.908C98.3788 117.152 98.5112 116.093 98.5868 114.731L98.6861 112.292H103.891V119.071H105.083ZM99.2392 114.774C99.1919 115.899 99.0974 116.835 98.9556 117.582C98.8137 118.329 98.5584 118.825 98.1897 119.071H103.182V112.93H99.3243L99.2392 114.774ZM111.56 115.88C112.647 116.069 113.191 116.679 113.191 117.71C113.191 118.353 112.954 118.844 112.482 119.185C112.018 119.525 111.319 119.695 110.382 119.695H107.177V112.292H110.297C111.12 112.292 111.763 112.457 112.226 112.788C112.699 113.11 112.935 113.573 112.935 114.178C112.935 114.613 112.812 114.977 112.567 115.27C112.33 115.554 111.995 115.757 111.56 115.88ZM107.872 115.667H110.255C110.888 115.667 111.375 115.549 111.716 115.313C112.056 115.067 112.226 114.717 112.226 114.263C112.226 113.8 112.056 113.455 111.716 113.228C111.385 112.991 110.898 112.873 110.255 112.873H107.872V115.667ZM110.368 119.114C111.777 119.114 112.482 118.636 112.482 117.681C112.482 117.18 112.321 116.811 111.999 116.575C111.678 116.339 111.172 116.22 110.482 116.22H107.872V119.114H110.368ZM118.659 119.752C117.959 119.752 117.326 119.591 116.759 119.27C116.201 118.948 115.761 118.504 115.44 117.937C115.118 117.36 114.957 116.712 114.957 115.994C114.957 115.275 115.118 114.632 115.44 114.065C115.761 113.488 116.201 113.039 116.759 112.717C117.326 112.396 117.959 112.235 118.659 112.235C119.359 112.235 119.988 112.396 120.546 112.717C121.113 113.039 121.557 113.488 121.879 114.065C122.2 114.632 122.361 115.275 122.361 115.994C122.361 116.712 122.2 117.36 121.879 117.937C121.557 118.504 121.113 118.948 120.546 119.27C119.988 119.591 119.359 119.752 118.659 119.752ZM118.659 119.114C119.226 119.114 119.732 118.981 120.177 118.717C120.631 118.452 120.985 118.083 121.24 117.61C121.505 117.138 121.638 116.599 121.638 115.994C121.638 115.388 121.505 114.849 121.24 114.377C120.985 113.904 120.631 113.535 120.177 113.27C119.732 113.006 119.226 112.873 118.659 112.873C118.092 112.873 117.581 113.006 117.127 113.27C116.683 113.535 116.328 113.904 116.064 114.377C115.808 114.849 115.681 115.388 115.681 115.994C115.681 116.599 115.808 117.138 116.064 117.61C116.328 118.083 116.683 118.452 117.127 118.717C117.581 118.981 118.092 119.114 118.659 119.114ZM127.181 116.263H125.38V119.695H124.67V112.292H125.38V115.653H127.181L129.975 112.292H130.755L127.748 115.88L130.982 119.695H130.131L127.181 116.263ZM135.047 112.235C135.964 112.235 136.668 112.471 137.16 112.944C137.652 113.407 137.898 114.093 137.898 115.001V119.695H137.217V118.376C136.98 118.811 136.635 119.152 136.181 119.397C135.727 119.634 135.184 119.752 134.55 119.752C133.728 119.752 133.075 119.558 132.593 119.171C132.12 118.783 131.884 118.272 131.884 117.639C131.884 117.024 132.101 116.528 132.536 116.15C132.981 115.762 133.685 115.568 134.65 115.568H137.188V114.972C137.188 114.282 136.999 113.757 136.621 113.398C136.252 113.039 135.709 112.859 134.99 112.859C134.498 112.859 134.026 112.944 133.572 113.114C133.127 113.285 132.749 113.511 132.437 113.795L132.082 113.285C132.451 112.954 132.896 112.698 133.416 112.519C133.936 112.33 134.479 112.235 135.047 112.235ZM134.65 119.171C135.264 119.171 135.784 119.029 136.21 118.745C136.645 118.461 136.971 118.05 137.188 117.511V116.121H134.664C133.936 116.121 133.406 116.254 133.075 116.518C132.754 116.783 132.593 117.147 132.593 117.61C132.593 118.093 132.773 118.476 133.132 118.759C133.491 119.033 133.997 119.171 134.65 119.171ZM145.729 112.93H142.835V119.695H142.126V112.93H139.233V112.292H145.729V112.93ZM149.851 119.752C149.151 119.752 148.518 119.591 147.95 119.27C147.392 118.948 146.953 118.504 146.631 117.937C146.31 117.36 146.149 116.712 146.149 115.994C146.149 115.275 146.31 114.632 146.631 114.065C146.953 113.488 147.392 113.039 147.95 112.717C148.518 112.396 149.151 112.235 149.851 112.235C150.551 112.235 151.179 112.396 151.737 112.717C152.305 113.039 152.749 113.488 153.07 114.065C153.392 114.632 153.553 115.275 153.553 115.994C153.553 116.712 153.392 117.36 153.07 117.937C152.749 118.504 152.305 118.948 151.737 119.27C151.179 119.591 150.551 119.752 149.851 119.752ZM149.851 119.114C150.418 119.114 150.924 118.981 151.368 118.717C151.822 118.452 152.177 118.083 152.432 117.61C152.697 117.138 152.829 116.599 152.829 115.994C152.829 115.388 152.697 114.849 152.432 114.377C152.177 113.904 151.822 113.535 151.368 113.27C150.924 113.006 150.418 112.873 149.851 112.873C149.284 112.873 148.773 113.006 148.319 113.27C147.875 113.535 147.52 113.904 147.255 114.377C147 114.849 146.872 115.388 146.872 115.994C146.872 116.599 147 117.138 147.255 117.61C147.52 118.083 147.875 118.452 148.319 118.717C148.773 118.981 149.284 119.114 149.851 119.114ZM160.245 115.88C161.332 116.069 161.876 116.679 161.876 117.71C161.876 118.353 161.639 118.844 161.167 119.185C160.703 119.525 160.004 119.695 159.068 119.695H155.862V112.292H158.982C159.805 112.292 160.448 112.457 160.911 112.788C161.384 113.11 161.62 113.573 161.62 114.178C161.62 114.613 161.498 114.977 161.252 115.27C161.015 115.554 160.68 115.757 160.245 115.88ZM156.557 115.667H158.94C159.573 115.667 160.06 115.549 160.401 115.313C160.741 115.067 160.911 114.717 160.911 114.263C160.911 113.8 160.741 113.455 160.401 113.228C160.07 112.991 159.583 112.873 158.94 112.873H156.557V115.667ZM159.053 119.114C160.462 119.114 161.167 118.636 161.167 117.681C161.167 117.18 161.006 116.811 160.684 116.575C160.363 116.339 159.857 116.22 159.167 116.22H156.557V119.114H159.053ZM22.3557 129.292H23.0648V135.603L28.3409 129.292H28.965V136.695H28.2558V130.384L22.9797 136.695H22.3557V129.292ZM41.8642 129.235C42.5544 129.235 43.1737 129.396 43.7221 129.717C44.2706 130.029 44.7008 130.474 45.0128 131.05C45.3248 131.618 45.4808 132.265 45.4808 132.994C45.4808 133.712 45.3248 134.36 45.0128 134.937C44.7008 135.504 44.2706 135.948 43.7221 136.27C43.1737 136.591 42.5544 136.752 41.8642 136.752C41.2023 136.752 40.6019 136.605 40.0629 136.312C39.5334 136.019 39.1079 135.608 38.7864 135.078C38.4744 134.549 38.2995 133.944 38.2617 133.263H36.3753V136.695H35.6662V129.292H36.3753V132.611H38.2617C38.3184 131.949 38.5075 131.362 38.829 130.852C39.1505 130.341 39.576 129.944 40.1055 129.661C40.635 129.377 41.2212 129.235 41.8642 129.235ZM41.8642 136.128C42.4126 136.128 42.909 135.996 43.3534 135.731C43.7978 135.466 44.1429 135.097 44.3888 134.625C44.644 134.142 44.7717 133.599 44.7717 132.994C44.7717 132.379 44.644 131.835 44.3888 131.362C44.1429 130.89 43.7978 130.526 43.3534 130.27C42.909 130.006 42.4126 129.873 41.8642 129.873C41.3158 129.873 40.8193 130.006 40.3749 130.27C39.9305 130.526 39.5807 130.89 39.3254 131.362C39.0796 131.835 38.9566 132.379 38.9566 132.994C38.9566 133.599 39.0796 134.142 39.3254 134.625C39.5807 135.097 39.9305 135.466 40.3749 135.731C40.8193 135.996 41.3158 136.128 41.8642 136.128ZM51.5433 129.235C52.2336 129.235 52.8576 129.396 53.4155 129.717C53.9734 130.039 54.4083 130.483 54.7203 131.05C55.0418 131.618 55.2026 132.265 55.2026 132.994C55.2026 133.722 55.0418 134.374 54.7203 134.951C54.4083 135.518 53.9734 135.963 53.4155 136.284C52.8576 136.596 52.2336 136.752 51.5433 136.752C50.8909 136.752 50.3 136.601 49.7704 136.298C49.2409 135.986 48.8296 135.556 48.5365 135.008V139.447H47.8274V129.292H48.5082V131.036C48.8013 130.469 49.2126 130.029 49.7421 129.717C50.281 129.396 50.8815 129.235 51.5433 129.235ZM51.5008 136.114C52.0681 136.114 52.5787 135.981 53.0326 135.717C53.4864 135.452 53.841 135.083 54.0963 134.61C54.361 134.138 54.4934 133.599 54.4934 132.994C54.4934 132.388 54.361 131.849 54.0963 131.377C53.841 130.904 53.4864 130.535 53.0326 130.27C52.5787 130.006 52.0681 129.873 51.5008 129.873C50.9335 129.873 50.4229 130.006 49.969 130.27C49.5246 130.535 49.17 130.904 48.9053 131.377C48.65 131.849 48.5223 132.388 48.5223 132.994C48.5223 133.599 48.65 134.138 48.9053 134.61C49.17 135.083 49.5246 135.452 49.969 135.717C50.4229 135.981 50.9335 136.114 51.5008 136.114ZM57.5086 129.292H58.2178V135.603L63.4939 129.292H64.118V136.695H63.4088V130.384L58.1327 136.695H57.5086V129.292ZM74.1403 136.071V138.539H73.4737V136.695H66.4672V138.539H65.7865V136.071H66.2261C66.7273 136.043 67.0677 135.655 67.2473 134.908C67.4364 134.152 67.5688 133.093 67.6444 131.731L67.7437 129.292H72.9489V136.071H74.1403ZM68.2969 131.774C68.2496 132.899 68.155 133.835 68.0132 134.582C67.8714 135.329 67.6161 135.825 67.2473 136.071H72.2398V129.93H68.382L68.2969 131.774ZM76.2347 129.292H76.9439V135.603L82.22 129.292H82.844V136.695H82.1349V130.384L76.8588 136.695H76.2347V129.292ZM91.2211 129.292V136.695H90.512V133.504C89.6326 133.911 88.7533 134.114 87.8739 134.114C87.004 134.114 86.3185 133.915 85.8174 133.518C85.3257 133.121 85.0799 132.535 85.0799 131.76V129.292H85.789V131.717C85.789 132.294 85.9829 132.738 86.3705 133.05C86.7582 133.362 87.2924 133.518 87.9732 133.518C88.7486 133.518 89.5948 133.324 90.512 132.937V129.292H91.2211ZM100.594 133.164H94.2254C94.2443 133.741 94.3909 134.256 94.6651 134.71C94.9393 135.154 95.308 135.499 95.7714 135.745C96.2441 135.991 96.7736 136.114 97.3599 136.114C97.8421 136.114 98.2865 136.029 98.6931 135.859C99.1091 135.679 99.4542 135.419 99.7284 135.078L100.14 135.546C99.8183 135.934 99.4117 136.232 98.92 136.44C98.4378 136.648 97.913 136.752 97.3457 136.752C96.6082 136.752 95.951 136.591 95.3742 136.27C94.7974 135.948 94.3436 135.504 94.0127 134.937C93.6912 134.369 93.5304 133.722 93.5304 132.994C93.5304 132.275 93.6817 131.632 93.9843 131.065C94.2963 130.488 94.7218 130.039 95.2608 129.717C95.7997 129.396 96.4049 129.235 97.0762 129.235C97.7475 129.235 98.3479 129.396 98.8774 129.717C99.4164 130.029 99.8372 130.469 100.14 131.036C100.452 131.604 100.608 132.247 100.608 132.965L100.594 133.164ZM97.0762 129.859C96.5561 129.859 96.0881 129.977 95.6721 130.214C95.256 130.441 94.9204 130.767 94.6651 131.192C94.4192 131.608 94.2774 132.081 94.2396 132.611H99.9128C99.8844 132.081 99.7426 131.608 99.4873 131.192C99.232 130.776 98.8964 130.45 98.4803 130.214C98.0643 129.977 97.5962 129.859 97.0762 129.859ZM105.918 136.752C105.199 136.752 104.556 136.591 103.989 136.27C103.421 135.948 102.977 135.504 102.655 134.937C102.334 134.36 102.173 133.712 102.173 132.994C102.173 132.265 102.334 131.618 102.655 131.05C102.977 130.474 103.421 130.029 103.989 129.717C104.556 129.396 105.199 129.235 105.918 129.235C106.513 129.235 107.052 129.353 107.534 129.59C108.026 129.817 108.423 130.152 108.726 130.597L108.201 130.98C107.936 130.611 107.605 130.337 107.208 130.157C106.821 129.968 106.39 129.873 105.918 129.873C105.341 129.873 104.821 130.006 104.357 130.27C103.904 130.526 103.544 130.89 103.28 131.362C103.024 131.835 102.897 132.379 102.897 132.994C102.897 133.608 103.024 134.152 103.28 134.625C103.544 135.097 103.904 135.466 104.357 135.731C104.821 135.986 105.341 136.114 105.918 136.114C106.39 136.114 106.821 136.024 107.208 135.844C107.605 135.655 107.936 135.376 108.201 135.008L108.726 135.39C108.423 135.835 108.026 136.175 107.534 136.412C107.052 136.639 106.513 136.752 105.918 136.752ZM113.33 133.263H111.529V136.695H110.82V129.292H111.529V132.653H113.33L116.124 129.292H116.904L113.898 132.88L117.131 136.695H116.28L113.33 133.263ZM118.881 129.292H119.59V135.603L124.866 129.292H125.49V136.695H124.781V130.384L119.505 136.695H118.881V129.292ZM133.187 136.695L130.648 133.391L128.109 136.695H127.301L130.236 132.88L127.457 129.292H128.265L130.648 132.369L133.03 129.292H133.825L131.045 132.88L134.023 136.695H133.187ZM145.491 129.292L141.69 137.702C141.406 138.355 141.075 138.818 140.697 139.092C140.328 139.366 139.888 139.504 139.378 139.504C139.037 139.504 138.716 139.447 138.413 139.333C138.12 139.22 137.87 139.054 137.662 138.837L138.016 138.298C138.395 138.686 138.853 138.88 139.392 138.88C139.751 138.88 140.059 138.78 140.314 138.582C140.569 138.383 140.806 138.043 141.023 137.56L141.42 136.667L138.087 129.292H138.839L141.803 135.915L144.767 129.292H145.491ZM149.99 136.752C149.272 136.752 148.629 136.591 148.061 136.27C147.494 135.948 147.05 135.504 146.728 134.937C146.407 134.36 146.246 133.712 146.246 132.994C146.246 132.265 146.407 131.618 146.728 131.05C147.05 130.474 147.494 130.029 148.061 129.717C148.629 129.396 149.272 129.235 149.99 129.235C150.586 129.235 151.125 129.353 151.607 129.59C152.099 129.817 152.496 130.152 152.799 130.597L152.274 130.98C152.009 130.611 151.678 130.337 151.281 130.157C150.893 129.968 150.463 129.873 149.99 129.873C149.414 129.873 148.894 130.006 148.43 130.27C147.976 130.526 147.617 130.89 147.352 131.362C147.097 131.835 146.969 132.379 146.969 132.994C146.969 133.608 147.097 134.152 147.352 134.625C147.617 135.097 147.976 135.466 148.43 135.731C148.894 135.986 149.414 136.114 149.99 136.114C150.463 136.114 150.893 136.024 151.281 135.844C151.678 135.655 152.009 135.376 152.274 135.008L152.799 135.39C152.496 135.835 152.099 136.175 151.607 136.412C151.125 136.639 150.586 136.752 149.99 136.752ZM160.375 129.292V136.695H159.665V129.93H155.808L155.708 131.901C155.652 132.923 155.567 133.778 155.453 134.469C155.34 135.159 155.146 135.717 154.872 136.142C154.597 136.568 154.219 136.78 153.737 136.78C153.595 136.78 153.392 136.747 153.127 136.681L153.198 136.071C153.349 136.109 153.463 136.128 153.538 136.128C153.935 136.128 154.238 135.934 154.446 135.546C154.654 135.159 154.796 134.677 154.872 134.1C154.947 133.523 155.009 132.771 155.056 131.845L155.184 129.292H160.375ZM169.466 129.292L165.665 137.702C165.382 138.355 165.051 138.818 164.672 139.092C164.304 139.366 163.864 139.504 163.353 139.504C163.013 139.504 162.691 139.447 162.389 139.333C162.096 139.22 161.845 139.054 161.637 138.837L161.992 138.298C162.37 138.686 162.829 138.88 163.368 138.88C163.727 138.88 164.034 138.78 164.289 138.582C164.545 138.383 164.781 138.043 164.999 137.56L165.396 136.667L162.063 129.292H162.814L165.779 135.915L168.743 129.292H169.466ZM176.244 129.93H171.89V136.695H171.181V129.292H176.244V129.93Z" fill="black"/>
<defs>
<clipPath id="clip0_632_6">
<rect width="39.1797" height="50.1774" fill="white" transform="translate(79.2256)"/>
</clipPath>
</defs>
</svg>
