<svg width="334" height="80" viewBox="0 0 334 80" fill="none" xmlns="http://www.w3.org/2000/svg">
<path d="M77.151 71.4466C76.2747 71.4466 75.4836 71.2509 74.7775 70.8596C74.0799 70.4683 73.5269 69.9281 73.1185 69.239C72.7187 68.5499 72.5188 67.7757 72.5188 66.9165C72.5188 66.0573 72.7187 65.2831 73.1185 64.594C73.5269 63.9049 74.0799 63.3647 74.7775 62.9734C75.4836 62.582 76.2747 62.3864 77.151 62.3864C77.7976 62.3864 78.3931 62.4927 78.9375 62.7054C79.482 62.9096 79.9456 63.2158 80.3285 63.6242L79.9201 64.0453C79.2055 63.3392 78.291 62.9861 77.1765 62.9861C76.4279 62.9861 75.7473 63.1563 75.1348 63.4966C74.5222 63.8369 74.0416 64.309 73.6928 64.913C73.344 65.5085 73.1696 66.1764 73.1696 66.9165C73.1696 67.6566 73.344 68.3287 73.6928 68.9327C74.0416 69.5282 74.5222 69.9961 75.1348 70.3364C75.7473 70.6767 76.4279 70.8469 77.1765 70.8469C78.2825 70.8469 79.197 70.4895 79.9201 69.7749L80.3285 70.196C79.9456 70.6044 79.4777 70.9149 78.9248 71.1276C78.3803 71.3403 77.789 71.4466 77.151 71.4466ZM87.5697 68.2053H81.84C81.8571 68.7243 81.9889 69.1879 82.2356 69.5963C82.4823 69.9961 82.8141 70.3066 83.231 70.5278C83.6563 70.749 84.1328 70.8596 84.6602 70.8596C85.0941 70.8596 85.4939 70.783 85.8597 70.6299C86.234 70.4683 86.5446 70.2343 86.7913 69.9281L87.1613 70.3492C86.8721 70.698 86.5063 70.966 86.0639 71.1531C85.63 71.3403 85.1579 71.4339 84.6474 71.4339C83.9839 71.4339 83.3926 71.2892 82.8737 71C82.3547 70.7107 81.9464 70.3109 81.6486 69.8005C81.3594 69.29 81.2148 68.7073 81.2148 68.0522C81.2148 67.4057 81.3509 66.8272 81.6231 66.3167C81.9038 65.7978 82.2867 65.3937 82.7716 65.1044C83.2565 64.8152 83.801 64.6706 84.405 64.6706C85.009 64.6706 85.5492 64.8152 86.0256 65.1044C86.5105 65.3852 86.8891 65.7808 87.1613 66.2912C87.4421 66.8016 87.5825 67.3801 87.5825 68.0267L87.5697 68.2053ZM84.405 65.232C83.9371 65.232 83.516 65.3384 83.1417 65.5511C82.7673 65.7552 82.4653 66.0487 82.2356 66.4316C82.0144 66.8059 81.8868 67.2313 81.8528 67.7077H86.9572C86.9316 67.2313 86.804 66.8059 86.5743 66.4316C86.3446 66.0573 86.0426 65.7638 85.6683 65.5511C85.294 65.3384 84.8729 65.232 84.405 65.232ZM93.0234 64.6706C93.6444 64.6706 94.2059 64.8152 94.7078 65.1044C95.2098 65.3937 95.6011 65.7935 95.8818 66.304C96.1711 66.8144 96.3157 67.3972 96.3157 68.0522C96.3157 68.7073 96.1711 69.2943 95.8818 69.8132C95.6011 70.3237 95.2098 70.7235 94.7078 71.0127C94.2059 71.2935 93.6444 71.4339 93.0234 71.4339C92.4364 71.4339 91.9047 71.2977 91.4283 71.0255C90.9519 70.7448 90.5818 70.3577 90.3181 69.8643V73.8584H89.68V64.7216H90.2926V66.2912C90.5563 65.7808 90.9263 65.3852 91.4028 65.1044C91.8877 64.8152 92.4279 64.6706 93.0234 64.6706ZM92.9851 70.8596C93.4955 70.8596 93.9549 70.7405 94.3633 70.5023C94.7716 70.2641 95.0907 69.9323 95.3204 69.507C95.5586 69.0816 95.6777 68.5967 95.6777 68.0522C95.6777 67.5077 95.5586 67.0228 95.3204 66.5975C95.0907 66.1721 94.7716 65.8403 94.3633 65.6021C93.9549 65.3639 93.4955 65.2448 92.9851 65.2448C92.4747 65.2448 92.0153 65.3639 91.6069 65.6021C91.2071 65.8403 90.8881 66.1721 90.6499 66.5975C90.4202 67.0228 90.3053 67.5077 90.3053 68.0522C90.3053 68.5967 90.4202 69.0816 90.6499 69.507C90.8881 69.9323 91.2071 70.2641 91.6069 70.5023C92.0153 70.7405 92.4747 70.8596 92.9851 70.8596ZM102.334 67.9501C103.312 68.1203 103.801 68.669 103.801 69.5963C103.801 70.1748 103.589 70.6172 103.163 70.9234C102.746 71.2297 102.117 71.3828 101.275 71.3828H98.3906V64.7216H101.198C101.938 64.7216 102.517 64.8705 102.933 65.1682C103.359 65.4575 103.571 65.8743 103.571 66.4188C103.571 66.8101 103.461 67.1377 103.24 67.4014C103.027 67.6566 102.725 67.8395 102.334 67.9501ZM99.0158 67.7587H101.16C101.73 67.7587 102.168 67.6524 102.474 67.4397C102.78 67.2185 102.933 66.9037 102.933 66.4954C102.933 66.0785 102.78 65.768 102.474 65.5638C102.176 65.3511 101.738 65.2448 101.16 65.2448H99.0158V67.7587ZM101.262 70.8596C102.529 70.8596 103.163 70.43 103.163 69.5708C103.163 69.1199 103.019 68.7881 102.729 68.5754C102.44 68.3627 101.985 68.2564 101.364 68.2564H99.0158V70.8596H101.262ZM106.067 64.7216H106.705V70.4002L111.452 64.7216H112.014V71.3828H111.376V65.7042L106.629 71.3828H106.067V64.7216ZM117.458 71.4339C116.811 71.4339 116.233 71.2892 115.722 71C115.212 70.7107 114.812 70.3109 114.523 69.8005C114.234 69.2815 114.089 68.6988 114.089 68.0522C114.089 67.3972 114.234 66.8144 114.523 66.304C114.812 65.785 115.212 65.3852 115.722 65.1044C116.233 64.8152 116.811 64.6706 117.458 64.6706C117.994 64.6706 118.479 64.7769 118.913 64.9896C119.355 65.1938 119.712 65.4958 119.985 65.8956L119.512 66.2402C119.274 65.9084 118.977 65.6617 118.619 65.5C118.27 65.3299 117.883 65.2448 117.458 65.2448C116.939 65.2448 116.471 65.3639 116.054 65.6021C115.646 65.8318 115.323 66.1593 115.084 66.5847C114.855 67.0101 114.74 67.4992 114.74 68.0522C114.74 68.6052 114.855 69.0944 115.084 69.5197C115.323 69.9451 115.646 70.2769 116.054 70.5151C116.471 70.7448 116.939 70.8596 117.458 70.8596C117.883 70.8596 118.27 70.7788 118.619 70.6172C118.977 70.447 119.274 70.196 119.512 69.8643L119.985 70.2088C119.712 70.6086 119.355 70.9149 118.913 71.1276C118.479 71.3318 117.994 71.4339 117.458 71.4339ZM127.354 64.6706C128.179 64.6706 128.813 64.8832 129.255 65.3086C129.698 65.7255 129.919 66.3422 129.919 67.1589V71.3828H129.306V70.196C129.094 70.5874 128.783 70.8936 128.375 71.1148C127.966 71.3275 127.477 71.4339 126.907 71.4339C126.167 71.4339 125.58 71.2595 125.146 70.9107C124.721 70.5619 124.508 70.1025 124.508 69.5325C124.508 68.9795 124.704 68.5329 125.095 68.1926C125.495 67.8438 126.129 67.6694 126.996 67.6694H129.281V67.1334C129.281 66.5124 129.111 66.0402 128.77 65.717C128.438 65.3937 127.949 65.232 127.303 65.232C126.86 65.232 126.435 65.3086 126.027 65.4617C125.627 65.6149 125.286 65.819 125.006 66.0743L124.687 65.6149C125.019 65.3171 125.418 65.0874 125.886 64.9258C126.354 64.7556 126.843 64.6706 127.354 64.6706ZM126.996 70.9107C127.549 70.9107 128.017 70.783 128.4 70.5278C128.791 70.2726 129.085 69.9025 129.281 69.4176V68.1671H127.009C126.354 68.1671 125.878 68.2862 125.58 68.5244C125.291 68.7626 125.146 69.0901 125.146 69.507C125.146 69.9408 125.308 70.2854 125.631 70.5406C125.954 70.7873 126.409 70.9107 126.996 70.9107ZM138.777 70.8213V73.0417H138.177V71.3828H131.873V73.0417H131.261V70.8213H131.656C132.107 70.7958 132.413 70.447 132.575 69.7749C132.745 69.0944 132.864 68.1415 132.932 66.9165L133.022 64.7216H137.705V70.8213H138.777ZM133.519 66.9548C133.477 67.9671 133.392 68.8094 133.264 69.4814C133.136 70.1535 132.907 70.6001 132.575 70.8213H137.067V65.2959H133.596L133.519 66.9548ZM144.604 67.9501C145.583 68.1203 146.072 68.669 146.072 69.5963C146.072 70.1748 145.859 70.6172 145.434 70.9234C145.017 71.2297 144.387 71.3828 143.545 71.3828H140.661V64.7216H143.469C144.209 64.7216 144.787 64.8705 145.204 65.1682C145.629 65.4575 145.842 65.8743 145.842 66.4188C145.842 66.8101 145.731 67.1377 145.51 67.4014C145.298 67.6566 144.996 67.8395 144.604 67.9501ZM141.286 67.7587H143.43C144 67.7587 144.438 67.6524 144.745 67.4397C145.051 67.2185 145.204 66.9037 145.204 66.4954C145.204 66.0785 145.051 65.768 144.745 65.5638C144.447 65.3511 144.009 65.2448 143.43 65.2448H141.286V67.7587ZM143.532 70.8596C144.8 70.8596 145.434 70.43 145.434 69.5708C145.434 69.1199 145.289 68.7881 145 68.5754C144.711 68.3627 144.255 68.2564 143.634 68.2564H141.286V70.8596H143.532ZM150.992 71.4339C150.362 71.4339 149.792 71.2892 149.282 71C148.78 70.7107 148.384 70.3109 148.095 69.8005C147.806 69.2815 147.661 68.6988 147.661 68.0522C147.661 67.4057 147.806 66.8272 148.095 66.3167C148.384 65.7978 148.78 65.3937 149.282 65.1044C149.792 64.8152 150.362 64.6706 150.992 64.6706C151.621 64.6706 152.187 64.8152 152.689 65.1044C153.2 65.3937 153.599 65.7978 153.889 66.3167C154.178 66.8272 154.322 67.4057 154.322 68.0522C154.322 68.6988 154.178 69.2815 153.889 69.8005C153.599 70.3109 153.2 70.7107 152.689 71C152.187 71.2892 151.621 71.4339 150.992 71.4339ZM150.992 70.8596C151.502 70.8596 151.957 70.7405 152.357 70.5023C152.766 70.2641 153.085 69.9323 153.314 69.507C153.553 69.0816 153.672 68.5967 153.672 68.0522C153.672 67.5077 153.553 67.0228 153.314 66.5975C153.085 66.1721 152.766 65.8403 152.357 65.6021C151.957 65.3639 151.502 65.2448 150.992 65.2448C150.481 65.2448 150.022 65.3639 149.614 65.6021C149.214 65.8403 148.895 66.1721 148.657 66.5975C148.427 67.0228 148.312 67.5077 148.312 68.0522C148.312 68.5967 148.427 69.0816 148.657 69.507C148.895 69.9323 149.214 70.2641 149.614 70.5023C150.022 70.7405 150.481 70.8596 150.992 70.8596ZM158.659 68.2947H157.038V71.3828H156.4V64.7216H157.038V67.7459H158.659L161.173 64.7216H161.875L159.17 67.9501L162.079 71.3828H161.313L158.659 68.2947ZM165.736 64.6706C166.561 64.6706 167.195 64.8832 167.638 65.3086C168.08 65.7255 168.301 66.3422 168.301 67.1589V71.3828H167.689V70.196C167.476 70.5874 167.165 70.8936 166.757 71.1148C166.349 71.3275 165.86 71.4339 165.29 71.4339C164.549 71.4339 163.962 71.2595 163.529 70.9107C163.103 70.5619 162.891 70.1025 162.891 69.5325C162.891 68.9795 163.086 68.5329 163.478 68.1926C163.877 67.8438 164.511 67.6694 165.379 67.6694H167.663V67.1334C167.663 66.5124 167.493 66.0402 167.153 65.717C166.821 65.3937 166.332 65.232 165.685 65.232C165.243 65.232 164.817 65.3086 164.409 65.4617C164.009 65.6149 163.669 65.819 163.388 66.0743L163.069 65.6149C163.401 65.3171 163.801 65.0874 164.269 64.9258C164.737 64.7556 165.226 64.6706 165.736 64.6706ZM165.379 70.9107C165.932 70.9107 166.4 70.783 166.783 70.5278C167.174 70.2726 167.467 69.9025 167.663 69.4176V68.1671H165.392C164.737 68.1671 164.26 68.2862 163.962 68.5244C163.673 68.7626 163.529 69.0901 163.529 69.507C163.529 69.9408 163.69 70.2854 164.014 70.5406C164.337 70.7873 164.792 70.9107 165.379 70.9107ZM175.347 65.2959H172.744V71.3828H172.106V65.2959H169.503V64.7216H175.347V65.2959ZM179.056 71.4339C178.426 71.4339 177.856 71.2892 177.346 71C176.844 70.7107 176.448 70.3109 176.159 69.8005C175.87 69.2815 175.725 68.6988 175.725 68.0522C175.725 67.4057 175.87 66.8272 176.159 66.3167C176.448 65.7978 176.844 65.3937 177.346 65.1044C177.856 64.8152 178.426 64.6706 179.056 64.6706C179.685 64.6706 180.251 64.8152 180.753 65.1044C181.264 65.3937 181.663 65.7978 181.953 66.3167C182.242 66.8272 182.387 67.4057 182.387 68.0522C182.387 68.6988 182.242 69.2815 181.953 69.8005C181.663 70.3109 181.264 70.7107 180.753 71C180.251 71.2892 179.685 71.4339 179.056 71.4339ZM179.056 70.8596C179.566 70.8596 180.022 70.7405 180.421 70.5023C180.83 70.2641 181.149 69.9323 181.378 69.507C181.617 69.0816 181.736 68.5967 181.736 68.0522C181.736 67.5077 181.617 67.0228 181.378 66.5975C181.149 66.1721 180.83 65.8403 180.421 65.6021C180.022 65.3639 179.566 65.2448 179.056 65.2448C178.546 65.2448 178.086 65.3639 177.678 65.6021C177.278 65.8403 176.959 66.1721 176.721 66.5975C176.491 67.0228 176.376 67.5077 176.376 68.0522C176.376 68.5967 176.491 69.0816 176.721 69.507C176.959 69.9323 177.278 70.2641 177.678 70.5023C178.086 70.7405 178.546 70.8596 179.056 70.8596ZM188.408 67.9501C189.386 68.1203 189.875 68.669 189.875 69.5963C189.875 70.1748 189.662 70.6172 189.237 70.9234C188.82 71.2297 188.191 71.3828 187.348 71.3828H184.464V64.7216H187.272C188.012 64.7216 188.591 64.8705 189.007 65.1682C189.433 65.4575 189.645 65.8743 189.645 66.4188C189.645 66.8101 189.535 67.1377 189.314 67.4014C189.101 67.6566 188.799 67.8395 188.408 67.9501ZM185.09 67.7587H187.234C187.804 67.7587 188.242 67.6524 188.548 67.4397C188.854 67.2185 189.007 66.9037 189.007 66.4954C189.007 66.0785 188.854 65.768 188.548 65.5638C188.25 65.3511 187.812 65.2448 187.234 65.2448H185.09V67.7587ZM187.336 70.8596C188.603 70.8596 189.237 70.43 189.237 69.5708C189.237 69.1199 189.092 68.7881 188.803 68.5754C188.514 68.3627 188.059 68.2564 187.438 68.2564H185.09V70.8596H187.336ZM195.418 64.7216H196.056V70.4002L200.804 64.7216H201.365V71.3828H200.727V65.7042L195.98 71.3828H195.418V64.7216ZM212.971 64.6706C213.592 64.6706 214.149 64.8152 214.642 65.1044C215.136 65.3852 215.523 65.785 215.804 66.304C216.084 66.8144 216.225 67.3972 216.225 68.0522C216.225 68.6988 216.084 69.2815 215.804 69.8005C215.523 70.3109 215.136 70.7107 214.642 71C214.149 71.2892 213.592 71.4339 212.971 71.4339C212.375 71.4339 211.835 71.302 211.35 71.0383C210.874 70.7745 210.491 70.4045 210.202 69.9281C209.921 69.4517 209.764 68.9072 209.73 68.2947H208.032V71.3828H207.394V64.7216H208.032V67.7077H209.73C209.781 67.1122 209.951 66.5847 210.24 66.1253C210.529 65.6659 210.912 65.3086 211.388 65.0534C211.865 64.7982 212.392 64.6706 212.971 64.6706ZM212.971 70.8724C213.464 70.8724 213.911 70.7533 214.311 70.5151C214.711 70.2769 215.021 69.9451 215.242 69.5197C215.472 69.0858 215.587 68.5967 215.587 68.0522C215.587 67.4992 215.472 67.0101 215.242 66.5847C215.021 66.1593 214.711 65.8318 214.311 65.6021C213.911 65.3639 213.464 65.2448 212.971 65.2448C212.477 65.2448 212.031 65.3639 211.631 65.6021C211.231 65.8318 210.916 66.1593 210.687 66.5847C210.465 67.0101 210.355 67.4992 210.355 68.0522C210.355 68.5967 210.465 69.0858 210.687 69.5197C210.916 69.9451 211.231 70.2769 211.631 70.5151C212.031 70.7533 212.477 70.8724 212.971 70.8724ZM221.679 64.6706C222.3 64.6706 222.862 64.8152 223.364 65.1044C223.866 65.3937 224.257 65.7935 224.538 66.304C224.827 66.8144 224.972 67.3972 224.972 68.0522C224.972 68.7073 224.827 69.2943 224.538 69.8132C224.257 70.3237 223.866 70.7235 223.364 71.0127C222.862 71.2935 222.3 71.4339 221.679 71.4339C221.092 71.4339 220.561 71.2977 220.084 71.0255C219.608 70.7448 219.238 70.3577 218.974 69.8643V73.8584H218.336V64.7216H218.949V66.2912C219.212 65.7808 219.582 65.3852 220.059 65.1044C220.544 64.8152 221.084 64.6706 221.679 64.6706ZM221.641 70.8596C222.152 70.8596 222.611 70.7405 223.019 70.5023C223.428 70.2641 223.747 69.9323 223.976 69.507C224.215 69.0816 224.334 68.5967 224.334 68.0522C224.334 67.5077 224.215 67.0228 223.976 66.5975C223.747 66.1721 223.428 65.8403 223.019 65.6021C222.611 65.3639 222.152 65.2448 221.641 65.2448C221.131 65.2448 220.671 65.3639 220.263 65.6021C219.863 65.8403 219.544 66.1721 219.306 66.5975C219.076 67.0228 218.961 67.5077 218.961 68.0522C218.961 68.5967 219.076 69.0816 219.306 69.507C219.544 69.9323 219.863 70.2641 220.263 70.5023C220.671 70.7405 221.131 70.8596 221.641 70.8596ZM227.047 64.7216H227.685V70.4002L232.432 64.7216H232.993V71.3828H232.355V65.7042L227.608 71.3828H227.047V64.7216ZM242.011 70.8213V73.0417H241.411V71.3828H235.107V73.0417H234.494V70.8213H234.89C235.341 70.7958 235.647 70.447 235.809 69.7749C235.979 69.0944 236.098 68.1415 236.166 66.9165L236.255 64.7216H240.939V70.8213H242.011ZM236.753 66.9548C236.711 67.9671 236.625 68.8094 236.498 69.4814C236.37 70.1535 236.141 70.6001 235.809 70.8213H240.301V65.2959H236.83L236.753 66.9548ZM243.895 64.7216H244.533V70.4002L249.28 64.7216H249.842V71.3828H249.204V65.7042L244.456 71.3828H243.895V64.7216ZM257.379 64.7216V71.3828H256.741V68.5116C255.949 68.8774 255.158 69.0603 254.367 69.0603C253.584 69.0603 252.968 68.8817 252.517 68.5244C252.074 68.1671 251.853 67.6396 251.853 66.942V64.7216H252.491V66.9037C252.491 67.4227 252.666 67.8225 253.014 68.1033C253.363 68.384 253.844 68.5244 254.456 68.5244C255.154 68.5244 255.915 68.35 256.741 68.0012V64.7216H257.379ZM265.811 68.2053H260.082C260.099 68.7243 260.231 69.1879 260.477 69.5963C260.724 69.9961 261.056 70.3066 261.473 70.5278C261.898 70.749 262.374 70.8596 262.902 70.8596C263.336 70.8596 263.736 70.783 264.101 70.6299C264.476 70.4683 264.786 70.2343 265.033 69.9281L265.403 70.3492C265.114 70.698 264.748 70.966 264.306 71.1531C263.872 71.3403 263.4 71.4339 262.889 71.4339C262.226 71.4339 261.634 71.2892 261.115 71C260.596 70.7107 260.188 70.3109 259.89 69.8005C259.601 69.29 259.456 68.7073 259.456 68.0522C259.456 67.4057 259.593 66.8272 259.865 66.3167C260.146 65.7978 260.528 65.3937 261.013 65.1044C261.498 64.8152 262.043 64.6706 262.647 64.6706C263.251 64.6706 263.791 64.8152 264.267 65.1044C264.752 65.3852 265.131 65.7808 265.403 66.2912C265.684 66.8016 265.824 67.3801 265.824 68.0267L265.811 68.2053ZM262.647 65.232C262.179 65.232 261.758 65.3384 261.383 65.5511C261.009 65.7552 260.707 66.0487 260.477 66.4316C260.256 66.8059 260.129 67.2313 260.094 67.7077H265.199C265.173 67.2313 265.046 66.8059 264.816 66.4316C264.586 66.0573 264.284 65.7638 263.91 65.5511C263.536 65.3384 263.115 65.232 262.647 65.232ZM270.602 71.4339C269.955 71.4339 269.376 71.2892 268.866 71C268.356 70.7107 267.956 70.3109 267.666 69.8005C267.377 69.2815 267.233 68.6988 267.233 68.0522C267.233 67.3972 267.377 66.8144 267.666 66.304C267.956 65.785 268.356 65.3852 268.866 65.1044C269.376 64.8152 269.955 64.6706 270.602 64.6706C271.137 64.6706 271.622 64.7769 272.056 64.9896C272.499 65.1938 272.856 65.4958 273.128 65.8956L272.656 66.2402C272.418 65.9084 272.12 65.6617 271.763 65.5C271.414 65.3299 271.027 65.2448 270.602 65.2448C270.083 65.2448 269.615 65.3639 269.198 65.6021C268.789 65.8318 268.466 66.1593 268.228 66.5847C267.998 67.0101 267.883 67.4992 267.883 68.0522C267.883 68.6052 267.998 69.0944 268.228 69.5197C268.466 69.9451 268.789 70.2769 269.198 70.5151C269.615 70.7448 270.083 70.8596 270.602 70.8596C271.027 70.8596 271.414 70.7788 271.763 70.6172C272.12 70.447 272.418 70.196 272.656 69.8643L273.128 70.2088C272.856 70.6086 272.499 70.9149 272.056 71.1276C271.622 71.3318 271.137 71.4339 270.602 71.4339ZM277.271 68.2947H275.65V71.3828H275.012V64.7216H275.65V67.7459H277.271L279.785 64.7216H280.487L277.781 67.9501L280.691 71.3828H279.925L277.271 68.2947ZM282.265 64.7216H282.903V70.4002L287.65 64.7216H288.212V71.3828H287.574V65.7042L282.826 71.3828H282.265V64.7216ZM295.136 71.3828L292.852 68.4095L290.568 71.3828H289.84L292.482 67.9501L289.981 64.7216H290.708L292.852 67.4907L294.996 64.7216H295.71L293.209 67.9501L295.889 71.3828H295.136ZM306.207 64.7216L302.787 72.2888C302.532 72.8758 302.234 73.2927 301.893 73.5394C301.562 73.7861 301.166 73.9095 300.707 73.9095C300.4 73.9095 300.111 73.8584 299.839 73.7563C299.575 73.6543 299.35 73.5054 299.163 73.3097L299.482 72.8248C299.822 73.1736 300.235 73.348 300.719 73.348C301.043 73.348 301.319 73.2587 301.549 73.08C301.779 72.9014 301.991 72.5951 302.187 72.1612L302.544 71.3573L299.545 64.7216H300.222L302.889 70.681L305.556 64.7216H306.207ZM310.255 71.4339C309.609 71.4339 309.03 71.2892 308.52 71C308.009 70.7107 307.609 70.3109 307.32 69.8005C307.031 69.2815 306.886 68.6988 306.886 68.0522C306.886 67.3972 307.031 66.8144 307.32 66.304C307.609 65.785 308.009 65.3852 308.52 65.1044C309.03 64.8152 309.609 64.6706 310.255 64.6706C310.791 64.6706 311.276 64.7769 311.71 64.9896C312.152 65.1938 312.51 65.4958 312.782 65.8956L312.31 66.2402C312.071 65.9084 311.774 65.6617 311.416 65.5C311.068 65.3299 310.68 65.2448 310.255 65.2448C309.736 65.2448 309.268 65.3639 308.851 65.6021C308.443 65.8318 308.12 66.1593 307.882 66.5847C307.652 67.0101 307.537 67.4992 307.537 68.0522C307.537 68.6052 307.652 69.0944 307.882 69.5197C308.12 69.9451 308.443 70.2769 308.851 70.5151C309.268 70.7448 309.736 70.8596 310.255 70.8596C310.68 70.8596 311.068 70.7788 311.416 70.6172C311.774 70.447 312.071 70.196 312.31 69.8643L312.782 70.2088C312.51 70.6086 312.152 70.9149 311.71 71.1276C311.276 71.3318 310.791 71.4339 310.255 71.4339ZM319.598 64.7216V71.3828H318.96V65.2959H315.489L315.4 67.0696C315.349 67.9884 315.272 68.7583 315.17 69.3793C315.068 70.0004 314.894 70.5023 314.647 70.8851C314.4 71.268 314.06 71.4594 313.626 71.4594C313.498 71.4594 313.315 71.4296 313.077 71.3701L313.141 70.8213C313.277 70.8554 313.379 70.8724 313.447 70.8724C313.805 70.8724 314.077 70.698 314.264 70.3492C314.451 70.0004 314.579 69.5665 314.647 69.0476C314.715 68.5286 314.77 67.8523 314.813 67.0186L314.928 64.7216H319.598ZM327.778 64.7216L324.358 72.2888C324.103 72.8758 323.805 73.2927 323.465 73.5394C323.133 73.7861 322.738 73.9095 322.278 73.9095C321.972 73.9095 321.683 73.8584 321.41 73.7563C321.147 73.6543 320.921 73.5054 320.734 73.3097L321.053 72.8248C321.393 73.1736 321.806 73.348 322.291 73.348C322.614 73.348 322.891 73.2587 323.12 73.08C323.35 72.9014 323.563 72.5951 323.758 72.1612L324.116 71.3573L321.117 64.7216H321.793L324.46 70.681L327.127 64.7216H327.778ZM333.877 65.2959H329.959V71.3828H329.321V64.7216H333.877V65.2959Z" fill="white"/>
<g clip-path="url(#clip0_383_11793)">
<path fill-rule="evenodd" clip-rule="evenodd" d="M9.64928 40.6199C11.9701 37.4197 15.2437 34.638 18.9327 32.3979L19.4701 15.8307C18.5662 16.003 17.5401 16.323 16.3919 16.7661C7.35286 21.3449 -2.39468 33.7272 9.64928 40.6199ZM19.9343 31.8071C20.3984 31.5363 20.8626 31.2901 21.3268 31.0439L21.791 15.6584C21.4001 15.6091 20.9603 15.6337 20.4717 15.683L19.9343 31.8071ZM20.6183 11.2519L20.5206 14.0336C25.4066 12.532 30.4147 11.4242 34.519 10.0703C32.3936 11.7689 30.0727 13.1228 27.5564 14.1567L27.1655 28.533C30.9278 27.2037 34.7877 26.3913 38.33 26.219C45.0483 25.7513 51.8886 29.4438 47.3447 36.1889C45.9522 38.2567 43.4115 40.1768 39.9913 42.1954C35.5939 44.6325 31.1476 46.1833 26.6525 46.848L26.3105 59.1318C34.1525 58.0733 42.532 54.6516 45.7079 46.7741C47.8333 46.528 49.1525 46.3557 49.6411 46.3064C44.3886 55.5378 36.6444 60.6827 26.3838 61.7166C25.9929 66 24.5515 69.6433 22.0597 72.6219C33.3219 68.8801 43.7046 68.8309 54.5026 65.7784C51.9375 69.3725 49.5189 72.3757 47.2958 74.7882C48.6639 72.5973 49.2258 71.2188 48.615 70.6772C41.8235 73.9266 34.9831 75.5513 28.045 75.576C24.6981 75.576 21.5222 75.7483 18.5418 76.0437L18.4196 79.6624L17.418 79.8593L17.5401 76.1421C17.2958 76.1667 17.0271 76.1914 16.7828 76.2406C14.1688 76.4622 10.7731 77.053 6.54668 78.013C11.677 75.2559 15.4147 72.2773 17.7844 69.0771L18.0043 62.2582C9.03853 61.1258 2.41802 54.0361 7.40172 44.7309C-3.59175 39.0198 -1.12432 27.2037 7.35286 20.3848C10.7242 17.6523 15.0727 15.8307 19.5678 14.3783L19.6656 11.6458L20.6183 11.2519ZM19.8854 33.3333L19.5434 43.894C20.0076 43.9186 20.4717 43.9432 20.9603 43.9432L21.3024 32.644C20.8138 32.841 20.3496 33.0871 19.8854 33.3333ZM19.4457 47.168L19.0548 58.9841C19.5434 59.0826 20.032 59.1565 20.5206 59.1811L20.8626 47.1926C20.3985 47.1926 19.9099 47.1926 19.4457 47.168ZM18.9571 62.332L18.7861 67.4524C19.7388 65.803 20.3252 64.1291 20.5939 62.3813C20.032 62.3813 19.4945 62.3813 18.9571 62.332ZM18.0776 58.7626L18.4685 47.0695C15.4636 46.8234 12.4587 46.1833 9.40498 45.174C6.79098 52.116 11.8724 57.2117 18.0776 58.7626ZM18.5662 43.8201L18.8838 33.9241C15.5369 35.9181 12.8496 38.3798 10.7975 41.3092C12.8007 42.6877 15.3903 43.5247 18.5662 43.8201ZM27.0923 30.3547L26.7258 43.5001C28.6313 43.2539 30.659 42.8601 32.8333 42.3677C50.8382 38.1336 44.9017 25.9482 29.9506 29.5669C28.9734 29.8131 28.0206 30.0839 27.0923 30.3547Z" fill="white"/>
</g>
<path d="M85.4335 17.2968V18.2207C84.3865 18.2514 83.5859 18.3746 83.0316 18.5902C82.5081 18.7749 82.154 19.1445 81.9692 19.6988C81.7845 20.2223 81.6921 21.0537 81.6921 22.1931V45.1038C81.6921 46.2123 81.7845 47.0438 81.9692 47.5981C82.154 48.1524 82.5081 48.5219 83.0316 48.7067C83.5859 48.8606 84.3865 48.9376 85.4335 48.9376H88.8055C90.2528 48.9376 91.423 48.7836 92.316 48.4757C93.2398 48.1678 93.9635 47.6905 94.487 47.0438C95.0413 46.3663 95.457 45.4733 95.7341 44.3647C96.0113 43.2561 96.2268 41.9012 96.3808 40.2999H97.4432C97.3508 41.2545 97.3046 42.5171 97.3046 44.0876C97.3046 44.6726 97.32 45.5195 97.3508 46.6281C97.4124 47.7059 97.5048 48.8298 97.6279 50C96.0575 49.9384 94.2868 49.9076 92.316 49.9076C90.3452 49.8768 88.5899 49.8614 87.0502 49.8614C86.3728 49.8614 85.4951 49.8614 84.4173 49.8614C83.3703 49.8614 82.231 49.8768 80.9992 49.9076C79.7675 49.9076 78.5203 49.923 77.2578 49.9538C75.9952 49.9538 74.7942 49.9692 73.6549 50V49.0762C74.7019 49.0146 75.4871 48.8914 76.0106 48.7067C76.5649 48.5219 76.9344 48.1524 77.1192 47.5981C77.3039 47.0438 77.3963 46.2123 77.3963 45.1038V22.1931C77.3963 21.0537 77.3039 20.2223 77.1192 19.6988C76.9344 19.1445 76.5649 18.7749 76.0106 18.5902C75.4871 18.3746 74.7019 18.2514 73.6549 18.2207V17.2968C74.3015 17.3276 75.1484 17.3584 76.1954 17.3892C77.2424 17.42 78.3663 17.4354 79.5673 17.4354C80.6451 17.4354 81.7075 17.42 82.7545 17.3892C83.8323 17.3584 84.7253 17.3276 85.4335 17.2968ZM111.434 25.565C114.144 25.565 116.253 26.3964 117.762 28.0593C119.302 29.6914 120.072 32.2473 120.072 35.727H103.766L103.72 34.8494H115.637C115.699 33.3405 115.576 31.9548 115.268 30.6922C114.96 29.3989 114.467 28.3673 113.79 27.5974C113.143 26.8276 112.296 26.4426 111.249 26.4426C109.833 26.4426 108.57 27.1509 107.462 28.5674C106.384 29.9839 105.737 32.2319 105.522 35.3113L105.66 35.4961C105.599 35.958 105.552 36.4661 105.522 37.0204C105.491 37.5746 105.475 38.1289 105.475 38.6832C105.475 40.7772 105.814 42.5787 106.492 44.0876C107.169 45.5965 108.047 46.7512 109.124 47.5519C110.233 48.3217 111.372 48.7067 112.543 48.7067C113.466 48.7067 114.344 48.5681 115.175 48.2909C116.007 47.983 116.777 47.4903 117.485 46.8128C118.193 46.1354 118.809 45.2269 119.333 44.0876L120.256 44.4571C119.918 45.4733 119.363 46.4587 118.594 47.4133C117.824 48.3679 116.854 49.1532 115.684 49.769C114.513 50.3541 113.158 50.6467 111.619 50.6467C109.402 50.6467 107.492 50.1386 105.891 49.1224C104.321 48.1062 103.104 46.705 102.242 44.919C101.411 43.1022 100.995 41.0236 100.995 38.6832C100.995 35.9734 101.426 33.6484 102.288 31.7084C103.15 29.7376 104.367 28.2287 105.937 27.1817C107.508 26.1039 109.34 25.565 111.434 25.565ZM132.075 58.6839C130.443 58.6839 128.903 58.5145 127.456 58.1758C126.008 57.8371 124.838 57.2982 123.945 56.5591C123.083 55.8508 122.652 54.9424 122.652 53.8338C122.652 52.7561 123.083 51.8322 123.945 51.0624C124.807 50.2925 125.978 49.7075 127.456 49.3071L127.733 50.0462C127.055 50.2617 126.517 50.6929 126.116 51.3395C125.716 51.9862 125.516 52.7099 125.516 53.5105C125.516 54.927 126.162 56.0048 127.456 56.7439C128.78 57.5137 130.489 57.8986 132.583 57.8986C133.969 57.8986 135.324 57.7139 136.648 57.3444C137.972 57.0056 139.065 56.4205 139.927 55.5891C140.789 54.7577 141.221 53.6645 141.221 52.3095C141.221 51.2933 140.851 50.4619 140.112 49.8152C139.404 49.1378 137.987 48.799 135.862 48.799H132.444C131.459 48.799 130.504 48.7221 129.58 48.5681C128.657 48.4141 127.902 48.0908 127.317 47.5981C126.732 47.1054 126.44 46.3509 126.44 45.3347C126.44 44.2877 126.871 43.2869 127.733 42.3323C128.595 41.3469 130.181 40.3461 132.491 39.3299L133.045 39.7456C131.998 40.2999 131.089 40.8696 130.32 41.4547C129.55 42.009 129.165 42.671 129.165 43.4409C129.165 44.4263 129.904 44.919 131.382 44.919H137.156C138.449 44.919 139.635 45.1038 140.713 45.4733C141.821 45.8428 142.714 46.4279 143.392 47.2285C144.069 48.0292 144.408 49.0762 144.408 50.3695C144.408 51.8168 143.946 53.1718 143.022 54.4343C142.098 55.6969 140.713 56.7131 138.865 57.4829C137.048 58.2836 134.785 58.6839 132.075 58.6839ZM132.306 40.1613C130.797 40.1613 129.427 39.915 128.195 39.4223C126.963 38.8988 125.993 38.0981 125.285 37.0204C124.576 35.9426 124.222 34.5568 124.222 32.8632C124.222 31.1695 124.576 29.7838 125.285 28.706C125.993 27.6282 126.963 26.843 128.195 26.3503C129.427 25.8268 130.797 25.565 132.306 25.565C133.845 25.565 135.216 25.8268 136.417 26.3503C137.649 26.843 138.619 27.6282 139.327 28.706C140.035 29.7838 140.389 31.1695 140.389 32.8632C140.389 34.5568 140.035 35.9426 139.327 37.0204C138.619 38.0981 137.649 38.8988 136.417 39.4223C135.216 39.915 133.845 40.1613 132.306 40.1613ZM132.306 39.3299C133.476 39.3299 134.384 38.868 135.031 37.9442C135.708 37.0204 136.047 35.3267 136.047 32.8632C136.047 30.3997 135.708 28.706 135.031 27.7822C134.384 26.8584 133.476 26.3964 132.306 26.3964C131.166 26.3964 130.258 26.8584 129.58 27.7822C128.903 28.706 128.564 30.3997 128.564 32.8632C128.564 35.3267 128.903 37.0204 129.58 37.9442C130.258 38.868 131.166 39.3299 132.306 39.3299ZM138.957 29.3989L138.126 29.0755C138.557 28.0285 139.296 27.1047 140.343 26.3041C141.39 25.5034 142.483 25.1031 143.623 25.1031C144.423 25.1031 145.07 25.3341 145.563 25.796C146.055 26.2271 146.302 26.8891 146.302 27.7822C146.302 28.7368 146.04 29.4143 145.516 29.8146C145.024 30.1841 144.516 30.3689 143.992 30.3689C143.53 30.3689 143.099 30.2149 142.699 29.907C142.298 29.5682 142.067 29.0447 142.006 28.3365C141.944 27.6282 142.16 26.7198 142.653 25.6112L143.253 25.7498C141.96 26.2425 141.036 26.766 140.482 27.3203C139.927 27.8438 139.419 28.5366 138.957 29.3989ZM154.087 50.3233C152.825 50.3233 151.732 50.0924 150.808 49.6305C149.884 49.1378 149.176 48.4603 148.683 47.5981C148.221 46.7358 147.99 45.735 147.99 44.5957C147.99 43.2407 148.298 42.1321 148.914 41.2699C149.561 40.4077 150.377 39.7148 151.362 39.1913C152.347 38.6678 153.379 38.2367 154.457 37.898C155.565 37.5285 156.612 37.1897 157.598 36.8818C158.583 36.543 159.384 36.1581 160 35.727C160.646 35.2959 160.97 34.7262 160.97 34.0179V31.1541C160.97 29.8608 160.77 28.8754 160.369 28.1979C160 27.5204 159.492 27.0739 158.845 26.8584C158.198 26.612 157.475 26.4888 156.674 26.4888C155.904 26.4888 155.073 26.5966 154.18 26.8122C153.317 27.0277 152.625 27.4742 152.101 28.1517C152.686 28.2749 153.194 28.5828 153.625 29.0755C154.057 29.5682 154.272 30.1995 154.272 30.9693C154.272 31.7392 154.026 32.3551 153.533 32.817C153.04 33.2481 152.409 33.4637 151.639 33.4637C150.746 33.4637 150.084 33.1865 149.653 32.6322C149.253 32.0471 149.052 31.4005 149.052 30.6922C149.052 29.8916 149.253 29.2449 149.653 28.7522C150.053 28.2595 150.561 27.7976 151.177 27.3665C151.886 26.8738 152.794 26.458 153.903 26.1193C155.042 25.7498 156.32 25.565 157.736 25.565C158.999 25.565 160.077 25.719 160.97 26.0269C161.863 26.3041 162.602 26.7198 163.187 27.2741C163.988 28.0131 164.511 28.9215 164.757 29.9993C165.004 31.0463 165.127 32.3089 165.127 33.787V46.6281C165.127 47.3979 165.235 47.9522 165.45 48.2909C165.697 48.6297 166.066 48.799 166.559 48.799C166.898 48.799 167.221 48.7221 167.529 48.5681C167.837 48.4141 168.206 48.1678 168.637 47.829L169.146 48.6143C168.499 49.107 167.883 49.5227 167.298 49.8614C166.713 50.1694 165.928 50.3233 164.942 50.3233C164.049 50.3233 163.31 50.1694 162.725 49.8614C162.14 49.5535 161.693 49.107 161.385 48.5219C161.108 47.906 160.97 47.1362 160.97 46.2123C160.138 47.5981 159.138 48.6297 157.967 49.3071C156.828 49.9846 155.535 50.3233 154.087 50.3233ZM155.75 48.4757C156.766 48.4757 157.706 48.1832 158.568 47.5981C159.461 47.013 160.261 46.1354 160.97 44.9652V35.9118C160.6 36.4353 160.061 36.8818 159.353 37.2513C158.645 37.59 157.875 37.9442 157.044 38.3137C156.212 38.6524 155.411 39.0682 154.642 39.5609C153.903 40.0228 153.287 40.6386 152.794 41.4085C152.301 42.1783 152.055 43.1791 152.055 44.4109C152.055 45.6427 152.378 46.6281 153.025 47.3671C153.702 48.1062 154.611 48.4757 155.75 48.4757ZM177.878 13.7863V45.7042C177.878 46.9976 178.14 47.8752 178.663 48.3371C179.217 48.799 180.126 49.03 181.388 49.03V50C180.865 49.9692 180.064 49.9384 178.986 49.9076C177.939 49.846 176.877 49.8152 175.799 49.8152C174.752 49.8152 173.69 49.846 172.612 49.9076C171.534 49.9384 170.734 49.9692 170.21 50V49.03C171.473 49.03 172.366 48.799 172.889 48.3371C173.443 47.8752 173.721 46.9976 173.721 45.7042V19.3292C173.721 17.9435 173.474 16.9273 172.982 16.2806C172.489 15.6032 171.565 15.2644 170.21 15.2644V14.2944C171.195 14.3868 172.15 14.433 173.074 14.433C173.967 14.433 174.814 14.3868 175.614 14.2944C176.446 14.1713 177.2 14.0019 177.878 13.7863ZM218.903 17.2968C218.779 18.3746 218.687 19.4216 218.625 20.4378C218.595 21.454 218.579 22.2239 218.579 22.7474C218.579 23.3017 218.595 23.8405 218.625 24.364C218.656 24.8567 218.687 25.2725 218.718 25.6112H217.655C217.471 23.7944 217.209 22.3624 216.87 21.3154C216.531 20.2377 215.946 19.4832 215.115 19.0521C214.314 18.5902 213.098 18.3592 211.466 18.3592H207.632C206.585 18.3592 205.784 18.4516 205.23 18.6364C204.707 18.7903 204.352 19.1445 204.168 19.6988C203.983 20.2223 203.89 21.0537 203.89 22.1931V45.1038C203.89 46.2123 203.983 47.0438 204.168 47.5981C204.352 48.1524 204.707 48.5219 205.23 48.7067C205.784 48.8606 206.585 48.9376 207.632 48.9376H211.004C212.944 48.9376 214.407 48.6759 215.392 48.1524C216.408 47.6289 217.132 46.782 217.563 45.6119C218.025 44.4109 218.364 42.7942 218.579 40.7618H219.642C219.549 41.5933 219.503 42.7018 219.503 44.0876C219.503 44.6726 219.518 45.5195 219.549 46.6281C219.611 47.7059 219.703 48.8298 219.826 50C218.256 49.9384 216.485 49.9076 214.514 49.9076C212.544 49.8768 210.788 49.8614 209.249 49.8614C208.571 49.8614 207.694 49.8614 206.616 49.8614C205.569 49.8614 204.429 49.8768 203.198 49.9076C201.966 49.9076 200.719 49.923 199.456 49.9538C198.194 49.9538 196.993 49.9692 195.853 50V49.0762C196.9 49.0146 197.686 48.8914 198.209 48.7067C198.763 48.5219 199.133 48.1524 199.318 47.5981C199.502 47.0438 199.595 46.2123 199.595 45.1038V22.1931C199.595 21.0537 199.502 20.2223 199.318 19.6988C199.133 19.1445 198.763 18.7749 198.209 18.5902C197.686 18.3746 196.9 18.2514 195.853 18.2207V17.2968C196.993 17.3276 198.194 17.3584 199.456 17.3892C200.719 17.3892 201.966 17.4046 203.198 17.4354C204.429 17.4354 205.569 17.4354 206.616 17.4354C207.694 17.4354 208.571 17.4354 209.249 17.4354C210.665 17.4354 212.266 17.4354 214.052 17.4354C215.869 17.4046 217.486 17.3584 218.903 17.2968ZM210.958 33.0941C210.958 33.0941 210.958 33.2481 210.958 33.556C210.958 33.864 210.958 34.0179 210.958 34.0179H202.505C202.505 34.0179 202.505 33.864 202.505 33.556C202.505 33.2481 202.505 33.0941 202.505 33.0941H210.958ZM212.297 26.9969C212.174 28.7522 212.112 30.0917 212.112 31.0155C212.143 31.9394 212.159 32.7862 212.159 33.556C212.159 34.3259 212.174 35.1727 212.205 36.0965C212.236 37.0204 212.313 38.3599 212.436 40.1151H211.373C211.25 39.1297 211.096 38.1751 210.912 37.2513C210.758 36.2967 210.388 35.5268 209.803 34.9418C209.249 34.3259 208.294 34.0179 206.939 34.0179V33.0941C207.955 33.0941 208.725 32.894 209.249 32.4936C209.803 32.0625 210.203 31.5236 210.45 30.877C210.696 30.2303 210.865 29.5682 210.958 28.8908C211.05 28.1825 211.142 27.5512 211.235 26.9969H212.297ZM231.853 26.2117V27.1817C231.268 27.1817 230.776 27.3203 230.375 27.5974C229.975 27.8746 229.929 28.2595 230.237 28.7522L242.57 46.7204C243.093 47.4903 243.555 48.0446 243.955 48.3833C244.356 48.6913 244.848 48.9068 245.433 49.03V50C245.125 49.9692 244.648 49.9384 244.002 49.9076C243.386 49.846 242.77 49.8152 242.154 49.8152C241.199 49.8152 240.168 49.846 239.059 49.9076C237.981 49.9384 237.196 49.9692 236.703 50V49.03C237.319 49.03 237.827 48.8914 238.228 48.6143C238.628 48.3063 238.659 47.9214 238.32 47.4595L225.987 29.4912C225.371 28.5982 224.878 28.0131 224.509 27.736C224.139 27.428 223.678 27.2433 223.123 27.1817V26.2117C223.431 26.2425 223.908 26.2887 224.555 26.3503C225.202 26.381 225.818 26.3964 226.403 26.3964C227.388 26.3964 228.42 26.381 229.498 26.3503C230.575 26.2887 231.361 26.2425 231.853 26.2117ZM233.1 37.9442C233.1 37.9442 233.131 38.052 233.193 38.2675C233.254 38.4523 233.316 38.6524 233.378 38.868C233.47 39.0835 233.516 39.1913 233.516 39.1913L229.682 44.1799C228.882 45.2269 228.451 46.1046 228.389 46.8128C228.358 47.5211 228.651 48.06 229.267 48.4295C229.882 48.7682 230.729 48.9838 231.807 49.0762V50C231.284 49.9692 230.699 49.9538 230.052 49.9538C229.405 49.923 228.774 49.9076 228.158 49.9076C227.573 49.8768 227.034 49.8614 226.541 49.8614C225.833 49.8614 225.186 49.8768 224.601 49.9076C224.047 49.9076 223.524 49.9384 223.031 50V49.0762C223.616 49.0146 224.216 48.7528 224.832 48.2909C225.479 47.7982 226.233 46.9822 227.096 45.8428L233.1 37.9442ZM244.51 26.2117V27.1355C243.925 27.1971 243.278 27.505 242.57 28.0593C241.892 28.5828 241.184 29.3527 240.445 30.3689L235.133 37.7132C235.133 37.7132 235.102 37.6208 235.04 37.4361C234.979 37.2205 234.917 37.0204 234.856 36.8356C234.794 36.62 234.763 36.5123 234.763 36.5123L238.366 31.4774C239.044 30.5228 239.475 29.7376 239.66 29.1217C239.844 28.5058 239.737 28.0439 239.336 27.736C238.967 27.3972 238.228 27.1971 237.119 27.1355V26.2117C237.92 26.2425 238.582 26.2733 239.105 26.3041C239.66 26.3349 240.291 26.3503 240.999 26.3503C241.707 26.3503 242.339 26.3349 242.893 26.3041C243.478 26.2733 244.017 26.2425 244.51 26.2117ZM254.697 25.7036V54.0648C254.697 55.3889 255.082 56.2666 255.852 56.6977C256.653 57.1596 257.746 57.3905 259.132 57.3905V58.3606C258.454 58.3298 257.515 58.2836 256.314 58.222C255.113 58.1912 253.835 58.1758 252.48 58.1758C251.525 58.1758 250.571 58.1912 249.616 58.222C248.692 58.2836 247.984 58.3298 247.491 58.3606V57.3905C248.6 57.3905 249.385 57.1904 249.847 56.7901C250.309 56.3897 250.54 55.6353 250.54 54.5267V31.2465C250.54 29.8608 250.294 28.8446 249.801 28.1979C249.308 27.5204 248.384 27.1817 247.03 27.1817V26.2117C248.015 26.3041 248.97 26.3503 249.893 26.3503C250.786 26.3503 251.633 26.3041 252.434 26.2117C253.265 26.0885 254.02 25.9191 254.697 25.7036ZM262.088 25.565C263.72 25.565 265.183 26.0115 266.476 26.9045C267.769 27.7668 268.785 29.0447 269.525 30.7384C270.294 32.4321 270.679 34.526 270.679 37.0204C270.679 38.6832 270.479 40.3307 270.079 41.9628C269.678 43.5641 269.047 45.0268 268.185 46.3509C267.354 47.6443 266.26 48.6913 264.905 49.4919C263.581 50.2617 261.98 50.6467 260.102 50.6467C258.654 50.6467 257.392 50.3079 256.314 49.6305C255.267 48.953 254.559 48.137 254.189 47.1824L254.651 46.5357C255.082 47.3979 255.698 48.1216 256.499 48.7067C257.33 49.2917 258.362 49.5843 259.593 49.5843C261.318 49.5843 262.657 49.0454 263.612 47.9676C264.567 46.8898 265.229 45.4579 265.598 43.6718C265.999 41.855 266.199 39.8534 266.199 37.667C266.199 35.2035 265.999 33.1865 265.598 31.616C265.198 30.0455 264.597 28.8754 263.797 28.1055C262.996 27.3357 262.011 26.9507 260.841 26.9507C259.332 26.9507 257.961 27.582 256.73 28.8446C255.498 30.0763 254.713 31.9548 254.374 34.4799L253.82 33.8332C254.158 31.2157 255.082 29.1833 256.591 27.736C258.131 26.2887 259.963 25.565 262.088 25.565ZM285.417 25.565C288.127 25.565 290.236 26.3964 291.745 28.0593C293.285 29.6914 294.054 32.2473 294.054 35.727H277.749L277.703 34.8494H289.62C289.682 33.3405 289.558 31.9548 289.251 30.6922C288.943 29.3989 288.45 28.3673 287.772 27.5974C287.126 26.8276 286.279 26.4426 285.232 26.4426C283.815 26.4426 282.553 27.1509 281.444 28.5674C280.367 29.9839 279.72 32.2319 279.504 35.3113L279.643 35.4961C279.581 35.958 279.535 36.4661 279.504 37.0204C279.473 37.5746 279.458 38.1289 279.458 38.6832C279.458 40.7772 279.797 42.5787 280.474 44.0876C281.152 45.5965 282.029 46.7512 283.107 47.5519C284.216 48.3217 285.355 48.7067 286.525 48.7067C287.449 48.7067 288.327 48.5681 289.158 48.2909C289.99 47.983 290.759 47.4903 291.468 46.8128C292.176 46.1354 292.792 45.2269 293.315 44.0876L294.239 44.4571C293.9 45.4733 293.346 46.4587 292.576 47.4133C291.806 48.3679 290.836 49.1532 289.666 49.769C288.496 50.3541 287.141 50.6467 285.601 50.6467C283.384 50.6467 281.475 50.1386 279.874 49.1224C278.303 48.1062 277.087 46.705 276.225 44.919C275.393 43.1022 274.978 41.0236 274.978 38.6832C274.978 35.9734 275.409 33.6484 276.271 31.7084C277.133 29.7376 278.35 28.2287 279.92 27.1817C281.49 26.1039 283.323 25.565 285.417 25.565ZM311.924 25.565C312.755 25.565 313.479 25.7344 314.095 26.0731C314.741 26.4118 315.234 26.8584 315.573 27.4126C315.942 27.9361 316.127 28.5366 316.127 29.2141C316.127 29.9839 315.881 30.6614 315.388 31.2465C314.926 31.8316 314.295 32.1241 313.494 32.1241C312.848 32.1241 312.278 31.924 311.785 31.5236C311.293 31.0925 311.046 30.492 311.046 29.7222C311.046 29.1371 311.2 28.6444 311.508 28.2441C311.847 27.813 312.216 27.4742 312.617 27.2279C312.401 26.9199 312.078 26.766 311.647 26.766C310.692 26.766 309.814 27.0585 309.014 27.6436C308.213 28.1979 307.536 28.9215 306.981 29.8146C306.427 30.7076 305.996 31.6622 305.688 32.6784C305.38 33.6638 305.226 34.5876 305.226 35.4499V45.2423C305.226 46.7512 305.657 47.7674 306.519 48.2909C307.412 48.7836 308.613 49.03 310.122 49.03V50C309.414 49.9692 308.413 49.9384 307.12 49.9076C305.827 49.846 304.456 49.8152 303.009 49.8152C301.962 49.8152 300.915 49.846 299.868 49.9076C298.852 49.9384 298.082 49.9692 297.558 50V49.03C298.821 49.03 299.714 48.799 300.237 48.3371C300.792 47.8752 301.069 46.9976 301.069 45.7042V31.2465C301.069 29.8608 300.823 28.8446 300.33 28.1979C299.837 27.5204 298.913 27.1817 297.558 27.1817V26.2117C298.544 26.3041 299.498 26.3503 300.422 26.3503C301.315 26.3503 302.162 26.3041 302.963 26.2117C303.794 26.0885 304.549 25.9191 305.226 25.7036V31.4774C305.565 30.5844 306.042 29.6914 306.658 28.7984C307.305 27.8746 308.075 27.1047 308.968 26.4888C309.861 25.8729 310.846 25.565 311.924 25.565ZM325.565 18.544V26.2579H332.401V27.1817H325.565V45.0576C325.565 46.5049 325.826 47.5211 326.35 48.1062C326.873 48.6913 327.597 48.9838 328.521 48.9838C329.445 48.9838 330.245 48.6143 330.923 47.8752C331.6 47.1054 332.185 45.8274 332.678 44.0414L333.602 44.2723C333.294 46.0584 332.678 47.5673 331.754 48.799C330.861 50.0308 329.475 50.6467 327.597 50.6467C326.55 50.6467 325.688 50.5081 325.01 50.231C324.333 49.9846 323.732 49.6151 323.209 49.1224C322.531 48.4141 322.054 47.5673 321.777 46.5819C321.531 45.5965 321.407 44.2877 321.407 42.6556V27.1817H316.973V26.2579H321.407V19.1907C322.177 19.1599 322.916 19.0983 323.625 19.0059C324.333 18.9135 324.979 18.7595 325.565 18.544Z" fill="white"/>
<defs>
<clipPath id="clip0_383_11793">
<rect width="54.4543" height="69.7397" fill="white" transform="translate(0 10.0703)"/>
</clipPath>
</defs>
</svg>
