<svg width="582" height="100" viewBox="0 0 582 100" fill="none" xmlns="http://www.w3.org/2000/svg">
<g clip-path="url(#clip0_606_8)">
<path fill-rule="evenodd" clip-rule="evenodd" d="M12.9658 47.0491C16.0843 42.7491 20.483 39.0113 25.4397 36.0013L26.1619 13.7401C24.9474 13.9717 23.5687 14.4017 22.0258 14.9971C9.88011 21.1495 -3.21755 37.7875 12.9658 47.0491ZM26.7856 35.2074C27.4093 34.8436 28.033 34.5128 28.6567 34.182L29.2804 13.5086C28.7552 13.4424 28.1643 13.4755 27.5078 13.5417L26.7856 35.2074ZM27.7048 7.58772L27.5735 11.3255C34.1387 9.30775 40.8681 7.81926 46.3829 6C43.527 8.28235 40.4085 10.1016 37.0274 11.4909L36.5022 30.8081C41.5574 29.0219 46.744 27.9304 51.5038 27.6988C60.531 27.0704 69.7223 32.032 63.6167 41.0952C61.7456 43.8737 58.3316 46.4538 53.736 49.1661C47.8272 52.4408 41.8529 54.5247 35.8128 55.4178L35.3533 71.9234C45.8905 70.5011 57.1499 65.9033 61.4173 55.3185C64.2732 54.9877 66.0458 54.7562 66.7023 54.69C59.6447 67.0941 49.2388 74.0073 35.4517 75.3966C34.9265 81.152 32.9898 86.0475 29.6415 90.0499C44.7744 85.0221 58.7256 84.9559 73.2347 80.8543C69.788 85.6836 66.5382 89.7191 63.551 92.9607C65.3893 90.0168 66.1443 88.1645 65.3236 87.4368C56.1979 91.803 47.0066 93.9861 37.6839 94.0192C33.1867 94.0192 28.9193 94.2507 24.9145 94.6476L24.7504 99.51L23.4045 99.7747L23.5687 94.78C23.2404 94.813 22.8793 94.8461 22.551 94.9123C19.0386 95.21 14.4758 96.0038 8.79685 97.2938C15.6904 93.5892 20.7128 89.5868 23.8969 85.2867L24.1924 76.1243C12.1451 74.6027 3.24922 65.0764 9.94577 52.5731C-4.82603 44.8991 -1.51059 29.0219 9.88012 19.8595C14.4101 16.1879 20.2532 13.7401 26.2932 11.7886L26.4245 8.11696L27.7048 7.58772ZM26.72 37.2582L26.2604 51.4485C26.8841 51.4815 27.5078 51.5146 28.1643 51.5146L28.6239 36.332C27.9674 36.5967 27.3437 36.9274 26.72 37.2582ZM26.1291 55.8478L25.6039 71.7249C26.2604 71.8573 26.9169 71.9565 27.5735 71.9896L28.033 55.8808C27.4093 55.8808 26.7528 55.8808 26.1291 55.8478ZM25.4726 76.2235L25.2428 83.1036C26.523 80.8874 27.3108 78.6381 27.6719 76.2896C26.9169 76.2896 26.1948 76.2896 25.4726 76.2235ZM24.2908 71.4273L24.816 55.7155C20.7784 55.3847 16.7408 54.5247 12.6375 53.1685C9.12511 62.4963 15.953 69.3434 24.2908 71.4273ZM24.9474 51.3492L25.3741 38.0521C20.8769 40.7314 17.266 44.0391 14.5086 47.9753C17.2004 49.8277 20.6799 50.9523 24.9474 51.3492ZM36.4037 33.2558L35.9113 50.9192C38.4718 50.5884 41.1963 50.0592 44.1179 49.3977C68.3108 43.7083 60.334 27.335 40.2444 32.1974C38.9313 32.5281 37.6511 32.892 36.4037 33.2558Z" fill="black"/>
</g>
<path d="M106.414 18.9496V19.9241C105.309 19.9566 104.465 20.0865 103.88 20.3139C103.328 20.5089 102.954 20.8987 102.759 21.4834C102.564 22.0357 102.467 22.9128 102.467 24.1148V48.284C102.467 49.4535 102.564 50.3306 102.759 50.9153C102.954 51.5001 103.328 51.8899 103.88 52.0848C104.465 52.2473 105.309 52.3285 106.414 52.3285H109.971C111.498 52.3285 112.732 52.166 113.674 51.8412C114.649 51.5163 115.412 51.0128 115.964 50.3306C116.549 49.6159 116.988 48.6738 117.28 47.5044C117.573 46.3349 117.8 44.9055 117.962 43.2163H119.083C118.986 44.2233 118.937 45.5552 118.937 47.212C118.937 47.8292 118.953 48.7226 118.986 49.892C119.051 51.029 119.148 52.2148 119.278 53.4492C117.621 53.3842 115.753 53.3518 113.674 53.3518C111.595 53.3193 109.743 53.303 108.119 53.303C107.405 53.303 106.479 53.303 105.342 53.303C104.237 53.303 103.035 53.3193 101.736 53.3518C100.436 53.3518 99.1207 53.368 97.7888 53.4005C96.4569 53.4005 95.19 53.4167 93.988 53.4492V52.4747C95.0925 52.4097 95.9209 52.2797 96.4731 52.0848C97.0579 51.8899 97.4477 51.5001 97.6426 50.9153C97.8375 50.3306 97.935 49.4535 97.935 48.284V24.1148C97.935 22.9128 97.8375 22.0357 97.6426 21.4834C97.4477 20.8987 97.0579 20.5089 96.4731 20.3139C95.9209 20.0865 95.0925 19.9566 93.988 19.9241V18.9496C94.6702 18.982 95.5635 19.0145 96.6681 19.047C97.7726 19.0795 98.9583 19.0957 100.225 19.0957C101.362 19.0957 102.483 19.0795 103.587 19.047C104.724 19.0145 105.667 18.982 106.414 18.9496ZM133.842 27.6719C136.701 27.6719 138.926 28.549 140.518 30.3033C142.143 32.025 142.955 34.7213 142.955 38.3922H125.754L125.705 37.4663H138.277C138.342 35.8745 138.212 34.4127 137.887 33.0808C137.562 31.7164 137.042 30.6281 136.328 29.816C135.645 29.0038 134.752 28.5978 133.648 28.5978C132.153 28.5978 130.821 29.3449 129.652 30.8393C128.515 32.3336 127.833 34.705 127.605 37.9536L127.751 38.1485C127.686 38.6358 127.638 39.1718 127.605 39.7566C127.573 40.3413 127.556 40.926 127.556 41.5108C127.556 43.7198 127.914 45.6202 128.629 47.212C129.343 48.8038 130.269 50.022 131.406 50.8666C132.576 51.6788 133.777 52.0848 135.012 52.0848C135.986 52.0848 136.912 51.9386 137.789 51.6463C138.667 51.3214 139.479 50.8016 140.226 50.087C140.973 49.3723 141.623 48.414 142.175 47.212L143.15 47.6018C142.792 48.6738 142.207 49.7134 141.395 50.7204C140.583 51.7275 139.56 52.5559 138.325 53.2056C137.091 53.8228 135.662 54.1314 134.037 54.1314C131.698 54.1314 129.684 53.5954 127.995 52.5234C126.338 51.4514 125.055 49.9733 124.146 48.0891C123.268 46.1725 122.83 43.9797 122.83 41.5108C122.83 38.652 123.285 36.1994 124.194 34.1528C125.104 32.0737 126.387 30.4819 128.044 29.3774C129.701 28.2404 131.633 27.6719 133.842 27.6719ZM155.617 62.6101C153.895 62.6101 152.271 62.4315 150.744 62.0741C149.218 61.7168 147.983 61.1483 147.041 60.3686C146.131 59.6215 145.677 58.6632 145.677 57.4937C145.677 56.3567 146.131 55.3821 147.041 54.57C147.951 53.7578 149.185 53.1406 150.744 52.7183L151.037 53.4979C150.322 53.7253 149.754 54.1801 149.331 54.8623C148.909 55.5445 148.698 56.3079 148.698 57.1526C148.698 58.6469 149.38 59.7839 150.744 60.5636C152.141 61.3757 153.944 61.7818 156.153 61.7818C157.615 61.7818 159.044 61.5869 160.441 61.197C161.838 60.8397 162.991 60.2225 163.901 59.3453C164.811 58.4682 165.265 57.315 165.265 55.8856C165.265 54.8136 164.876 53.9365 164.096 53.2543C163.349 52.5396 161.854 52.1823 159.613 52.1823H156.007C154.967 52.1823 153.96 52.1011 152.986 51.9386C152.011 51.7762 151.215 51.4351 150.598 50.9153C149.981 50.3956 149.672 49.5997 149.672 48.5277C149.672 47.4231 150.127 46.3674 151.037 45.3603C151.946 44.3208 153.619 43.265 156.056 42.193L156.64 42.6315C155.536 43.2163 154.578 43.8172 153.765 44.4345C152.953 45.0192 152.547 45.7177 152.547 46.5298C152.547 47.5693 153.327 48.0891 154.886 48.0891H160.977C162.342 48.0891 163.592 48.284 164.729 48.6738C165.899 49.0637 166.841 49.6809 167.556 50.5255C168.27 51.3701 168.628 52.4747 168.628 53.839C168.628 55.3659 168.14 56.7952 167.166 58.1271C166.191 59.459 164.729 60.5311 162.78 61.3432C160.864 62.1878 158.476 62.6101 155.617 62.6101ZM155.861 43.0701C154.269 43.0701 152.823 42.8102 151.524 42.2904C150.225 41.7382 149.201 40.8935 148.454 39.7566C147.707 38.6196 147.333 37.1577 147.333 35.371C147.333 33.5843 147.707 32.1224 148.454 30.9855C149.201 29.8485 150.225 29.0201 151.524 28.5003C152.823 27.9481 154.269 27.6719 155.861 27.6719C157.485 27.6719 158.931 27.9481 160.198 28.5003C161.497 29.0201 162.52 29.8485 163.268 30.9855C164.015 32.1224 164.388 33.5843 164.388 35.371C164.388 37.1577 164.015 38.6196 163.268 39.7566C162.52 40.8935 161.497 41.7382 160.198 42.2904C158.931 42.8102 157.485 43.0701 155.861 43.0701ZM155.861 42.193C157.095 42.193 158.054 41.7057 158.736 40.7311C159.45 39.7566 159.808 37.9698 159.808 35.371C159.808 32.7722 159.45 30.9855 158.736 30.0109C158.054 29.0363 157.095 28.549 155.861 28.549C154.659 28.549 153.701 29.0363 152.986 30.0109C152.271 30.9855 151.914 32.7722 151.914 35.371C151.914 37.9698 152.271 39.7566 152.986 40.7311C153.701 41.7057 154.659 42.193 155.861 42.193ZM162.878 31.7164L162.001 31.3753C162.455 30.2708 163.235 29.2962 164.34 28.4516C165.444 27.607 166.597 27.1846 167.799 27.1846C168.644 27.1846 169.326 27.4283 169.846 27.9156C170.366 28.3704 170.625 29.0688 170.625 30.0109C170.625 31.0179 170.349 31.7326 169.797 32.1549C169.277 32.5448 168.741 32.7397 168.189 32.7397C167.702 32.7397 167.247 32.5772 166.825 32.2524C166.402 31.895 166.159 31.3428 166.094 30.5956C166.029 29.8485 166.256 28.8901 166.776 27.7207L167.409 27.8668C166.045 28.3866 165.07 28.9389 164.486 29.5236C163.901 30.0759 163.365 30.8068 162.878 31.7164ZM178.839 53.7903C177.507 53.7903 176.354 53.5467 175.379 53.0594C174.405 52.5396 173.657 51.8249 173.138 50.9153C172.65 50.0057 172.407 48.95 172.407 47.748C172.407 46.3186 172.732 45.1492 173.381 44.2396C174.064 43.33 174.924 42.599 175.964 42.0468C177.003 41.4945 178.092 41.0397 179.229 40.6824C180.398 40.2926 181.503 39.9352 182.542 39.6104C183.582 39.253 184.426 38.847 185.076 38.3922C185.758 37.9374 186.099 37.3364 186.099 36.5892V33.5681C186.099 32.2037 185.888 31.1641 185.466 30.4494C185.076 29.7348 184.54 29.2637 183.858 29.0363C183.176 28.7764 182.412 28.6465 181.568 28.6465C180.756 28.6465 179.878 28.7602 178.936 28.9876C178.027 29.215 177.296 29.686 176.744 30.4007C177.361 30.5307 177.897 30.8555 178.352 31.3753C178.806 31.895 179.034 32.561 179.034 33.3731C179.034 34.1853 178.774 34.835 178.254 35.3223C177.734 35.7771 177.068 36.0045 176.256 36.0045C175.314 36.0045 174.616 35.7121 174.161 35.1274C173.739 34.5101 173.527 33.8279 173.527 33.0808C173.527 32.2361 173.739 31.5539 174.161 31.0342C174.583 30.5144 175.119 30.0271 175.769 29.5723C176.516 29.0526 177.474 28.614 178.644 28.2567C179.846 27.8668 181.194 27.6719 182.688 27.6719C184.02 27.6719 185.157 27.8344 186.099 28.1592C187.041 28.4516 187.821 28.8901 188.438 29.4749C189.283 30.2545 189.835 31.2128 190.095 32.3498C190.355 33.4544 190.485 34.7863 190.485 36.3456V49.892C190.485 50.7042 190.599 51.2889 190.826 51.6463C191.086 52.0036 191.476 52.1823 191.996 52.1823C192.353 52.1823 192.694 52.1011 193.019 51.9386C193.344 51.7762 193.734 51.5163 194.188 51.159L194.724 51.9874C194.042 52.5071 193.392 52.9457 192.775 53.303C192.158 53.6279 191.33 53.7903 190.29 53.7903C189.348 53.7903 188.568 53.6279 187.951 53.303C187.334 52.9782 186.863 52.5071 186.538 51.8899C186.246 51.2402 186.099 50.4281 186.099 49.4535C185.222 50.9153 184.167 52.0036 182.932 52.7183C181.73 53.433 180.366 53.7903 178.839 53.7903ZM180.593 51.8412C181.665 51.8412 182.656 51.5326 183.566 50.9153C184.508 50.2981 185.352 49.3723 186.099 48.1378V38.5871C185.71 39.1393 185.141 39.6104 184.394 40.0002C183.647 40.3575 182.835 40.7311 181.958 41.1209C181.08 41.4783 180.236 41.9168 179.424 42.4366C178.644 42.9239 177.994 43.5736 177.474 44.3857C176.955 45.1979 176.695 46.2537 176.695 47.5531C176.695 48.8525 177.036 49.892 177.718 50.6717C178.433 51.4514 179.391 51.8412 180.593 51.8412ZM203.936 15.2462V48.9175C203.936 50.2819 204.212 51.2077 204.765 51.695C205.349 52.1823 206.308 52.4259 207.64 52.4259V53.4492C207.087 53.4167 206.243 53.3842 205.106 53.3518C204.001 53.2868 202.88 53.2543 201.743 53.2543C200.639 53.2543 199.518 53.2868 198.381 53.3518C197.244 53.3842 196.4 53.4167 195.847 53.4492V52.4259C197.179 52.4259 198.121 52.1823 198.674 51.695C199.258 51.2077 199.551 50.2819 199.551 48.9175V21.0936C199.551 19.6317 199.291 18.5597 198.771 17.8775C198.251 17.1628 197.277 16.8055 195.847 16.8055V15.7822C196.887 15.8797 197.894 15.9284 198.869 15.9284C199.811 15.9284 200.704 15.8797 201.549 15.7822C202.426 15.6523 203.222 15.4736 203.936 15.2462ZM247.215 18.9496C247.085 20.0865 246.987 21.1911 246.922 22.2631C246.89 23.3351 246.874 24.1472 246.874 24.6995C246.874 25.2842 246.89 25.8527 246.922 26.405C246.955 26.9248 246.987 27.3633 247.02 27.7207H245.899C245.704 25.804 245.428 24.2934 245.071 23.1889C244.713 22.0519 244.096 21.256 243.219 20.8012C242.374 20.3139 241.091 20.0703 239.369 20.0703H235.325C234.22 20.0703 233.376 20.1678 232.791 20.3627C232.239 20.5251 231.865 20.8987 231.67 21.4834C231.475 22.0357 231.378 22.9128 231.378 24.1148V48.284C231.378 49.4535 231.475 50.3306 231.67 50.9153C231.865 51.5001 232.239 51.8899 232.791 52.0848C233.376 52.2473 234.22 52.3285 235.325 52.3285H238.882C240.929 52.3285 242.472 52.0523 243.511 51.5001C244.583 50.9478 245.347 50.0545 245.802 48.82C246.289 47.5531 246.646 45.8476 246.874 43.7035H247.994C247.897 44.5807 247.848 45.7501 247.848 47.212C247.848 47.8292 247.864 48.7226 247.897 49.892C247.962 51.029 248.059 52.2148 248.189 53.4492C246.532 53.3842 244.665 53.3518 242.585 53.3518C240.506 53.3193 238.655 53.303 237.03 53.303C236.316 53.303 235.39 53.303 234.253 53.303C233.148 53.303 231.946 53.3193 230.647 53.3518C229.348 53.3518 228.032 53.368 226.7 53.4005C225.368 53.4005 224.101 53.4167 222.899 53.4492V52.4747C224.004 52.4097 224.832 52.2797 225.384 52.0848C225.969 51.8899 226.359 51.5001 226.554 50.9153C226.749 50.3306 226.846 49.4535 226.846 48.284V24.1148C226.846 22.9128 226.749 22.0357 226.554 21.4834C226.359 20.8987 225.969 20.5089 225.384 20.3139C224.832 20.0865 224.004 19.9566 222.899 19.9241V18.9496C224.101 18.982 225.368 19.0145 226.7 19.047C228.032 19.047 229.348 19.0632 230.647 19.0957C231.946 19.0957 233.148 19.0957 234.253 19.0957C235.39 19.0957 236.316 19.0957 237.03 19.0957C238.525 19.0957 240.214 19.0957 242.098 19.0957C244.015 19.0632 245.72 19.0145 247.215 18.9496ZM238.833 35.6146C238.833 35.6146 238.833 35.7771 238.833 36.1019C238.833 36.4268 238.833 36.5892 238.833 36.5892H229.916C229.916 36.5892 229.916 36.4268 229.916 36.1019C229.916 35.7771 229.916 35.6146 229.916 35.6146H238.833ZM240.246 29.1825C240.117 31.0342 240.052 32.4473 240.052 33.4219C240.084 34.3964 240.1 35.2898 240.1 36.1019C240.1 36.9141 240.117 37.8074 240.149 38.782C240.182 39.7566 240.263 41.1697 240.393 43.0214H239.272C239.142 41.9818 238.98 40.9748 238.785 40.0002C238.622 38.9931 238.232 38.181 237.615 37.5638C237.03 36.9141 236.023 36.5892 234.594 36.5892V35.6146C235.666 35.6146 236.478 35.4035 237.03 34.9812C237.615 34.5264 238.037 33.9579 238.297 33.2757C238.557 32.5935 238.736 31.895 238.833 31.1804C238.931 30.4332 239.028 29.7672 239.126 29.1825H240.246ZM260.877 28.3541V29.3774C260.26 29.3774 259.74 29.5236 259.318 29.816C258.895 30.1083 258.847 30.5144 259.171 31.0342L272.182 49.9895C272.734 50.8016 273.221 51.3864 273.644 51.7437C274.066 52.0686 274.586 52.296 275.203 52.4259V53.4492C274.878 53.4167 274.375 53.3842 273.692 53.3518C273.043 53.2868 272.393 53.2543 271.743 53.2543C270.736 53.2543 269.648 53.2868 268.478 53.3518C267.341 53.3842 266.513 53.4167 265.993 53.4492V52.4259C266.643 52.4259 267.179 52.2797 267.601 51.9874C268.024 51.6625 268.056 51.2564 267.699 50.7692L254.688 31.8138C254.039 30.8718 253.519 30.2545 253.129 29.9622C252.739 29.6373 252.252 29.4424 251.667 29.3774V28.3541C251.992 28.3866 252.496 28.4353 253.178 28.5003C253.86 28.5328 254.51 28.549 255.127 28.549C256.166 28.549 257.255 28.5328 258.392 28.5003C259.529 28.4353 260.357 28.3866 260.877 28.3541ZM262.193 40.7311C262.193 40.7311 262.225 40.8448 262.29 41.0722C262.355 41.2671 262.42 41.4783 262.485 41.7057C262.582 41.9331 262.631 42.0468 262.631 42.0468L258.587 47.3094C257.742 48.414 257.287 49.3398 257.222 50.087C257.19 50.8341 257.498 51.4026 258.148 51.7925C258.798 52.1498 259.691 52.3772 260.828 52.4747V53.4492C260.276 53.4167 259.659 53.4005 258.976 53.4005C258.294 53.368 257.628 53.3518 256.979 53.3518C256.361 53.3193 255.793 53.303 255.273 53.303C254.526 53.303 253.844 53.3193 253.227 53.3518C252.642 53.3518 252.09 53.3842 251.57 53.4492V52.4747C252.187 52.4097 252.82 52.1336 253.47 51.6463C254.152 51.1265 254.948 50.2656 255.858 49.0637L262.193 40.7311ZM274.228 28.3541V29.3287C273.611 29.3937 272.929 29.7185 272.182 30.3033C271.467 30.8555 270.72 31.6676 269.94 32.7397L264.337 40.4875C264.337 40.4875 264.304 40.39 264.239 40.1951C264.174 39.9677 264.109 39.7566 264.044 39.5616C263.979 39.3342 263.947 39.2205 263.947 39.2205L267.748 33.9092C268.462 32.9021 268.917 32.0737 269.112 31.424C269.307 30.7743 269.193 30.287 268.771 29.9622C268.381 29.6048 267.601 29.3937 266.432 29.3287V28.3541C267.277 28.3866 267.975 28.4191 268.527 28.4516C269.112 28.4841 269.778 28.5003 270.525 28.5003C271.272 28.5003 271.938 28.4841 272.523 28.4516C273.14 28.4191 273.709 28.3866 274.228 28.3541ZM284.976 27.8181V57.7373C284.976 59.1342 285.382 60.06 286.194 60.5148C287.039 61.0021 288.192 61.2458 289.654 61.2458V62.269C288.939 62.2366 287.948 62.1878 286.681 62.1229C285.414 62.0904 284.066 62.0741 282.637 62.0741C281.63 62.0741 280.623 62.0904 279.616 62.1229C278.641 62.1878 277.894 62.2366 277.374 62.269V61.2458C278.544 61.2458 279.372 61.0346 279.859 60.6123C280.346 60.19 280.59 59.3941 280.59 58.2246V33.6655C280.59 32.2037 280.33 31.1316 279.81 30.4494C279.291 29.7348 278.316 29.3774 276.887 29.3774V28.3541C277.926 28.4516 278.933 28.5003 279.908 28.5003C280.85 28.5003 281.743 28.4516 282.588 28.3541C283.465 28.2242 284.261 28.0455 284.976 27.8181ZM292.772 27.6719C294.494 27.6719 296.037 28.143 297.401 29.085C298.766 29.9946 299.838 31.3428 300.617 33.1295C301.43 34.9162 301.836 37.1252 301.836 39.7566C301.836 41.5108 301.625 43.2488 301.202 44.9705C300.78 46.6597 300.114 48.2028 299.204 49.5997C298.327 50.9641 297.174 52.0686 295.745 52.9132C294.348 53.7253 292.659 54.1314 290.677 54.1314C289.15 54.1314 287.818 53.7741 286.681 53.0594C285.577 52.3447 284.83 51.4838 284.44 50.4768L284.927 49.7946C285.382 50.7042 286.031 51.4676 286.876 52.0848C287.753 52.7021 288.841 53.0107 290.141 53.0107C291.96 53.0107 293.373 52.4422 294.38 51.3052C295.387 50.1682 296.086 48.6576 296.476 46.7734C296.898 44.8568 297.109 42.7452 297.109 40.4387C297.109 37.8399 296.898 35.7121 296.476 34.0553C296.053 32.3986 295.42 31.1641 294.575 30.352C293.731 29.5398 292.691 29.1338 291.457 29.1338C289.865 29.1338 288.419 29.7997 287.12 31.1316C285.82 32.4311 284.992 34.4127 284.635 37.0765L284.05 36.3943C284.407 33.633 285.382 31.489 286.974 29.9622C288.598 28.4353 290.531 27.6719 292.772 27.6719ZM317.383 27.6719C320.241 27.6719 322.467 28.549 324.058 30.3033C325.683 32.025 326.495 34.7213 326.495 38.3922H309.294L309.245 37.4663H321.817C321.882 35.8745 321.752 34.4127 321.427 33.0808C321.102 31.7164 320.583 30.6281 319.868 29.816C319.186 29.0038 318.292 28.5978 317.188 28.5978C315.693 28.5978 314.362 29.3449 313.192 30.8393C312.055 32.3336 311.373 34.705 311.145 37.9536L311.292 38.1485C311.227 38.6358 311.178 39.1718 311.145 39.7566C311.113 40.3413 311.097 40.926 311.097 41.5108C311.097 43.7198 311.454 45.6202 312.169 47.212C312.883 48.8038 313.809 50.022 314.946 50.8666C316.116 51.6788 317.318 52.0848 318.552 52.0848C319.527 52.0848 320.453 51.9386 321.33 51.6463C322.207 51.3214 323.019 50.8016 323.766 50.087C324.513 49.3723 325.163 48.414 325.715 47.212L326.69 47.6018C326.332 48.6738 325.748 49.7134 324.936 50.7204C324.123 51.7275 323.1 52.5559 321.866 53.2056C320.631 53.8228 319.202 54.1314 317.578 54.1314C315.239 54.1314 313.225 53.5954 311.535 52.5234C309.879 51.4514 308.595 49.9733 307.686 48.0891C306.809 46.1725 306.37 43.9797 306.37 41.5108C306.37 38.652 306.825 36.1994 307.734 34.1528C308.644 32.0737 309.927 30.4819 311.584 29.3774C313.241 28.2404 315.174 27.6719 317.383 27.6719ZM345.346 27.6719C346.223 27.6719 346.986 27.8506 347.636 28.2079C348.318 28.5653 348.838 29.0363 349.195 29.6211C349.585 30.1733 349.78 30.8068 349.78 31.5215C349.78 32.3336 349.52 33.0483 349.001 33.6655C348.513 34.2827 347.847 34.5913 347.003 34.5913C346.32 34.5913 345.72 34.3802 345.2 33.9579C344.68 33.5031 344.42 32.8696 344.42 32.0575C344.42 31.4402 344.583 30.9205 344.907 30.4982C345.265 30.0434 345.655 29.686 346.077 29.4261C345.849 29.1013 345.508 28.9389 345.054 28.9389C344.047 28.9389 343.121 29.2475 342.276 29.8647C341.431 30.4494 340.717 31.2129 340.132 32.1549C339.547 33.097 339.092 34.1041 338.768 35.1761C338.443 36.2156 338.28 37.1902 338.28 38.0998V48.4302C338.28 50.022 338.735 51.094 339.645 51.6463C340.587 52.166 341.854 52.4259 343.446 52.4259V53.4492C342.698 53.4167 341.643 53.3842 340.278 53.3518C338.914 53.2868 337.468 53.2543 335.941 53.2543C334.837 53.2543 333.732 53.2868 332.628 53.3518C331.556 53.3842 330.744 53.4167 330.191 53.4492V52.4259C331.523 52.4259 332.465 52.1823 333.018 51.695C333.602 51.2077 333.895 50.2819 333.895 48.9175V33.6655C333.895 32.2037 333.635 31.1316 333.115 30.4494C332.595 29.7348 331.621 29.3774 330.191 29.3774V28.3541C331.231 28.4516 332.238 28.5003 333.213 28.5003C334.155 28.5003 335.048 28.4516 335.893 28.3541C336.77 28.2242 337.566 28.0455 338.28 27.8181V33.9092C338.638 32.9671 339.141 32.025 339.791 31.0829C340.473 30.1083 341.285 29.2962 342.227 28.6465C343.169 27.9968 344.209 27.6719 345.346 27.6719ZM359.736 20.2652V28.4029H366.948V29.3774H359.736V48.2353C359.736 49.7621 360.012 50.8341 360.564 51.4514C361.117 52.0686 361.88 52.3772 362.855 52.3772C363.829 52.3772 364.674 51.9874 365.389 51.2077C366.103 50.3956 366.72 49.0474 367.24 47.1633L368.215 47.4069C367.89 49.2911 367.24 50.8829 366.266 52.1823C365.324 53.4817 363.862 54.1314 361.88 54.1314C360.776 54.1314 359.866 53.9852 359.151 53.6929C358.437 53.433 357.803 53.0431 357.251 52.5234C356.536 51.7762 356.033 50.8829 355.74 49.8433C355.48 48.8038 355.35 47.4231 355.35 45.7014V29.3774H350.673V28.4029H355.35V20.9474C356.163 20.9149 356.942 20.85 357.689 20.7525C358.437 20.655 359.119 20.4926 359.736 20.2652Z" fill="black"/>
<path d="M100.903 85.8357C99.4587 85.8357 98.1544 85.5131 96.9903 84.8679C95.8403 84.2228 94.9287 83.3322 94.2555 82.1962C93.5963 81.0602 93.2667 79.784 93.2667 78.3675C93.2667 76.951 93.5963 75.6747 94.2555 74.5387C94.9287 73.4027 95.8403 72.5121 96.9903 71.867C98.1544 71.2218 99.4587 70.8993 100.903 70.8993C101.969 70.8993 102.951 71.0746 103.848 71.4252C104.746 71.7618 105.51 72.2667 106.141 72.9399L105.468 73.6341C104.29 72.47 102.783 71.888 100.945 71.888C99.7111 71.888 98.5891 72.1685 97.5794 72.7295C96.5696 73.2905 95.7772 74.0689 95.2022 75.0646C94.6271 76.0464 94.3396 77.1473 94.3396 78.3675C94.3396 79.5876 94.6271 80.6956 95.2022 81.6913C95.7772 82.6731 96.5696 83.4444 97.5794 84.0054C98.5891 84.5664 99.7111 84.8469 100.945 84.8469C102.769 84.8469 104.276 84.2579 105.468 83.0798L106.141 83.774C105.51 84.4472 104.739 84.9591 103.827 85.3097C102.93 85.6603 101.955 85.8357 100.903 85.8357ZM118.079 80.4922H108.633C108.661 81.3477 108.879 82.1121 109.286 82.7853C109.692 83.4444 110.239 83.9563 110.926 84.321C111.628 84.6856 112.413 84.8679 113.283 84.8679C113.998 84.8679 114.657 84.7417 115.26 84.4893C115.877 84.2228 116.389 83.8371 116.796 83.3322L117.406 84.0265C116.929 84.6015 116.326 85.0433 115.597 85.3518C114.881 85.6603 114.103 85.8146 113.262 85.8146C112.168 85.8146 111.193 85.5762 110.337 85.0994C109.482 84.6225 108.809 83.9633 108.318 83.1219C107.841 82.2804 107.603 81.3197 107.603 80.2398C107.603 79.1739 107.827 78.2202 108.276 77.3787C108.739 76.5232 109.37 75.857 110.169 75.3802C110.969 74.9033 111.866 74.6649 112.862 74.6649C113.858 74.6649 114.748 74.9033 115.534 75.3802C116.333 75.843 116.957 76.4952 117.406 77.3366C117.869 78.1781 118.1 79.1318 118.1 80.1977L118.079 80.4922ZM112.862 75.5906C112.091 75.5906 111.396 75.7659 110.779 76.1165C110.162 76.4531 109.664 76.9369 109.286 77.5681C108.921 78.1851 108.711 78.8864 108.654 79.6718H117.069C117.027 78.8864 116.817 78.1851 116.438 77.5681C116.06 76.951 115.562 76.4671 114.945 76.1165C114.327 75.7659 113.633 75.5906 112.862 75.5906ZM127.07 74.6649C128.094 74.6649 129.019 74.9033 129.847 75.3802C130.674 75.857 131.319 76.5162 131.782 77.3577C132.259 78.1992 132.497 79.1599 132.497 80.2398C132.497 81.3197 132.259 82.2874 131.782 83.1429C131.319 83.9844 130.674 84.6435 129.847 85.1204C129.019 85.5832 128.094 85.8146 127.07 85.8146C126.102 85.8146 125.226 85.5902 124.44 85.1414C123.655 84.6786 123.045 84.0405 122.61 83.227V89.8117H121.558V74.7491H122.568V77.3366C123.003 76.4952 123.613 75.843 124.398 75.3802C125.198 74.9033 126.088 74.6649 127.07 74.6649ZM127.007 84.8679C127.848 84.8679 128.606 84.6716 129.279 84.2789C129.952 83.8862 130.478 83.3392 130.857 82.638C131.249 81.9368 131.446 81.1374 131.446 80.2398C131.446 79.3422 131.249 78.5428 130.857 77.8415C130.478 77.1403 129.952 76.5933 129.279 76.2006C128.606 75.8079 127.848 75.6116 127.007 75.6116C126.165 75.6116 125.408 75.8079 124.735 76.2006C124.076 76.5933 123.55 77.1403 123.157 77.8415C122.778 78.5428 122.589 79.3422 122.589 80.2398C122.589 81.1374 122.778 81.9368 123.157 82.638C123.55 83.3392 124.076 83.8862 124.735 84.2789C125.408 84.6716 126.165 84.8679 127.007 84.8679ZM142.418 80.0715C144.031 80.352 144.838 81.2566 144.838 82.7853C144.838 83.739 144.487 84.4682 143.786 84.9731C143.099 85.478 142.061 85.7305 140.672 85.7305H135.918V74.7491H140.546C141.766 74.7491 142.72 74.9945 143.407 75.4854C144.108 75.9622 144.459 76.6494 144.459 77.547C144.459 78.1922 144.277 78.7321 143.912 79.1669C143.561 79.5876 143.064 79.8892 142.418 80.0715ZM136.949 79.7559H140.483C141.423 79.7559 142.145 79.5806 142.65 79.23C143.155 78.8653 143.407 78.3464 143.407 77.6732C143.407 76.986 143.155 76.4741 142.65 76.1375C142.159 75.7869 141.437 75.6116 140.483 75.6116H136.949V79.7559ZM140.651 84.8679C142.741 84.8679 143.786 84.1597 143.786 82.7432C143.786 81.9999 143.547 81.4529 143.071 81.1023C142.594 80.7517 141.843 80.5764 140.82 80.5764H136.949V84.8679H140.651ZM148.573 74.7491H149.625V84.1106L157.451 74.7491H158.376V85.7305H157.325V76.3689L149.499 85.7305H148.573V74.7491ZM167.352 85.8146C166.286 85.8146 165.332 85.5762 164.491 85.0994C163.649 84.6225 162.99 83.9633 162.513 83.1219C162.036 82.2664 161.798 81.3057 161.798 80.2398C161.798 79.1599 162.036 78.1992 162.513 77.3577C162.99 76.5022 163.649 75.843 164.491 75.3802C165.332 74.9033 166.286 74.6649 167.352 74.6649C168.235 74.6649 169.035 74.8402 169.75 75.1909C170.479 75.5274 171.068 76.0253 171.517 76.6845L170.739 77.2525C170.346 76.7055 169.855 76.2988 169.266 76.0323C168.691 75.7518 168.053 75.6116 167.352 75.6116C166.496 75.6116 165.725 75.8079 165.038 76.2006C164.364 76.5793 163.832 77.1193 163.439 77.8205C163.06 78.5217 162.871 79.3282 162.871 80.2398C162.871 81.1514 163.06 81.9578 163.439 82.659C163.832 83.3603 164.364 83.9072 165.038 84.2999C165.725 84.6786 166.496 84.8679 167.352 84.8679C168.053 84.8679 168.691 84.7347 169.266 84.4682C169.855 84.1877 170.346 83.774 170.739 83.227L171.517 83.7951C171.068 84.4542 170.479 84.9591 169.75 85.3097C169.035 85.6463 168.235 85.8146 167.352 85.8146ZM183.666 74.6649C185.026 74.6649 186.071 75.0155 186.8 75.7168C187.529 76.404 187.894 77.4208 187.894 78.7672V85.7305H186.884V83.774C186.534 84.4192 186.022 84.924 185.349 85.2887C184.675 85.6393 183.869 85.8146 182.929 85.8146C181.709 85.8146 180.741 85.5271 180.026 84.9521C179.325 84.3771 178.974 83.6197 178.974 82.6801C178.974 81.7685 179.297 81.0322 179.942 80.4712C180.601 79.8962 181.646 79.6087 183.076 79.6087H186.842V78.7251C186.842 77.7013 186.562 76.9229 186.001 76.39C185.454 75.857 184.647 75.5906 183.581 75.5906C182.852 75.5906 182.151 75.7168 181.478 75.9692C180.819 76.2217 180.258 76.5583 179.795 76.979L179.269 76.2217C179.816 75.7308 180.475 75.3521 181.246 75.0857C182.018 74.8052 182.824 74.6649 183.666 74.6649ZM183.076 84.9521C183.988 84.9521 184.759 84.7417 185.391 84.321C186.036 83.9002 186.52 83.2902 186.842 82.4907V80.4291H183.098C182.018 80.4291 181.232 80.6255 180.741 81.0181C180.265 81.4108 180.026 81.9508 180.026 82.638C180.026 83.3533 180.293 83.9213 180.826 84.342C181.358 84.7487 182.109 84.9521 183.076 84.9521ZM202.497 84.8048V88.4653H201.508V85.7305H191.116V88.4653H190.106V84.8048H190.758C191.501 84.7628 192.006 84.1877 192.273 83.0798C192.553 81.9578 192.75 80.387 192.862 78.3675L193.009 74.7491H200.73V84.8048H202.497ZM193.83 78.4306C193.759 80.0995 193.619 81.488 193.409 82.5959C193.198 83.7039 192.82 84.4402 192.273 84.8048H199.678V75.6957H193.956L193.83 78.4306ZM212.104 80.0715C213.717 80.352 214.523 81.2566 214.523 82.7853C214.523 83.739 214.173 84.4682 213.471 84.9731C212.784 85.478 211.746 85.7305 210.358 85.7305H205.604V74.7491H210.232C211.452 74.7491 212.406 74.9945 213.093 75.4854C213.794 75.9622 214.145 76.6494 214.145 77.547C214.145 78.1922 213.962 78.7321 213.598 79.1669C213.247 79.5876 212.749 79.8892 212.104 80.0715ZM206.634 79.7559H210.169C211.108 79.7559 211.831 79.5806 212.335 79.23C212.84 78.8653 213.093 78.3464 213.093 77.6732C213.093 76.986 212.84 76.4741 212.335 76.1375C211.845 75.7869 211.122 75.6116 210.169 75.6116H206.634V79.7559ZM210.337 84.8679C212.427 84.8679 213.471 84.1597 213.471 82.7432C213.471 81.9999 213.233 81.4529 212.756 81.1023C212.279 80.7517 211.529 80.5764 210.505 80.5764H206.634V84.8679H210.337ZM222.634 85.8146C221.597 85.8146 220.657 85.5762 219.815 85.0994C218.988 84.6225 218.336 83.9633 217.859 83.1219C217.382 82.2664 217.144 81.3057 217.144 80.2398C217.144 79.1739 217.382 78.2202 217.859 77.3787C218.336 76.5232 218.988 75.857 219.815 75.3802C220.657 74.9033 221.597 74.6649 222.634 74.6649C223.672 74.6649 224.605 74.9033 225.432 75.3802C226.274 75.857 226.933 76.5232 227.41 77.3787C227.887 78.2202 228.125 79.1739 228.125 80.2398C228.125 81.3057 227.887 82.2664 227.41 83.1219C226.933 83.9633 226.274 84.6225 225.432 85.0994C224.605 85.5762 223.672 85.8146 222.634 85.8146ZM222.634 84.8679C223.476 84.8679 224.226 84.6716 224.885 84.2789C225.559 83.8862 226.084 83.3392 226.463 82.638C226.856 81.9368 227.052 81.1374 227.052 80.2398C227.052 79.3422 226.856 78.5428 226.463 77.8415C226.084 77.1403 225.559 76.5933 224.885 76.2006C224.226 75.8079 223.476 75.6116 222.634 75.6116C221.793 75.6116 221.036 75.8079 220.362 76.2006C219.703 76.5933 219.177 77.1403 218.785 77.8415C218.406 78.5428 218.217 79.3422 218.217 80.2398C218.217 81.1374 218.406 81.9368 218.785 82.638C219.177 83.3392 219.703 83.8862 220.362 84.2789C221.036 84.6716 221.793 84.8679 222.634 84.8679ZM235.274 80.6395H232.603V85.7305H231.551V74.7491H232.603V79.7349H235.274L239.419 74.7491H240.576L236.116 80.0715L240.912 85.7305H239.65L235.274 80.6395ZM246.941 74.6649C248.302 74.6649 249.347 75.0155 250.076 75.7168C250.805 76.404 251.17 77.4208 251.17 78.7672V85.7305H250.16V83.774C249.809 84.4192 249.298 84.924 248.624 85.2887C247.951 85.6393 247.145 85.8146 246.205 85.8146C244.985 85.8146 244.017 85.5271 243.302 84.9521C242.601 84.3771 242.25 83.6197 242.25 82.6801C242.25 81.7685 242.573 81.0322 243.218 80.4712C243.877 79.8962 244.922 79.6087 246.352 79.6087H250.118V78.7251C250.118 77.7013 249.837 76.9229 249.276 76.39C248.73 75.857 247.923 75.5906 246.857 75.5906C246.128 75.5906 245.427 75.7168 244.753 75.9692C244.094 76.2217 243.533 76.5583 243.071 76.979L242.545 76.2217C243.092 75.7308 243.751 75.3521 244.522 75.0857C245.293 74.8052 246.1 74.6649 246.941 74.6649ZM246.352 84.9521C247.264 84.9521 248.035 84.7417 248.666 84.321C249.312 83.9002 249.795 83.2902 250.118 82.4907V80.4291H246.373C245.293 80.4291 244.508 80.6255 244.017 81.0181C243.54 81.4108 243.302 81.9508 243.302 82.638C243.302 83.3533 243.568 83.9213 244.101 84.342C244.634 84.7487 245.385 84.9521 246.352 84.9521ZM262.785 75.6957H258.494V85.7305H257.442V75.6957H253.15V74.7491H262.785V75.6957ZM268.9 85.8146C267.862 85.8146 266.922 85.5762 266.081 85.0994C265.253 84.6225 264.601 83.9633 264.124 83.1219C263.647 82.2664 263.409 81.3057 263.409 80.2398C263.409 79.1739 263.647 78.2202 264.124 77.3787C264.601 76.5232 265.253 75.857 266.081 75.3802C266.922 74.9033 267.862 74.6649 268.9 74.6649C269.938 74.6649 270.87 74.9033 271.698 75.3802C272.539 75.857 273.198 76.5232 273.675 77.3787C274.152 78.2202 274.39 79.1739 274.39 80.2398C274.39 81.3057 274.152 82.2664 273.675 83.1219C273.198 83.9633 272.539 84.6225 271.698 85.0994C270.87 85.5762 269.938 85.8146 268.9 85.8146ZM268.9 84.8679C269.741 84.8679 270.492 84.6716 271.151 84.2789C271.824 83.8862 272.35 83.3392 272.728 82.638C273.121 81.9368 273.318 81.1374 273.318 80.2398C273.318 79.3422 273.121 78.5428 272.728 77.8415C272.35 77.1403 271.824 76.5933 271.151 76.2006C270.492 75.8079 269.741 75.6116 268.9 75.6116C268.058 75.6116 267.301 75.8079 266.628 76.2006C265.969 76.5933 265.443 77.1403 265.05 77.8415C264.671 78.5428 264.482 79.3422 264.482 80.2398C264.482 81.1374 264.671 81.9368 265.05 82.638C265.443 83.3392 265.969 83.8862 266.628 84.2789C267.301 84.6716 268.058 84.8679 268.9 84.8679ZM284.317 80.0715C285.929 80.352 286.736 81.2566 286.736 82.7853C286.736 83.739 286.385 84.4682 285.684 84.9731C284.997 85.478 283.959 85.7305 282.57 85.7305H277.816V74.7491H282.444C283.664 74.7491 284.618 74.9945 285.305 75.4854C286.006 75.9622 286.357 76.6494 286.357 77.547C286.357 78.1922 286.175 78.7321 285.81 79.1669C285.46 79.5876 284.962 79.8892 284.317 80.0715ZM278.847 79.7559H282.381C283.321 79.7559 284.043 79.5806 284.548 79.23C285.053 78.8653 285.305 78.3464 285.305 77.6732C285.305 76.986 285.053 76.4741 284.548 76.1375C284.057 75.7869 283.335 75.6116 282.381 75.6116H278.847V79.7559ZM282.549 84.8679C284.639 84.8679 285.684 84.1597 285.684 82.7432C285.684 81.9999 285.445 81.4529 284.969 81.1023C284.492 80.7517 283.741 80.5764 282.718 80.5764H278.847V84.8679H282.549ZM295.874 74.7491H296.926V84.1106L304.752 74.7491H305.678V85.7305H304.626V76.3689L296.8 85.7305H295.874V74.7491ZM324.81 74.6649C325.834 74.6649 326.753 74.9033 327.566 75.3802C328.38 75.843 329.018 76.5022 329.481 77.3577C329.943 78.1992 330.175 79.1599 330.175 80.2398C330.175 81.3057 329.943 82.2664 329.481 83.1219C329.018 83.9633 328.38 84.6225 327.566 85.0994C326.753 85.5762 325.834 85.8146 324.81 85.8146C323.829 85.8146 322.938 85.5972 322.139 85.1625C321.353 84.7277 320.722 84.1176 320.245 83.3322C319.783 82.5468 319.523 81.6493 319.467 80.6395H316.669V85.7305H315.617V74.7491H316.669V79.6718H319.467C319.551 78.69 319.832 77.8205 320.308 77.0632C320.785 76.3058 321.416 75.7168 322.202 75.296C322.987 74.8753 323.857 74.6649 324.81 74.6649ZM324.81 84.889C325.624 84.889 326.36 84.6926 327.019 84.2999C327.678 83.9072 328.19 83.3603 328.555 82.659C328.934 81.9438 329.123 81.1374 329.123 80.2398C329.123 79.3282 328.934 78.5217 328.555 77.8205C328.19 77.1193 327.678 76.5793 327.019 76.2006C326.36 75.8079 325.624 75.6116 324.81 75.6116C323.997 75.6116 323.261 75.8079 322.601 76.2006C321.942 76.5793 321.423 77.1193 321.045 77.8205C320.68 78.5217 320.498 79.3282 320.498 80.2398C320.498 81.1374 320.68 81.9438 321.045 82.659C321.423 83.3603 321.942 83.9072 322.601 84.2999C323.261 84.6926 323.997 84.889 324.81 84.889ZM339.167 74.6649C340.191 74.6649 341.117 74.9033 341.944 75.3802C342.771 75.857 343.417 76.5162 343.879 77.3577C344.356 78.1992 344.595 79.1599 344.595 80.2398C344.595 81.3197 344.356 82.2874 343.879 83.1429C343.417 83.9844 342.771 84.6435 341.944 85.1204C341.117 85.5832 340.191 85.8146 339.167 85.8146C338.199 85.8146 337.323 85.5902 336.537 85.1414C335.752 84.6786 335.142 84.0405 334.707 83.227V89.8117H333.655V74.7491H334.665V77.3366C335.1 76.4952 335.71 75.843 336.495 75.3802C337.295 74.9033 338.185 74.6649 339.167 74.6649ZM339.104 84.8679C339.945 84.8679 340.703 84.6716 341.376 84.2789C342.049 83.8862 342.575 83.3392 342.954 82.638C343.346 81.9368 343.543 81.1374 343.543 80.2398C343.543 79.3422 343.346 78.5428 342.954 77.8415C342.575 77.1403 342.049 76.5933 341.376 76.2006C340.703 75.8079 339.945 75.6116 339.104 75.6116C338.263 75.6116 337.505 75.8079 336.832 76.2006C336.173 76.5933 335.647 77.1403 335.254 77.8415C334.876 78.5428 334.686 79.3422 334.686 80.2398C334.686 81.1374 334.876 81.9368 335.254 82.638C335.647 83.3392 336.173 83.8862 336.832 84.2789C337.505 84.6716 338.263 84.8679 339.104 84.8679ZM348.015 74.7491H349.067V84.1106L356.893 74.7491H357.819V85.7305H356.767V76.3689L348.941 85.7305H348.015V74.7491ZM372.684 84.8048V88.4653H371.695V85.7305H361.303V88.4653H360.293V84.8048H360.945C361.689 84.7628 362.194 84.1877 362.46 83.0798C362.741 81.9578 362.937 80.387 363.049 78.3675L363.196 74.7491H370.917V84.8048H372.684ZM364.017 78.4306C363.947 80.0995 363.807 81.488 363.596 82.5959C363.386 83.7039 363.007 84.4402 362.46 84.8048H369.865V75.6957H364.143L364.017 78.4306ZM375.791 74.7491H376.843V84.1106L384.668 74.7491H385.594V85.7305H384.542V76.3689L376.716 85.7305H375.791V74.7491ZM398.02 74.7491V85.7305H396.968V80.9971C395.663 81.6002 394.359 81.9017 393.055 81.9017C391.764 81.9017 390.748 81.6072 390.004 81.0181C389.275 80.4291 388.91 79.5596 388.91 78.4095V74.7491H389.962V78.3464C389.962 79.2019 390.25 79.8611 390.825 80.3239C391.4 80.7867 392.192 81.0181 393.202 81.0181C394.352 81.0181 395.607 80.7306 396.968 80.1556V74.7491H398.02ZM411.921 80.4922H402.476C402.504 81.3477 402.721 82.1121 403.128 82.7853C403.534 83.4444 404.081 83.9563 404.769 84.321C405.47 84.6856 406.255 84.8679 407.125 84.8679C407.84 84.8679 408.499 84.7417 409.102 84.4893C409.719 84.2228 410.231 83.8371 410.638 83.3322L411.248 84.0265C410.771 84.6015 410.168 85.0433 409.439 85.3518C408.724 85.6603 407.945 85.8146 407.104 85.8146C406.01 85.8146 405.035 85.5762 404.18 85.0994C403.324 84.6225 402.651 83.9633 402.16 83.1219C401.683 82.2804 401.445 81.3197 401.445 80.2398C401.445 79.1739 401.669 78.2202 402.118 77.3787C402.581 76.5232 403.212 75.857 404.011 75.3802C404.811 74.9033 405.708 74.6649 406.704 74.6649C407.7 74.6649 408.59 74.9033 409.376 75.3802C410.175 75.843 410.799 76.4952 411.248 77.3366C411.711 78.1781 411.942 79.1318 411.942 80.1977L411.921 80.4922ZM406.704 75.5906C405.933 75.5906 405.238 75.7659 404.621 76.1165C404.004 76.4531 403.506 76.9369 403.128 77.5681C402.763 78.1851 402.553 78.8864 402.497 79.6718H410.912C410.869 78.8864 410.659 78.1851 410.28 77.5681C409.902 76.951 409.404 76.4671 408.787 76.1165C408.17 75.7659 407.475 75.5906 406.704 75.5906ZM419.818 85.8146C418.752 85.8146 417.799 85.5762 416.957 85.0994C416.116 84.6225 415.456 83.9633 414.98 83.1219C414.503 82.2664 414.264 81.3057 414.264 80.2398C414.264 79.1599 414.503 78.1992 414.98 77.3577C415.456 76.5022 416.116 75.843 416.957 75.3802C417.799 74.9033 418.752 74.6649 419.818 74.6649C420.702 74.6649 421.501 74.8402 422.216 75.1909C422.946 75.5274 423.535 76.0253 423.983 76.6845L423.205 77.2525C422.812 76.7055 422.322 76.2988 421.733 76.0323C421.157 75.7518 420.519 75.6116 419.818 75.6116C418.963 75.6116 418.191 75.8079 417.504 76.2006C416.831 76.5793 416.298 77.1193 415.905 77.8205C415.527 78.5217 415.337 79.3282 415.337 80.2398C415.337 81.1514 415.527 81.9578 415.905 82.659C416.298 83.3603 416.831 83.9072 417.504 84.2999C418.191 84.6786 418.963 84.8679 419.818 84.8679C420.519 84.8679 421.157 84.7347 421.733 84.4682C422.322 84.1877 422.812 83.774 423.205 83.227L423.983 83.7951C423.535 84.4542 422.946 84.9591 422.216 85.3097C421.501 85.6463 420.702 85.8146 419.818 85.8146ZM430.813 80.6395H428.141V85.7305H427.089V74.7491H428.141V79.7349H430.813L434.957 74.7491H436.114L431.654 80.0715L436.451 85.7305H435.189L430.813 80.6395ZM439.046 74.7491H440.098V84.1106L447.924 74.7491H448.849V85.7305H447.798V76.3689L439.972 85.7305H439.046V74.7491ZM460.265 85.7305L456.499 80.8288L452.734 85.7305H451.535L455.889 80.0715L451.766 74.7491H452.965L456.499 79.3141L460.034 74.7491H461.212L457.088 80.0715L461.506 85.7305H460.265ZM478.515 74.7491L472.877 87.2241C472.457 88.1918 471.966 88.879 471.405 89.2857C470.858 89.6925 470.206 89.8958 469.448 89.8958C468.944 89.8958 468.467 89.8117 468.018 89.6434C467.583 89.4751 467.211 89.2296 466.903 88.9071L467.429 88.1077C467.99 88.6827 468.67 88.9702 469.469 88.9702C470.002 88.9702 470.458 88.8229 470.837 88.5284C471.216 88.2339 471.566 87.729 471.889 87.0137L472.478 85.6884L467.534 74.7491H468.649L473.046 84.5734L477.443 74.7491H478.515ZM485.189 85.8146C484.124 85.8146 483.17 85.5762 482.328 85.0994C481.487 84.6225 480.828 83.9633 480.351 83.1219C479.874 82.2664 479.636 81.3057 479.636 80.2398C479.636 79.1599 479.874 78.1992 480.351 77.3577C480.828 76.5022 481.487 75.843 482.328 75.3802C483.17 74.9033 484.124 74.6649 485.189 74.6649C486.073 74.6649 486.872 74.8402 487.588 75.1909C488.317 75.5274 488.906 76.0253 489.355 76.6845L488.576 77.2525C488.184 76.7055 487.693 76.2988 487.104 76.0323C486.529 75.7518 485.891 75.6116 485.189 75.6116C484.334 75.6116 483.563 75.8079 482.875 76.2006C482.202 76.5793 481.669 77.1193 481.277 77.8205C480.898 78.5217 480.709 79.3282 480.709 80.2398C480.709 81.1514 480.898 81.9578 481.277 82.659C481.669 83.3603 482.202 83.9072 482.875 84.2999C483.563 84.6786 484.334 84.8679 485.189 84.8679C485.891 84.8679 486.529 84.7347 487.104 84.4682C487.693 84.1877 488.184 83.774 488.576 83.227L489.355 83.7951C488.906 84.4542 488.317 84.9591 487.588 85.3097C486.872 85.6463 486.073 85.8146 485.189 85.8146ZM500.592 74.7491V85.7305H499.54V75.6957H493.818L493.671 78.6199C493.587 80.1346 493.46 81.4038 493.292 82.4276C493.124 83.4514 492.836 84.2789 492.43 84.91C492.023 85.5411 491.462 85.8567 490.747 85.8567C490.536 85.8567 490.235 85.8076 489.842 85.7094L489.947 84.8048C490.172 84.8609 490.34 84.889 490.452 84.889C491.041 84.889 491.49 84.6015 491.798 84.0265C492.107 83.4514 492.317 82.7362 492.43 81.8807C492.542 81.0252 492.633 79.9102 492.703 78.5358L492.892 74.7491H500.592ZM514.077 74.7491L508.439 87.2241C508.019 88.1918 507.528 88.879 506.967 89.2857C506.42 89.6925 505.768 89.8958 505.01 89.8958C504.505 89.8958 504.028 89.8117 503.58 89.6434C503.145 89.4751 502.773 89.2296 502.465 88.9071L502.991 88.1077C503.552 88.6827 504.232 88.9702 505.031 88.9702C505.564 88.9702 506.02 88.8229 506.399 88.5284C506.777 88.2339 507.128 87.729 507.451 87.0137L508.04 85.6884L503.096 74.7491H504.211L508.608 84.5734L513.004 74.7491H514.077ZM524.131 75.6957H517.672V85.7305H516.621V74.7491H524.131V75.6957Z" fill="black"/>
<defs>
<clipPath id="clip0_606_8">
<rect width="73.1696" height="93.7085" fill="white" transform="translate(0 6)"/>
</clipPath>
</defs>
</svg>
