<svg width="17" height="18" viewBox="0 0 17 18" fill="none" xmlns="http://www.w3.org/2000/svg">
<path d="M14.5808 0.488281H2.41923C1.04615 0.488281 0 1.53444 0 2.90751V15.069C0 16.4421 1.04615 17.4883 2.41923 17.4883H14.5808C15.9538 17.4883 17 16.4421 17 15.069V2.90751C17 1.53444 15.9538 0.488281 14.5808 0.488281ZM8.5 14.0883C11.3115 14.0883 13.6 11.8652 13.6 9.18443C13.6 8.72674 13.5346 8.20367 13.4038 7.81136H14.8423V14.7421C14.8423 15.069 14.5808 15.396 14.1885 15.396H2.81154C2.48462 15.396 2.15769 15.1344 2.15769 14.7421V7.74597H3.66154C3.53077 8.20366 3.46539 8.66136 3.46539 9.11905C3.4 11.8652 5.68846 14.0883 8.5 14.0883ZM8.5 12.1267C6.66923 12.1267 5.23077 10.6883 5.23077 8.9229C5.23077 7.15751 6.66923 5.71905 8.5 5.71905C10.3308 5.71905 11.7692 7.15751 11.7692 8.9229C11.7692 10.7537 10.3308 12.1267 8.5 12.1267ZM14.7769 5.13059C14.7769 5.5229 14.45 5.84982 14.0577 5.84982H12.2269C11.8346 5.84982 11.5077 5.5229 11.5077 5.13059V3.3652C11.5077 2.9729 11.8346 2.64597 12.2269 2.64597H14.0577C14.45 2.64597 14.7769 2.9729 14.7769 3.3652V5.13059Z" fill="white"/>
</svg>
