<svg width="76" height="76" viewBox="0 0 76 76" fill="none" xmlns="http://www.w3.org/2000/svg">
<path d="M37.9999 0C17.0132 0 0 17.0132 0 37.9999C0 58.9867 17.0132 75.9998 37.9999 75.9998C58.9867 75.9998 75.9998 58.9867 75.9998 37.9999C75.9776 17.0225 58.9775 0.0224246 37.9999 0ZM37.9999 70.5713C20.0112 70.5713 5.42851 55.9886 5.42851 37.9999C5.42851 20.0112 20.0112 5.42851 37.9999 5.42851C55.9886 5.42851 70.5713 20.0112 70.5713 37.9999C70.5519 55.9807 55.9807 70.5519 37.9999 70.5713Z" fill="#00A6FF"/>
<path d="M54.003 36.7884C53.74 36.2607 53.3123 35.8329 52.7845 35.5698L31.0702 24.7126C29.7292 24.0426 28.099 24.5864 27.4289 25.9274C27.2404 26.3045 27.1424 26.7204 27.1426 27.142V48.8563C27.1419 50.3555 28.3565 51.5712 29.8556 51.572C30.2773 51.5721 30.6931 51.4741 31.0702 51.2857L52.7845 40.4285C54.1261 39.7599 54.6718 38.13 54.003 36.7884ZM32.5713 44.4646V31.5337L45.5022 37.9992L32.5713 44.4646Z" fill="#00A6FF"/>
</svg>
