<svg width="16" height="14" viewBox="0 0 16 14" fill="none" xmlns="http://www.w3.org/2000/svg">
<path d="M0.930717 6.74594L4.23481 7.97798L5.52283 12.1221C5.57884 12.4021 5.91485 12.4581 6.13885 12.2901L7.98689 10.778C8.15489 10.61 8.43491 10.61 8.65891 10.778L11.963 13.1861C12.187 13.3541 12.523 13.2421 12.579 12.9621L15.0431 1.20181C15.0991 0.921804 14.8191 0.6418 14.5391 0.753803L0.930717 6.01793C0.594709 6.12993 0.594709 6.63394 0.930717 6.74594ZM5.35484 7.36196L11.851 3.38586C11.963 3.32986 12.075 3.49787 11.963 3.55387L6.64286 8.53799C6.47486 8.70599 6.30685 8.93 6.30685 9.21L6.13885 10.554C6.13885 10.722 5.85884 10.778 5.80284 10.554L5.13082 8.08998C4.96281 7.80997 5.07483 7.47396 5.35484 7.36196Z" fill="white"/>
</svg>
