<svg width="137" height="151" viewBox="0 0 137 151" fill="none" xmlns="http://www.w3.org/2000/svg">
<path d="M68.3085 13.7194C72.1194 13.7194 75.2185 10.6419 75.2185 6.85971C75.2185 3.07752 72.1194 0 68.3085 0C64.4975 0 61.3984 3.07633 61.3984 6.85971C61.3984 10.6431 64.4975 13.7194 68.3085 13.7194ZM68.3085 2.39683C70.7976 2.39683 72.8217 4.39817 72.8217 6.85971C72.8217 9.32125 70.7976 11.3226 68.3085 11.3226C65.8194 11.3226 63.7953 9.32125 63.7953 6.85971C63.7953 4.39817 65.8194 2.39683 68.3085 2.39683Z" fill="black"/>
<path d="M136.37 86.7989C136.144 86.5029 135.793 86.3303 135.42 86.3303H130.685L122.536 46.712C126.256 45.5579 130.017 43.3804 133.778 40.165C134.647 39.422 135.161 38.3386 135.189 37.193C135.216 36.0377 134.75 34.9196 133.909 34.1262C132.371 32.6773 129.997 32.6342 128.386 34.0268C123.814 37.9731 119.554 39.857 115.741 39.6042C111.542 39.3297 108.121 36.4739 103.788 32.8547C98.4597 28.4074 91.8288 22.8707 81.0539 19.9322C80.7915 19.8603 80.523 19.8052 80.2582 19.7381L82.0821 17.5282C82.3782 17.1699 82.4405 16.6737 82.2427 16.2543C82.045 15.8349 81.622 15.5664 81.1582 15.5664H55.457C54.9932 15.5664 54.5702 15.8349 54.3725 16.2543C54.1747 16.6737 54.237 17.1699 54.533 17.5282L56.357 19.7381C56.0934 19.8052 55.8249 19.8615 55.5625 19.9322C44.7864 22.8707 38.1567 28.4074 32.825 32.8583C28.4951 36.4751 25.0749 39.3309 20.8768 39.6042C17.0587 39.8498 12.8031 37.9731 8.22996 34.0268C6.6169 32.6342 4.24284 32.6785 2.70887 34.1262C1.86639 34.9196 1.40021 36.0377 1.42777 37.193C1.45533 38.3386 1.96945 39.422 2.8383 40.165C6.60012 43.3804 10.3607 45.5591 14.0806 46.712L5.93141 86.3303H1.19768C0.82497 86.3303 0.473835 86.5041 0.247335 86.7989C0.0208345 87.0949 -0.0558639 87.4784 0.0412076 87.8391C1.79329 94.386 6.68641 99.4649 12.851 101.672V138.478V149.801C12.851 150.183 13.0344 150.544 13.3436 150.769C13.5509 150.92 13.799 150.999 14.0495 150.999C14.1729 150.999 14.2963 150.98 14.4162 150.942C31.7296 145.383 50.6238 145.382 67.9433 150.942C67.972 150.951 68.002 150.952 68.032 150.958C68.0775 150.969 68.123 150.98 68.1698 150.986C68.2165 150.992 68.2621 150.992 68.3088 150.992C68.3555 150.992 68.4023 150.992 68.449 150.986C68.4958 150.98 68.5401 150.97 68.5868 150.959C68.6168 150.952 68.6468 150.951 68.6767 150.942C85.9962 145.382 104.89 145.383 122.204 150.942C122.324 150.98 122.447 150.999 122.571 150.999C122.821 150.999 123.069 150.92 123.276 150.769C123.586 150.544 123.769 150.183 123.769 149.801V138.478V101.672C129.932 99.4649 134.827 94.386 136.579 87.8391C136.673 87.4796 136.597 87.0949 136.37 86.7989ZM128.238 86.3303H105.48L113.592 47.4682C114.111 47.5449 114.637 47.6096 115.182 47.6455C115.596 47.6719 116.009 47.6851 116.424 47.6851C117.677 47.6851 118.941 47.5401 120.208 47.2944L128.238 86.3303ZM25.3685 46.9684C30.3263 45.5771 34.2032 42.3473 38.2574 38.9618C43.2068 34.8285 48.8178 30.1439 57.8179 27.6896C59.0019 27.366 60.2111 27.1083 61.4239 26.8842L61.3988 54.685C55.9711 52.6153 49.1414 50.9495 41.1779 50.9495C36.2728 50.9495 31.3761 51.6003 26.5992 52.8682L25.3685 46.9684ZM56.6554 55.6042C60.8367 56.8493 64.36 58.4372 67.1104 59.9316V100.219L62.7278 95.8649C62.2604 95.3999 61.5054 95.3999 61.0392 95.8649L56.6566 100.219V55.6042H56.6554ZM68.3088 57.8584C66.9726 57.131 65.4722 56.3807 63.7956 55.6533L63.8195 28.7777L67.3848 33.0968C67.6125 33.3724 67.9517 33.5318 68.3088 33.5318C68.6659 33.5318 69.0051 33.3724 69.2328 33.0968L72.798 28.7777L72.822 55.6533C71.1454 56.3807 69.645 57.131 68.3088 57.8584ZM75.2177 54.6838L75.1925 26.883C76.4053 27.1071 77.6145 27.3648 78.7985 27.6884C87.7986 30.1427 93.4083 34.8273 98.359 38.9606C102.413 42.3461 106.29 45.5771 111.248 46.9672L110.017 52.8658C105.24 51.5979 100.344 50.9471 95.4385 50.9471C87.4738 50.9483 80.6453 52.6141 75.2177 54.6838ZM80.4236 22.2452C90.6952 25.0459 97.1031 30.3968 102.255 34.6979C106.92 38.5939 110.606 41.6714 115.586 41.9962C120.059 42.2826 124.888 40.2118 129.952 35.84C130.63 35.2539 131.625 35.2659 132.264 35.8699C132.612 36.1959 132.804 36.6573 132.792 37.1342C132.78 37.6076 132.577 38.0366 132.219 38.3422C126.444 43.2785 120.766 45.595 115.337 45.2523C109.146 44.8484 104.652 41.095 99.8942 37.1211C94.7554 32.8307 88.9323 27.9676 79.4277 25.3754C78.3707 25.0878 77.2957 24.8481 76.2159 24.6336L78.5648 21.7886C79.188 21.9348 79.81 22.0774 80.4236 22.2452ZM78.6175 17.9632L68.3088 30.4507L58 17.9632H78.6175ZM3.8246 37.1342C3.81261 36.6585 4.00556 36.1971 4.3531 35.8699C4.99305 35.2683 5.98653 35.2563 6.66483 35.8412C11.7305 40.213 16.5733 42.279 21.0314 41.9974C26.0108 41.6726 29.6959 38.5951 34.3638 34.6967C39.5121 30.398 45.9212 25.047 56.1928 22.2464C56.8064 22.0786 57.4284 21.936 58.0504 21.791L60.3993 24.636C59.3195 24.8505 58.2433 25.089 57.1875 25.3778C47.6829 27.97 41.8598 32.8331 36.721 37.1235C31.9633 41.0974 27.4693 44.8508 21.2783 45.2547C15.8411 45.5998 10.1702 43.2809 4.39624 38.3446C4.03911 38.0378 3.83658 37.6076 3.8246 37.1342ZM16.4091 47.2944C17.6771 47.5401 18.9402 47.6851 20.1937 47.6851C20.6084 47.6851 21.0218 47.6719 21.4353 47.6455C21.9794 47.6096 22.5067 47.5461 23.0256 47.4682L31.1376 86.3303H8.37976L16.4091 47.2944ZM2.83231 88.7271H36.6887C34.1301 95.7211 27.3818 100.484 19.7611 100.484C12.1392 100.484 5.39092 95.7223 2.83231 88.7271ZM19.7599 102.88C28.9997 102.88 37.1093 96.6954 39.4798 87.8391C39.5769 87.4796 39.5001 87.0949 39.2737 86.7989C39.0471 86.5029 38.696 86.3303 38.3233 86.3303H33.586L27.0906 55.2159C31.7057 53.9791 36.4382 53.3452 41.1791 53.3452C45.9932 53.3452 50.3734 53.9827 54.2598 54.9486V103.096C54.2598 103.58 54.551 104.016 54.998 104.202C55.1466 104.265 55.3036 104.294 55.4582 104.294C55.7686 104.294 56.0742 104.173 56.3031 103.946L61.8841 98.4019L67.1104 103.596V136.851C50.2847 131.786 32.07 131.786 15.2479 136.851V102.364C16.7075 102.692 18.2151 102.88 19.7599 102.88ZM15.2479 148.173V139.371C32.0556 134.161 50.2979 134.161 67.1104 139.371V142.538C56.3918 139.311 45.1267 138.081 33.9431 138.986C33.2828 139.039 32.7914 139.617 32.8442 140.277C32.8969 140.936 33.4757 141.427 34.1349 141.376C45.2681 140.482 56.4733 141.738 67.1104 145.037V148.173C50.2823 143.107 32.0724 143.107 15.2479 148.173ZM69.5072 148.173V145.037C80.1443 141.738 91.3495 140.481 102.483 141.376C103.138 141.429 103.719 140.937 103.773 140.277C103.827 139.617 103.335 139.039 102.674 138.986C91.4921 138.083 80.2258 139.311 69.5072 142.538V139.371C86.3197 134.161 104.563 134.161 121.37 139.371V148.173C104.546 143.106 86.3353 143.106 69.5072 148.173ZM121.37 136.851C104.548 131.785 86.3329 131.785 69.5072 136.851V59.9304C75.1841 56.8481 84.1255 53.3452 95.4385 53.3452C100.178 53.3452 104.911 53.9803 109.527 55.2159L103.032 86.3303H98.2943C97.9216 86.3303 97.5704 86.5041 97.3439 86.7989C97.1174 87.0949 97.0407 87.4784 97.1378 87.8391C99.5083 96.6954 107.618 102.88 116.858 102.88C118.402 102.88 119.91 102.693 121.371 102.364V136.851H121.37ZM116.858 100.484C109.237 100.484 102.489 95.7223 99.9301 88.7271H133.786C131.225 95.7223 124.478 100.484 116.858 100.484Z" fill="black"/>
</svg>
