<svg width="22" height="24" viewBox="0 0 22 24" fill="none" xmlns="http://www.w3.org/2000/svg">
<path d="M16.6137 1.23004C12.8667 0.514467 8.97552 0.514467 5.22849 1.23004C3.57114 1.58782 1.48145 3.59142 1.12116 5.16568C0.472634 8.24263 0.472634 11.3911 1.12116 14.4681C1.55351 16.0424 3.6432 18.0459 5.22849 18.4037C5.30054 18.4037 5.3726 18.4753 5.3726 18.5468V23.0549C5.3726 23.2696 5.66084 23.4127 5.80496 23.1981L7.96671 20.9798C7.96671 20.9798 9.69611 19.1909 9.98434 18.9046C9.98434 18.9046 10.0564 18.8331 10.1285 18.8331C12.2902 18.9046 14.524 18.69 16.6858 18.3322C18.3431 17.9744 20.4328 15.9708 20.7931 14.3965C21.4416 11.3196 21.4416 8.17107 20.7931 5.09412C20.3607 3.59142 18.2711 1.58782 16.6137 1.23004ZM16.6858 14.6828C16.3255 15.3983 15.8931 15.9708 15.1725 16.3286C14.9564 16.4001 14.7402 16.4717 14.524 16.5433C14.2358 16.4717 14.0196 16.4001 13.8034 16.3286C11.4976 15.3983 9.33582 14.1103 7.60642 12.2498C6.66966 11.1765 5.87701 9.96 5.22849 8.67197C4.94025 8.02796 4.65202 7.4555 4.43584 6.81149C4.21967 6.23903 4.57996 5.66658 4.94025 5.23723C5.30054 4.80789 5.7329 4.52166 6.2373 4.30699C6.5976 4.09232 6.95789 4.23543 7.24612 4.52166C7.82259 5.23723 8.39906 5.9528 8.83141 6.73993C9.11964 7.24083 9.04758 7.81329 8.54317 8.17107C8.39905 8.24263 8.327 8.31419 8.18288 8.4573C8.11082 8.52886 7.9667 8.60041 7.89464 8.74353C7.75053 8.9582 7.75053 9.17287 7.82259 9.38754C8.39905 11.0334 9.47993 12.3214 11.1373 13.037C11.4255 13.1801 11.6417 13.2516 12.002 13.2516C12.5064 13.1801 12.7226 12.6076 13.0829 12.3214C13.4431 12.0352 13.8755 12.0352 14.3078 12.2498C14.6681 12.4645 15.0284 12.7507 15.4608 13.037C15.8211 13.3232 16.1814 13.5379 16.5417 13.8241C16.7578 13.9672 16.8299 14.325 16.6858 14.6828ZM13.6593 9.31599C13.5152 9.31599 13.5873 9.31599 13.6593 9.31599C13.3711 9.31599 13.299 9.17287 13.227 8.9582C13.227 8.81509 13.227 8.60042 13.1549 8.4573C13.0829 8.17107 12.9387 7.88485 12.6505 7.67017C12.5064 7.59862 12.3623 7.52706 12.2181 7.4555C12.002 7.38394 11.8579 7.38395 11.6417 7.38395C11.4255 7.31239 11.3534 7.16927 11.3534 6.9546C11.3534 6.81149 11.5696 6.66838 11.7137 6.66838C12.8667 6.73993 13.7314 7.38394 13.8755 8.74353C13.8755 8.81509 13.8755 8.9582 13.8755 9.02976C13.8755 9.17287 13.8034 9.31599 13.6593 9.31599ZM12.9387 6.16748C12.5784 6.02436 12.2181 5.88125 11.7858 5.80969C11.6417 5.80969 11.4255 5.73813 11.2814 5.73813C11.0652 5.73813 10.9211 5.59502 10.9932 5.38035C10.9932 5.16568 11.1373 5.02256 11.3534 5.09412C12.074 5.16568 12.7226 5.30879 13.3711 5.59502C14.6681 6.23903 15.3887 7.31239 15.6049 8.74353C15.6049 8.81509 15.6049 8.88665 15.6049 8.9582C15.6049 9.10132 15.6049 9.24443 15.6049 9.4591C15.6049 9.53066 15.6049 9.60222 15.6049 9.67377C15.5328 9.96 15.0284 10.0316 14.9564 9.67377C14.9564 9.60222 14.8843 9.4591 14.8843 9.38754C14.8843 8.74353 14.7402 8.09952 14.452 7.52706C14.0196 6.88305 13.5152 6.4537 12.9387 6.16748ZM16.8299 10.4609C16.6137 10.4609 16.4696 10.2462 16.4696 10.0316C16.4696 9.60222 16.3975 9.17287 16.3255 8.74353C16.0372 6.4537 14.1637 4.59322 11.9299 4.23543C11.5696 4.16388 11.2093 4.16388 10.9211 4.09232C10.7049 4.09232 10.4167 4.09232 10.3446 3.80609C10.2726 3.59142 10.4887 3.37675 10.7049 3.37675C10.777 3.37675 10.849 3.37675 10.849 3.37675C13.8034 3.44831 10.9932 3.37675 10.849 3.37675C13.8755 3.44831 16.3975 5.45191 16.9019 8.4573C16.974 8.9582 17.0461 9.4591 17.0461 10.0316C17.1902 10.2462 17.0461 10.4609 16.8299 10.4609Z" fill="white"/>
</svg>
