<svg width="17" height="18" viewBox="0 0 17 18" fill="none" xmlns="http://www.w3.org/2000/svg">
<path d="M14.4289 2.68811C12.8422 1.10694 10.7266 0.228516 8.49354 0.228516C3.85103 0.228516 0.090015 3.97647 0.090015 8.60286C0.090015 10.0669 0.501377 11.531 1.20657 12.7608L0.03125 17.0943L4.49746 15.9231C5.73154 16.5673 7.08316 16.9186 8.49354 16.9186C13.136 16.9186 16.8971 13.1707 16.8971 8.5443C16.8383 6.37751 16.0156 4.26928 14.4289 2.68811ZM12.5484 11.5895C12.3721 12.058 11.5494 12.5265 11.138 12.5851C10.7854 12.6436 10.3153 12.6436 9.84516 12.5265C9.55133 12.4094 9.13997 12.2923 8.66984 12.058C6.55427 11.1796 5.20265 9.07136 5.08512 8.89567C4.96759 8.77855 4.20363 7.783 4.20363 6.72888C4.20363 5.67477 4.73252 5.20627 4.90882 4.97203C5.08512 4.73778 5.32018 4.73778 5.49648 4.73778C5.61401 4.73778 5.79031 4.73778 5.90784 4.73778C6.02537 4.73778 6.20167 4.67922 6.37797 5.08915C6.55427 5.49908 6.96563 6.5532 7.02439 6.61176C7.08316 6.72888 7.08316 6.84601 7.02439 6.96313C6.96563 7.08025 6.90686 7.19738 6.78933 7.3145C6.6718 7.43162 6.55426 7.60731 6.4955 7.66587C6.37797 7.783 6.26044 7.90012 6.37797 8.0758C6.4955 8.31005 6.90686 8.95423 7.55329 9.53985C8.37601 10.2426 9.02244 10.4768 9.2575 10.594C9.49256 10.7111 9.61009 10.6525 9.72762 10.5354C9.84515 10.4183 10.2565 9.94979 10.3741 9.71554C10.4916 9.48129 10.6679 9.53985 10.8442 9.59841C11.0205 9.65698 12.0783 10.184 12.2546 10.3012C12.4896 10.4183 12.6072 10.4768 12.6659 10.5354C12.7247 10.7111 12.7247 11.121 12.5484 11.5895Z" fill="white"/>
</svg>
