<svg width="26" height="19" viewBox="0 0 26 19" fill="none" xmlns="http://www.w3.org/2000/svg">
<path d="M25.1988 7.47799C25.1988 6.93496 25.1083 6.30143 25.1083 5.57739C25.0178 4.85335 24.9273 4.1293 24.8368 3.49577C24.6557 2.77173 24.3842 2.2287 23.8412 1.77618C23.3887 1.32365 22.7551 1.05213 22.1216 0.961624C20.04 0.690109 16.9628 0.599609 12.7996 0.599609C8.63636 0.599609 5.46867 0.690109 3.47756 0.961624C2.84402 1.05213 2.21049 1.32365 1.75797 1.77618C1.30544 2.2287 0.943415 2.77173 0.762405 3.49577C0.581395 4.1293 0.490901 4.76284 0.490901 5.57739C0.400396 6.30143 0.400391 6.93496 0.400391 7.47799C0.400391 8.02102 0.400391 8.65455 0.400391 9.5596C0.400391 10.4647 0.400391 11.1887 0.400391 11.6412C0.400391 12.1843 0.490901 12.8178 0.490901 13.5418C0.581406 14.2659 0.6719 14.9899 0.762405 15.6234C0.943415 16.3475 1.21494 16.8905 1.75797 17.343C2.21049 17.7956 2.84402 18.0671 3.47756 18.1576C5.55917 18.4291 8.63636 18.5196 12.7996 18.5196C16.9628 18.5196 20.1305 18.4291 22.1216 18.1576C22.7551 18.0671 23.3887 17.7956 23.8412 17.343C24.2937 16.8905 24.6557 16.3475 24.8368 15.6234C25.0178 14.9899 25.1083 14.3564 25.1083 13.5418C25.1988 12.8178 25.1988 12.1843 25.1988 11.6412C25.1988 11.0982 25.1988 10.4647 25.1988 9.5596C25.1988 8.65455 25.1988 7.93051 25.1988 7.47799ZM17.5964 10.2836L10.4465 14.7184C10.356 14.8089 10.1749 14.8994 9.99393 14.8994C9.81292 14.8994 9.72242 14.8994 9.54141 14.8089C9.26989 14.6279 9.08888 14.3564 9.08888 13.9944V5.03435C9.08888 4.67233 9.26989 4.40082 9.54141 4.21981C9.81292 4.0388 10.1749 4.0388 10.4465 4.21981L17.5964 8.65455C17.8679 8.83556 18.0489 9.10708 18.0489 9.3786C18.0489 9.65011 17.8679 10.1026 17.5964 10.2836Z" fill="white"/>
</svg>
