<svg width="232" height="94" fill="none" xmlns="http://www.w3.org/2000/svg"><path fill-rule="evenodd" clip-rule="evenodd" d="M90.901 41.05c3.119-4.3 7.517-8.039 12.474-11.049l.722-22.26c-1.214.23-2.593.66-4.136 1.256-12.145 6.152-25.243 22.79-9.06 32.052zm13.82-11.843c.624-.363 1.248-.694 1.871-1.025l.624-20.673c-.525-.067-1.116-.033-1.773.033l-.722 21.665zm.919-27.62l-.131 3.738C112.074 3.308 118.804 1.82 124.318 0a38.036 38.036 0 01-9.355 5.49l-.525 19.318c5.055-1.786 10.242-2.878 15.001-3.11 9.028-.628 18.219 4.334 12.113 13.397-1.871 2.779-5.285 5.359-9.88 8.071-5.909 3.275-11.884 5.359-17.924 6.252l-.459 16.505c10.537-1.422 21.796-6.02 26.064-16.605 2.856-.33 4.628-.562 5.285-.628-7.058 12.404-17.464 19.317-31.251 20.707-.525 5.755-2.462 10.65-5.81 14.653 15.133-5.028 29.084-5.094 43.593-9.196-3.446 4.83-6.696 8.865-9.683 12.107 1.838-2.944 2.593-4.796 1.772-5.524-9.126 4.366-18.317 6.55-27.64 6.582-4.497 0-8.764.232-12.769.629l-.164 4.862-1.346.265.164-4.995c-.328.033-.689.066-1.017.132-3.513.298-8.076 1.092-13.755 2.382 6.894-3.705 11.916-7.707 15.1-12.007l.296-9.163c-12.047-1.521-20.943-11.048-14.247-23.55-14.772-7.675-11.456-23.552-.065-32.715 4.53-3.671 10.373-6.119 16.413-8.07l.131-3.672 1.28-.53zm-.984 29.671l-.46 14.19c.624.033 1.247.067 1.904.067l.459-15.183c-.656.265-1.28.595-1.903.926zm-.591 18.59l-.526 15.877a13.4 13.4 0 001.97.265l.46-16.11c-.624 0-1.281 0-1.904-.032zm-.657 20.376l-.23 6.88c1.281-2.217 2.068-4.466 2.429-6.814-.755 0-1.477 0-2.199-.067zm-1.182-4.797l.526-15.712c-4.038-.33-8.076-1.19-12.179-2.547-3.512 9.328 3.316 16.175 11.653 18.26zm.657-20.078l.427-13.297c-4.498 2.68-8.108 5.987-10.866 9.923 2.692 1.853 6.171 2.977 10.439 3.374zm11.456-18.093l-.492 17.663c2.56-.33 5.285-.86 8.206-1.521 24.193-5.69 16.217-22.063-3.873-17.2-1.313.33-2.593.694-3.841 1.058z" fill="#000"/><path stroke="#000" d="M182 47.5h50m-232 0h50"/></svg>