<svg width="232" height="94" viewBox="0 0 232 94" fill="none" xmlns="http://www.w3.org/2000/svg">
<path fill-rule="evenodd" clip-rule="evenodd" d="M90.9013 41.0491C94.0198 36.7491 98.4185 33.0113 103.375 30.0013L104.097 7.74013C102.883 7.97167 101.504 8.40168 99.9614 8.99707C87.8157 15.1495 74.718 31.7875 90.9013 41.0491ZM104.721 29.2074C105.345 28.8436 105.969 28.5128 106.592 28.182L107.216 7.50859C106.691 7.44243 106.1 7.47551 105.443 7.54166L104.721 29.2074ZM105.64 1.58772L105.509 5.32547C112.074 3.30775 118.804 1.81926 124.318 0C121.463 2.28235 118.344 4.10161 114.963 5.49086L114.438 24.8081C119.493 23.0219 124.68 21.9304 129.439 21.6988C138.467 21.0704 147.658 26.032 141.552 35.0952C139.681 37.8737 136.267 40.4538 131.672 43.1661C125.763 46.4408 119.788 48.5247 113.748 49.4178L113.289 65.9234C123.826 64.5011 135.085 59.9033 139.353 49.3185C142.209 48.9877 143.981 48.7562 144.638 48.69C137.58 61.0941 127.174 68.0073 113.387 69.3966C112.862 75.152 110.925 80.0475 107.577 84.0499C122.71 79.0221 136.661 78.9559 151.17 74.8543C147.724 79.6836 144.474 83.7191 141.487 86.9607C143.325 84.0168 144.08 82.1645 143.259 81.4368C134.133 85.803 124.942 87.9861 115.619 88.0192C111.122 88.0192 106.855 88.2507 102.85 88.6476L102.686 93.51L101.34 93.7747L101.504 88.78C101.176 88.813 100.815 88.8461 100.487 88.9123C96.9742 89.21 92.4113 90.0038 86.7324 91.2938C93.6259 87.5892 98.6483 83.5868 101.832 79.2867L102.128 70.1243C90.0807 68.6027 81.1848 59.0764 87.8813 46.5731C73.1095 38.8991 76.425 23.0219 87.8157 13.8595C92.3457 10.1879 98.1888 7.74013 104.229 5.78856L104.36 2.11696L105.64 1.58772ZM104.656 31.2582L104.196 45.4485C104.82 45.4815 105.443 45.5146 106.1 45.5146L106.559 30.332C105.903 30.5967 105.279 30.9274 104.656 31.2582ZM104.065 49.8478L103.539 65.7249C104.196 65.8573 104.852 65.9565 105.509 65.9896L105.969 49.8808C105.345 49.8808 104.688 49.8808 104.065 49.8478ZM103.408 70.2235L103.178 77.1036C104.459 74.8874 105.246 72.6381 105.607 70.2896C104.852 70.2896 104.13 70.2896 103.408 70.2235ZM102.226 65.4273L102.752 49.7155C98.714 49.3847 94.6763 48.5247 90.5731 47.1685C87.0607 56.4963 93.8885 63.3434 102.226 65.4273ZM102.883 45.3492L103.31 32.0521C98.8125 34.7314 95.2016 38.0391 92.4442 41.9753C95.1359 43.8277 98.6155 44.9523 102.883 45.3492ZM114.339 27.2558L113.847 44.9192C116.407 44.5884 119.132 44.0592 122.053 43.3977C146.246 37.7083 138.27 21.335 118.18 26.1974C116.867 26.5281 115.587 26.892 114.339 27.2558Z" fill="black"/>
<line x1="182" y1="47.5" x2="232" y2="47.5" stroke="black"/>
<line y1="47.5" x2="50" y2="47.5" stroke="black"/>
</svg>
